<svg width="40" height="40" viewBox="0 0 40 40" fill="none" xmlns="http://www.w3.org/2000/svg">
<g id="025-bathrobe 1" clip-path="url(#clip0_63_146)">
<g id="Clip path group">
<mask id="mask0_63_146" style="mask-type:luminance" maskUnits="userSpaceOnUse" x="0" y="0" width="40" height="40">
<g id="clip0_1:758">
<path id="Vector" d="M40 0H0V40H40V0Z" fill="white"/>
</g>
</mask>
<g mask="url(#mask0_63_146)">
<g id="Group">
<path id="Vector_2" d="M8.02422 7.34126C8.11023 7.36675 8.2007 7.37343 8.28953 7.36086C8.37836 7.34827 8.46344 7.31672 8.53898 7.26835C8.61453 7.21997 8.67875 7.1559 8.72734 7.08049C8.77586 7.00507 8.80766 6.92009 8.82047 6.83131C8.83328 6.74253 8.8268 6.65205 8.80156 6.56599C8.77625 6.47992 8.73273 6.40031 8.67391 6.33256C8.61516 6.26481 8.5425 6.21051 8.46078 6.17335C8.37914 6.13619 8.29047 6.11703 8.20078 6.11719C8.06594 6.11782 7.93484 6.16174 7.8268 6.24245C7.71882 6.32317 7.63958 6.43644 7.60077 6.56557C7.55428 6.72458 7.57274 6.89552 7.65212 7.04094C7.7315 7.18635 7.86531 7.29435 8.02422 7.34126Z" fill="#4E580F" fill-opacity="0.8"/>
<path id="Vector_3" d="M6.94531 9.08438V9.08516C6.84481 9.95008 6.94655 10.8265 7.24251 11.6453C7.53846 12.4642 8.02055 13.2031 8.65078 13.8039L18.4896 23.7444L18.2531 24.1194C18.1649 24.2598 18.1359 24.4294 18.1726 24.591C18.2092 24.7527 18.3084 24.8933 18.4484 24.982C18.5888 25.0702 18.7584 25.0992 18.9201 25.0626C19.0817 25.0259 19.2223 24.9267 19.3109 24.7866L19.5961 24.3342C19.7234 24.2866 19.8315 24.1985 19.9039 24.0835C19.9764 23.9686 20.0092 23.833 19.9973 23.6977L22.218 20.1752C22.2214 20.1701 22.2245 20.1648 22.2277 20.1595L27.4594 11.8609C27.6845 11.5041 27.8349 11.1055 27.9015 10.6889C27.9681 10.2723 27.9495 9.84664 27.8469 9.4375L26.8188 5.32414C26.4393 3.80286 25.5613 2.45244 24.325 1.4882C24.2203 1.40695 24.1117 1.32641 24.0008 1.24992H26.2594C27.2032 1.25373 28.1209 1.56115 28.8765 2.12673C29.6321 2.69231 30.1858 3.48603 30.4555 4.39055L31.8656 9.18586C32.0464 9.79961 32.0902 10.4455 31.9941 11.078C31.898 11.7106 31.6643 12.3144 31.3094 12.8467L28.5203 17.0312C28.4723 17.0995 28.4384 17.1766 28.4207 17.2581C28.403 17.3396 28.4017 17.4238 28.417 17.5059C28.4323 17.5879 28.4639 17.6659 28.5099 17.7355C28.5559 17.8052 28.6154 17.8648 28.6848 17.9111C28.7542 17.9573 28.8322 17.9893 28.9141 18.0049C28.996 18.0205 29.0803 18.0197 29.1619 18.0023C29.2434 17.9848 29.3207 17.9513 29.3891 17.9035C29.4575 17.8558 29.5157 17.7948 29.5602 17.7242L32.35 13.5405C32.8059 12.8557 33.1061 12.0794 33.2298 11.266C33.3534 10.4527 33.2973 9.62219 33.0656 8.83281L31.6555 4.0375C31.3126 2.87195 30.6016 1.84873 29.6287 1.12094C28.6559 0.393139 27.4735 -0.000115861 26.2586 2.56052e-08H13.7414C12.5265 -0.000115861 11.3441 0.393139 10.3713 1.12094C9.39844 1.84873 8.68742 2.87195 8.34453 4.0375L8.30703 4.16719C8.27969 4.26043 8.27445 4.35875 8.29172 4.45436C8.30906 4.54998 8.34836 4.64025 8.40656 4.71803C8.46477 4.79581 8.54031 4.85897 8.62719 4.90248C8.71406 4.94601 8.80984 4.96869 8.90703 4.96875C9.0418 4.9681 9.17281 4.92416 9.2807 4.8434C9.38859 4.76264 9.46766 4.64935 9.50625 4.52023L9.54453 4.39062C9.8143 3.486 10.368 2.69221 11.1238 2.12663C11.8797 1.56103 12.7974 1.25368 13.7414 1.25H15.9992C14.5964 2.22084 13.5948 3.66898 13.1813 5.32414L12.2367 9.09992C12.1063 9.62352 12.1134 10.172 12.2573 10.692C12.4013 11.212 12.6773 11.6861 13.0586 12.068L20.9046 19.9141L19.1743 22.6584L9.52813 12.9141L9.51563 12.9016C9.08734 12.4922 8.74625 12.0005 8.51297 11.4559C8.27961 10.9114 8.15883 10.3252 8.15781 9.73281C8.15766 9.56445 8.16734 9.39617 8.18672 9.22891C8.20563 9.0643 8.15859 8.89898 8.05578 8.76906C7.95297 8.63914 7.80281 8.55531 7.63828 8.53594C7.61406 8.53352 7.58906 8.53203 7.56484 8.53203C7.41183 8.53219 7.2642 8.58852 7.14998 8.69031C7.03577 8.79211 6.96293 8.93234 6.94531 9.08438ZM13.943 11.1835C13.7684 11.0098 13.6298 10.8032 13.5356 10.5757C13.4413 10.3481 13.3931 10.1041 13.3938 9.85781C13.3937 9.70453 13.4123 9.5518 13.4492 9.40305L14.3938 5.62734C14.7064 4.37714 15.428 3.26732 16.4438 2.47427C17.4595 1.68123 18.7113 1.25048 20 1.25048C21.2887 1.25048 22.5405 1.68123 23.5562 2.47427C24.572 3.26732 25.2936 4.37714 25.6063 5.62734L26.6344 9.74063C26.6959 9.98609 26.7071 10.2415 26.6672 10.4913C26.6273 10.7413 26.5373 10.9805 26.4023 11.1945L21.5886 18.8292L13.943 11.1835Z" fill="#4E580F" fill-opacity="0.8"/>
<path id="Vector_4" d="M1.875 25.0781C2.04076 25.0781 2.19973 25.0123 2.31695 24.8951C2.43415 24.7779 2.5 24.6189 2.5 24.4531V8.125C2.5013 6.96508 2.96266 5.85304 3.78284 5.03284C4.60304 4.21266 5.71508 3.7513 6.875 3.75C7.04076 3.75 7.19973 3.68415 7.31695 3.56695C7.43415 3.44973 7.5 3.29076 7.5 3.125C7.5 2.95924 7.43415 2.80027 7.31695 2.68305C7.19973 2.56585 7.04076 2.5 6.875 2.5C5.38367 2.50167 3.95391 3.09484 2.89937 4.14937C1.84484 5.20391 1.25167 6.63367 1.25 8.125V24.4531C1.25 24.6189 1.31585 24.7779 1.43305 24.8951C1.55027 25.0123 1.70924 25.0781 1.875 25.0781Z" fill="#4E580F" fill-opacity="0.8"/>
<path id="Vector_5" d="M33.125 3.75C34.2849 3.7513 35.397 4.21266 36.2172 5.03284C37.0373 5.85304 37.4987 6.96508 37.5 8.125V28.75C37.5 28.9158 37.5659 29.0748 37.683 29.192C37.8002 29.3091 37.9592 29.375 38.125 29.375C38.2908 29.375 38.4498 29.3091 38.567 29.192C38.6841 29.0748 38.75 28.9158 38.75 28.75V8.125C38.7484 6.63367 38.1552 5.20391 37.1006 4.14937C36.0461 3.09484 34.6163 2.50167 33.125 2.5C32.9592 2.5 32.8002 2.56585 32.683 2.68305C32.5659 2.80027 32.5 2.95924 32.5 3.125C32.5 3.29076 32.5659 3.44973 32.683 3.56695C32.8002 3.68415 32.9592 3.75 33.125 3.75Z" fill="#4E580F" fill-opacity="0.8"/>
<path id="Vector_6" d="M20.625 38.7495H15.5428L17.395 35.9716C17.4415 35.9033 17.474 35.8265 17.4906 35.7456C17.5073 35.6648 17.5077 35.5813 17.4919 35.5003C17.4761 35.4192 17.4444 35.3421 17.3986 35.2734C17.3528 35.2047 17.2938 35.1457 17.2252 35.0998C17.1564 35.0541 17.0793 35.0223 16.9982 35.0065C16.9172 34.9906 16.8337 34.991 16.7528 35.0077C16.672 35.0242 16.5951 35.0567 16.5268 35.1032C16.4585 35.1496 16.4002 35.2091 16.355 35.2783L14.0405 38.7495H10.5078L12.2677 35.9582C12.3562 35.818 12.3852 35.6484 12.3486 35.4868C12.312 35.3251 12.2126 35.1847 12.0724 35.0962C11.9322 35.0079 11.7626 34.9787 11.6009 35.0154C11.4392 35.052 11.2988 35.1514 11.2103 35.2916L9.03016 38.7495H6.875C5.90473 38.7502 4.96181 38.4282 4.19463 37.8342C3.42745 37.2403 2.87959 36.4081 2.63727 35.4687C2.61675 35.3892 2.58077 35.3146 2.53141 35.249C2.48203 35.1834 2.42023 35.1282 2.34952 35.0865C2.2788 35.0448 2.20057 35.0175 2.11929 35.006C2.03801 34.9946 1.95527 34.9992 1.87578 35.0198C1.79631 35.0403 1.72164 35.0762 1.65606 35.1256C1.59048 35.175 1.53527 35.2368 1.49359 35.3075C1.45189 35.3782 1.42453 35.4564 1.41308 35.5377C1.40162 35.6189 1.40628 35.7017 1.4268 35.7812C1.73834 36.9889 2.4427 38.0588 3.429 38.8224C4.41531 39.5861 5.62757 40.0001 6.875 39.9994H20.625C20.7908 39.9994 20.9498 39.9335 21.067 39.8164C21.1841 39.6991 21.25 39.5402 21.25 39.3745C21.25 39.2087 21.1841 39.0497 21.067 38.9326C20.9498 38.8154 20.7908 38.7495 20.625 38.7495Z" fill="#4E580F" fill-opacity="0.8"/>
<path id="Vector_7" d="M18.125 33.7491C18.2908 33.7491 18.4498 33.6833 18.567 33.5661C18.6841 33.4489 18.75 33.2899 18.75 33.1242C18.75 32.9584 18.6841 32.7995 18.567 32.6823C18.4498 32.5651 18.2908 32.4993 18.125 32.4993H1.875C1.7093 32.4991 1.55044 32.4332 1.43327 32.316C1.31609 32.1988 1.25019 32.04 1.25 31.8743V30.6245H10.625C10.7908 30.6245 10.9498 30.5586 11.067 30.4415C11.1841 30.3243 11.25 30.1653 11.25 29.9996C11.25 29.8338 11.1841 29.6748 11.067 29.5577C10.9498 29.4405 10.7908 29.3746 10.625 29.3746H1.25V28.2029C1.25019 28.0372 1.31609 27.8784 1.43327 27.7612C1.55044 27.6441 1.7093 27.5781 1.875 27.578H23.125C23.2908 27.578 23.4498 27.5121 23.567 27.395C23.6841 27.2778 23.75 27.1188 23.75 26.953C23.75 26.7873 23.6841 26.6283 23.567 26.5111C23.4498 26.394 23.2908 26.3281 23.125 26.3281H1.875C1.37789 26.3287 0.901305 26.5264 0.549791 26.8778C0.198282 27.2293 0.000558306 27.7058 0 28.2029V31.8743C0.000558306 32.3714 0.198282 32.8479 0.549791 33.1994C0.901305 33.5508 1.37789 33.7486 1.875 33.7491H18.125Z" fill="#4E580F" fill-opacity="0.8"/>
<path id="Vector_8" d="M39.6438 31.0795C38.6259 30.8217 37.5796 30.6933 36.5295 30.6974C36.3189 29.6805 35.981 28.6943 35.5239 27.7619C35.4609 27.6405 35.3598 27.543 35.2362 27.4846C35.1125 27.4262 34.9731 27.4099 34.8393 27.4383C33.9891 27.6399 33.1627 27.9312 32.3738 28.3071C31.8027 27.594 31.1538 26.9468 30.4393 26.3774C30.3305 26.2946 30.1975 26.2498 30.0608 26.2498C29.9241 26.2498 29.7911 26.2946 29.6823 26.3774C28.9411 26.9681 28.2705 27.6424 27.684 28.3869C26.8455 27.9725 25.9628 27.6542 25.0528 27.4381C24.9191 27.4098 24.7796 27.426 24.656 27.4844C24.5323 27.5429 24.4313 27.6402 24.3683 27.7616C23.9112 28.6941 23.5733 29.6804 23.3626 30.6973C22.3126 30.6933 21.2662 30.8217 20.2484 31.0793C20.1166 31.1162 20.0007 31.1951 19.9182 31.3042C19.8357 31.4133 19.7913 31.5465 19.7917 31.6832C19.7924 31.8794 19.8405 36.5131 22.733 38.7C24.089 39.7251 25.7833 40.0047 27.2295 40.0047C28.1434 40.0009 29.0541 39.8988 29.9461 39.7C30.838 39.8988 31.7489 40.001 32.6627 40.0047C34.1088 40.0047 35.8034 39.7248 37.1591 38.7C40.0516 36.5131 40.0998 31.8797 40.1004 31.6832C40.1008 31.5465 40.0563 31.4134 39.9739 31.3044C39.8914 31.1954 39.7755 31.1164 39.6438 31.0795ZM34.6204 28.7874C34.9786 29.6242 35.2356 30.5007 35.386 31.3984C35.3881 31.4198 35.3912 31.4408 35.3953 31.4615C35.5587 32.5439 35.5389 33.7505 35.0387 34.8086C34.5417 35.8597 33.6202 36.6396 32.6841 37.1998C33.517 36.0635 34.2623 34.5904 34.2623 32.9556C34.2623 31.6091 33.7565 30.3722 33.1127 29.3428C33.6024 29.1241 34.1062 28.9386 34.6207 28.7874H34.6204ZM23.487 37.7031C21.5845 36.2648 21.1617 33.3373 21.0682 32.1729C21.7648 32.0341 22.4725 31.9589 23.1827 31.9481C23.0955 33.055 23.2048 34.2464 23.723 35.3428C24.5121 37.0116 26.0678 38.0876 27.4381 38.7491C26.1609 38.7758 24.6388 38.574 23.487 37.7031ZM24.8531 34.8086C23.8339 32.6523 24.8159 29.8623 25.2726 28.7872C25.8496 28.9567 26.413 29.1698 26.9577 29.4248C26.3383 30.4375 25.8594 31.6448 25.8594 32.9556C25.8594 34.7037 26.7116 36.2673 27.612 37.4316C26.5413 36.8612 25.4229 36.0139 24.8531 34.8086ZM30.0608 38.2194C29.1875 37.4416 27.1094 35.3396 27.1094 32.9556C27.1094 30.5716 29.1893 28.4683 30.0618 27.6912C30.6555 28.2183 31.1938 28.8047 31.6684 29.4412C31.6809 29.4603 31.6945 29.4787 31.7089 29.4964C32.4052 30.455 33.013 31.6617 33.013 32.9555C33.0126 35.3398 30.9337 37.4419 30.0608 38.2194ZM36.4052 37.7031C35.2524 38.5747 33.7288 38.7762 32.4511 38.749C33.8299 38.0844 35.3818 37.0083 36.1691 35.3427C36.6874 34.2463 36.7966 33.055 36.7095 31.9481C37.4197 31.9595 38.1273 32.0349 38.8239 32.1733C38.7302 33.3388 38.3072 36.2651 36.4052 37.7031Z" fill="#4E580F" fill-opacity="0.8"/>
<path id="Vector_9" d="M27.6539 18.8328C27.5038 18.8324 27.3586 18.886 27.2448 18.9838C27.1309 19.0816 27.056 19.217 27.0337 19.3654C27.0114 19.5138 27.0432 19.6652 27.1233 19.7922C27.2034 19.919 27.3264 20.0129 27.47 20.0567C27.6136 20.1004 27.768 20.0911 27.9053 20.0304C28.0426 19.9697 28.1535 19.8618 28.2177 19.7262C28.282 19.5906 28.2954 19.4364 28.2554 19.2917C28.2155 19.1471 28.1248 19.0216 28 18.9382C27.8976 18.8697 27.7772 18.833 27.6539 18.8328Z" fill="#4E580F" fill-opacity="0.8"/>
<path id="Vector_10" d="M26.6133 21.018C26.4754 20.9261 26.3066 20.8929 26.1441 20.9254C25.9817 20.9579 25.8388 21.0535 25.7469 21.1914L23.8031 24.1059C23.7112 24.2439 23.6777 24.4128 23.7102 24.5754C23.7428 24.7379 23.8386 24.881 23.9766 24.9729C24.1146 25.0649 24.2835 25.0983 24.4461 25.0658C24.6087 25.0332 24.7518 24.9375 24.8437 24.7995L26.7867 21.8843C26.8323 21.816 26.8639 21.7395 26.8798 21.659C26.8958 21.5785 26.8957 21.4957 26.8796 21.4152C26.8635 21.3348 26.8317 21.2582 26.786 21.1901C26.7403 21.1219 26.6816 21.0635 26.6133 21.018Z" fill="#4E580F" fill-opacity="0.8"/>
<path id="Vector_11" d="M13.125 30.6248C13.4702 30.6248 13.75 30.345 13.75 29.9999C13.75 29.6548 13.4702 29.375 13.125 29.375C12.7798 29.375 12.5 29.6548 12.5 29.9999C12.5 30.345 12.7798 30.6248 13.125 30.6248Z" fill="#4E580F" fill-opacity="0.8"/>
<path id="Vector_12" d="M15.625 30.6248C15.9702 30.6248 16.25 30.345 16.25 29.9999C16.25 29.6548 15.9702 29.375 15.625 29.375C15.2798 29.375 15 29.6548 15 29.9999C15 30.345 15.2798 30.6248 15.625 30.6248Z" fill="#4E580F" fill-opacity="0.8"/>
<path id="Vector_13" d="M18.125 30.6248C18.4702 30.6248 18.75 30.345 18.75 29.9999C18.75 29.6548 18.4702 29.375 18.125 29.375C17.7798 29.375 17.5 29.6548 17.5 29.9999C17.5 30.345 17.7798 30.6248 18.125 30.6248Z" fill="#4E580F" fill-opacity="0.8"/>
</g>
</g>
</g>
</g>
<defs>
<clipPath id="clip0_63_146">
<rect width="40" height="40" fill="white"/>
</clipPath>
</defs>
</svg>
