<svg width="44" height="44" viewBox="0 0 44 44" fill="none" xmlns="http://www.w3.org/2000/svg">
<path d="M21.9843 0C9.83012 0 0 9.9 0 22.1257C0 33.1571 8.03997 42.3343 18.561 44V28.5371H12.9707V22.1257H18.561V17.2543C18.561 11.6914 21.8587 8.64286 26.8522 8.64286C29.2705 8.64286 31.783 9.08286 31.783 9.08286V14.52H29.0193C26.2869 14.52 25.439 16.2171 25.439 17.9771V22.1257H31.5318L30.5582 28.5371H25.439V44C35.96 42.3343 44 33.1886 44 22.1257C44 9.9 34.1699 0 22.0157 0H21.9843Z" fill="#4E580F"/>
</svg>
