<svg width="192" height="35" viewBox="0 0 192 35" fill="none" xmlns="http://www.w3.org/2000/svg">
<path d="M43.548 16V4.21H47.112C47.988 4.21 48.762 4.324 49.434 4.552C50.106 4.768 50.634 5.14 51.018 5.668C51.414 6.184 51.612 6.886 51.612 7.774C51.612 8.626 51.42 9.328 51.036 9.88C50.652 10.432 50.124 10.846 49.452 11.122C48.792 11.386 48.036 11.518 47.184 11.518H45.384V16H43.548ZM45.384 10.042H47.004C47.952 10.042 48.654 9.856 49.11 9.484C49.566 9.112 49.794 8.542 49.794 7.774C49.794 6.982 49.554 6.436 49.074 6.136C48.594 5.836 47.88 5.686 46.932 5.686H45.384V10.042ZM53.9015 16V4.21H55.7375V14.452H60.7415V16H53.9015ZM62.8136 16V4.21H69.7796V5.758H64.6496V9.07H68.9876V10.618H64.6496V14.452H69.9596V16H62.8136ZM70.8633 16L74.7693 4.21H76.8933L80.7993 16H78.8553L76.9473 9.592C76.7433 8.944 76.5513 8.296 76.3713 7.648C76.1913 6.988 76.0113 6.328 75.8313 5.668H75.7593C75.5913 6.328 75.4113 6.988 75.2193 7.648C75.0393 8.296 74.8533 8.944 74.6613 9.592L72.7353 16H70.8633ZM73.0593 12.634V11.194H78.5493V12.634H73.0593ZM85.7089 16.216C84.9049 16.216 84.1429 16.06 83.4229 15.748C82.7029 15.436 82.0669 15.01 81.5149 14.47L82.5949 13.228C83.0149 13.648 83.5009 13.984 84.0529 14.236C84.6049 14.488 85.1689 14.614 85.7449 14.614C86.4649 14.614 87.0169 14.464 87.4009 14.164C87.7849 13.852 87.9769 13.438 87.9769 12.922C87.9769 12.562 87.8929 12.274 87.7249 12.058C87.5689 11.842 87.3469 11.656 87.0589 11.5C86.7829 11.344 86.4589 11.188 86.0869 11.032L84.4489 10.312C84.0649 10.156 83.6869 9.946 83.3149 9.682C82.9549 9.418 82.6549 9.088 82.4149 8.692C82.1749 8.296 82.0549 7.81 82.0549 7.234C82.0549 6.61 82.2229 6.058 82.5589 5.578C82.8949 5.086 83.3509 4.702 83.9269 4.426C84.5029 4.138 85.1629 3.994 85.9069 3.994C86.6029 3.994 87.2569 4.132 87.8689 4.408C88.4929 4.672 89.0269 5.026 89.4709 5.47L88.5169 6.64C88.1569 6.316 87.7609 6.064 87.3289 5.884C86.8969 5.692 86.4229 5.596 85.9069 5.596C85.3069 5.596 84.8209 5.734 84.4489 6.01C84.0889 6.274 83.9089 6.646 83.9089 7.126C83.9089 7.462 83.9989 7.738 84.1789 7.954C84.3589 8.17 84.5989 8.35 84.8989 8.494C85.1989 8.638 85.5049 8.782 85.8169 8.926L87.4369 9.61C87.9049 9.802 88.3189 10.036 88.6789 10.312C89.0389 10.588 89.3209 10.924 89.5249 11.32C89.7409 11.716 89.8489 12.202 89.8489 12.778C89.8489 13.414 89.6809 13.996 89.3449 14.524C89.0209 15.04 88.5469 15.454 87.9229 15.766C87.2989 16.066 86.5609 16.216 85.7089 16.216ZM96.3836 16.216C95.7356 16.216 95.1416 16.12 94.6016 15.928C94.0736 15.736 93.6116 15.436 93.2156 15.028C92.8316 14.62 92.5316 14.08 92.3156 13.408C92.1116 12.736 92.0096 11.92 92.0096 10.96V4.21H93.8456V11.068C93.8456 11.968 93.9536 12.676 94.1696 13.192C94.3856 13.708 94.6856 14.074 95.0696 14.29C95.4536 14.506 95.8916 14.614 96.3836 14.614C96.8756 14.614 97.3196 14.506 97.7156 14.29C98.1116 14.074 98.4176 13.708 98.6336 13.192C98.8616 12.676 98.9756 11.968 98.9756 11.068V4.21H100.74V10.96C100.74 11.92 100.632 12.736 100.416 13.408C100.212 14.08 99.9176 14.62 99.5336 15.028C99.1496 15.436 98.6876 15.736 98.1476 15.928C97.6196 16.12 97.0316 16.216 96.3836 16.216ZM103.788 16V4.21H107.64C108.444 4.21 109.164 4.318 109.8 4.534C110.448 4.738 110.958 5.092 111.33 5.596C111.702 6.1 111.888 6.778 111.888 7.63C111.888 8.446 111.702 9.118 111.33 9.646C110.958 10.174 110.448 10.57 109.8 10.834C109.164 11.098 108.444 11.23 107.64 11.23H105.624V16H103.788ZM110.232 16L107.28 10.726L108.648 9.7L112.302 16H110.232ZM105.624 9.754H107.424C108.288 9.754 108.942 9.58 109.386 9.232C109.842 8.872 110.07 8.338 110.07 7.63C110.07 6.91 109.842 6.406 109.386 6.118C108.942 5.83 108.288 5.686 107.424 5.686H105.624V9.754ZM114.265 16V4.21H121.231V5.758H116.101V9.07H120.439V10.618H116.101V14.452H121.411V16H114.265ZM130.832 16.216C130.028 16.216 129.266 16.06 128.546 15.748C127.826 15.436 127.19 15.01 126.638 14.47L127.718 13.228C128.138 13.648 128.624 13.984 129.176 14.236C129.728 14.488 130.292 14.614 130.868 14.614C131.588 14.614 132.14 14.464 132.524 14.164C132.908 13.852 133.1 13.438 133.1 12.922C133.1 12.562 133.016 12.274 132.848 12.058C132.692 11.842 132.47 11.656 132.182 11.5C131.906 11.344 131.582 11.188 131.21 11.032L129.572 10.312C129.188 10.156 128.81 9.946 128.438 9.682C128.078 9.418 127.778 9.088 127.538 8.692C127.298 8.296 127.178 7.81 127.178 7.234C127.178 6.61 127.346 6.058 127.682 5.578C128.018 5.086 128.474 4.702 129.05 4.426C129.626 4.138 130.286 3.994 131.03 3.994C131.726 3.994 132.38 4.132 132.992 4.408C133.616 4.672 134.15 5.026 134.594 5.47L133.64 6.64C133.28 6.316 132.884 6.064 132.452 5.884C132.02 5.692 131.546 5.596 131.03 5.596C130.43 5.596 129.944 5.734 129.572 6.01C129.212 6.274 129.032 6.646 129.032 7.126C129.032 7.462 129.122 7.738 129.302 7.954C129.482 8.17 129.722 8.35 130.022 8.494C130.322 8.638 130.628 8.782 130.94 8.926L132.56 9.61C133.028 9.802 133.442 10.036 133.802 10.312C134.162 10.588 134.444 10.924 134.648 11.32C134.864 11.716 134.972 12.202 134.972 12.778C134.972 13.414 134.804 13.996 134.468 14.524C134.144 15.04 133.67 15.454 133.046 15.766C132.422 16.066 131.684 16.216 130.832 16.216ZM137.187 16V4.21H140.751C141.627 4.21 142.401 4.324 143.073 4.552C143.745 4.768 144.273 5.14 144.657 5.668C145.053 6.184 145.251 6.886 145.251 7.774C145.251 8.626 145.059 9.328 144.675 9.88C144.291 10.432 143.763 10.846 143.091 11.122C142.431 11.386 141.675 11.518 140.823 11.518H139.023V16H137.187ZM139.023 10.042H140.643C141.591 10.042 142.293 9.856 142.749 9.484C143.205 9.112 143.433 8.542 143.433 7.774C143.433 6.982 143.193 6.436 142.713 6.136C142.233 5.836 141.519 5.686 140.571 5.686H139.023V10.042ZM145.992 16L149.898 4.21H152.022L155.928 16H153.984L152.076 9.592C151.872 8.944 151.68 8.296 151.5 7.648C151.32 6.988 151.14 6.328 150.96 5.668H150.888C150.72 6.328 150.54 6.988 150.348 7.648C150.168 8.296 149.982 8.944 149.79 9.592L147.864 16H145.992ZM148.188 12.634V11.194H153.678V12.634H148.188Z" fill="black"/>
<path d="M43.02 34.496V26.18H43.74L43.812 26.876H43.848C44.112 26.644 44.404 26.448 44.724 26.288C45.052 26.12 45.388 26.036 45.732 26.036C46.236 26.036 46.66 26.16 47.004 26.408C47.348 26.648 47.604 26.992 47.772 27.44C47.948 27.88 48.036 28.4 48.036 29C48.036 29.664 47.916 30.232 47.676 30.704C47.444 31.168 47.136 31.524 46.752 31.772C46.368 32.02 45.956 32.144 45.516 32.144C45.252 32.144 44.98 32.084 44.7 31.964C44.42 31.844 44.14 31.676 43.86 31.46L43.884 32.492V34.496H43.02ZM45.372 31.4C45.716 31.4 46.02 31.304 46.284 31.112C46.548 30.92 46.756 30.644 46.908 30.284C47.06 29.924 47.136 29.5 47.136 29.012C47.136 28.572 47.08 28.184 46.968 27.848C46.864 27.512 46.692 27.252 46.452 27.068C46.22 26.876 45.912 26.78 45.528 26.78C45.272 26.78 45.008 26.852 44.736 26.996C44.472 27.132 44.188 27.34 43.884 27.62V30.764C44.172 30.996 44.444 31.16 44.7 31.256C44.956 31.352 45.18 31.4 45.372 31.4ZM49.6411 32V26.18H50.3611L50.4331 27.248H50.4691C50.6691 26.88 50.9091 26.588 51.1891 26.372C51.4771 26.148 51.7891 26.036 52.1251 26.036C52.2451 26.036 52.3531 26.048 52.4491 26.072C52.5451 26.088 52.6371 26.116 52.7251 26.156L52.5571 26.924C52.4611 26.892 52.3731 26.868 52.2931 26.852C52.2211 26.836 52.1251 26.828 52.0051 26.828C51.7571 26.828 51.4971 26.932 51.2251 27.14C50.9531 27.34 50.7131 27.696 50.5051 28.208V32H49.6411ZM55.9392 32.144C55.4672 32.144 55.0272 32.024 54.6192 31.784C54.2112 31.544 53.8832 31.2 53.6352 30.752C53.3872 30.296 53.2632 29.744 53.2632 29.096C53.2632 28.448 53.3872 27.896 53.6352 27.44C53.8832 26.984 54.2112 26.636 54.6192 26.396C55.0272 26.156 55.4672 26.036 55.9392 26.036C56.4112 26.036 56.8472 26.156 57.2472 26.396C57.6552 26.636 57.9832 26.984 58.2312 27.44C58.4872 27.896 58.6152 28.448 58.6152 29.096C58.6152 29.744 58.4872 30.296 58.2312 30.752C57.9832 31.2 57.6552 31.544 57.2472 31.784C56.8472 32.024 56.4112 32.144 55.9392 32.144ZM55.9392 31.412C56.2912 31.412 56.5992 31.316 56.8632 31.124C57.1352 30.932 57.3432 30.664 57.4872 30.32C57.6392 29.968 57.7152 29.56 57.7152 29.096C57.7152 28.64 57.6392 28.236 57.4872 27.884C57.3432 27.532 57.1352 27.26 56.8632 27.068C56.5992 26.868 56.2912 26.768 55.9392 26.768C55.5952 26.768 55.2872 26.868 55.0152 27.068C54.7512 27.26 54.5432 27.532 54.3912 27.884C54.2472 28.236 54.1752 28.64 54.1752 29.096C54.1752 29.56 54.2472 29.968 54.3912 30.32C54.5432 30.664 54.7512 30.932 55.0152 31.124C55.2872 31.316 55.5952 31.412 55.9392 31.412ZM60.3317 32V25.172C60.3317 24.78 60.3917 24.444 60.5117 24.164C60.6317 23.884 60.8117 23.668 61.0517 23.516C61.2997 23.364 61.6077 23.288 61.9757 23.288C62.1437 23.288 62.3077 23.308 62.4677 23.348C62.6357 23.38 62.7837 23.424 62.9117 23.48L62.7197 24.152C62.6077 24.096 62.4957 24.06 62.3837 24.044C62.2717 24.02 62.1597 24.008 62.0477 24.008C61.7677 24.008 61.5557 24.108 61.4117 24.308C61.2757 24.508 61.2077 24.8 61.2077 25.184V32H60.3317ZM59.5397 26.9V26.24L60.3677 26.18H62.4677V26.9H59.5397ZM65.9138 32.144C65.4098 32.144 64.9458 32.024 64.5218 31.784C64.1058 31.536 63.7738 31.188 63.5258 30.74C63.2778 30.284 63.1538 29.736 63.1538 29.096C63.1538 28.464 63.2778 27.92 63.5258 27.464C63.7738 27.008 64.0938 26.656 64.4858 26.408C64.8858 26.16 65.3098 26.036 65.7578 26.036C66.2378 26.036 66.6498 26.148 66.9938 26.372C67.3378 26.596 67.5978 26.912 67.7738 27.32C67.9578 27.72 68.0498 28.2 68.0498 28.76C68.0498 28.856 68.0458 28.952 68.0378 29.048C68.0378 29.136 68.0298 29.216 68.0138 29.288H63.8378L63.8258 28.652H67.2698C67.2698 28.028 67.1378 27.556 66.8738 27.236C66.6098 26.908 66.2418 26.744 65.7698 26.744C65.4818 26.744 65.2018 26.828 64.9298 26.996C64.6578 27.164 64.4338 27.42 64.2578 27.764C64.0818 28.108 63.9938 28.552 63.9938 29.096C63.9938 29.616 64.0858 30.048 64.2698 30.392C64.4538 30.736 64.6978 30.996 65.0018 31.172C65.3138 31.348 65.6538 31.436 66.0218 31.436C66.3178 31.436 66.5818 31.392 66.8138 31.304C67.0538 31.216 67.2818 31.104 67.4978 30.968L67.8218 31.544C67.5738 31.704 67.2938 31.844 66.9818 31.964C66.6778 32.084 66.3218 32.144 65.9138 32.144ZM71.0041 32.144C70.5881 32.144 70.1921 32.068 69.8161 31.916C69.4401 31.756 69.1161 31.564 68.8441 31.34L69.2881 30.752C69.5441 30.952 69.8081 31.12 70.0801 31.256C70.3521 31.392 70.6721 31.46 71.0401 31.46C71.4401 31.46 71.7401 31.364 71.9401 31.172C72.1401 30.98 72.2401 30.752 72.2401 30.488C72.2401 30.28 72.1721 30.108 72.0361 29.972C71.9001 29.828 71.7281 29.708 71.5201 29.612C71.3121 29.508 71.1001 29.416 70.8841 29.336C70.6121 29.24 70.3401 29.124 70.0681 28.988C69.7961 28.852 69.5681 28.68 69.3841 28.472C69.2081 28.264 69.1201 27.996 69.1201 27.668C69.1201 27.212 69.2921 26.828 69.6361 26.516C69.9881 26.196 70.4761 26.036 71.1001 26.036C71.4521 26.036 71.7801 26.1 72.0841 26.228C72.3881 26.356 72.6481 26.508 72.8641 26.684L72.4441 27.248C72.2441 27.104 72.0361 26.984 71.8201 26.888C71.6121 26.784 71.3721 26.732 71.1001 26.732C70.7161 26.732 70.4321 26.824 70.2481 27.008C70.0641 27.184 69.9721 27.388 69.9721 27.62C69.9721 27.812 70.0321 27.972 70.1521 28.1C70.2801 28.22 70.4441 28.324 70.6441 28.412C70.8441 28.5 71.0561 28.588 71.2801 28.676C71.5681 28.78 71.8481 28.9 72.1201 29.036C72.4001 29.164 72.6321 29.336 72.8161 29.552C73.0001 29.768 73.0921 30.064 73.0921 30.44C73.0921 30.744 73.0121 31.028 72.8521 31.292C72.6921 31.548 72.4561 31.756 72.1441 31.916C71.8321 32.068 71.4521 32.144 71.0041 32.144ZM75.9963 32.144C75.5803 32.144 75.1843 32.068 74.8083 31.916C74.4323 31.756 74.1083 31.564 73.8363 31.34L74.2803 30.752C74.5363 30.952 74.8003 31.12 75.0723 31.256C75.3443 31.392 75.6643 31.46 76.0323 31.46C76.4323 31.46 76.7323 31.364 76.9323 31.172C77.1323 30.98 77.2323 30.752 77.2323 30.488C77.2323 30.28 77.1643 30.108 77.0283 29.972C76.8923 29.828 76.7203 29.708 76.5123 29.612C76.3043 29.508 76.0923 29.416 75.8763 29.336C75.6043 29.24 75.3323 29.124 75.0603 28.988C74.7883 28.852 74.5603 28.68 74.3763 28.472C74.2003 28.264 74.1123 27.996 74.1123 27.668C74.1123 27.212 74.2843 26.828 74.6283 26.516C74.9803 26.196 75.4683 26.036 76.0923 26.036C76.4443 26.036 76.7723 26.1 77.0763 26.228C77.3803 26.356 77.6403 26.508 77.8563 26.684L77.4363 27.248C77.2363 27.104 77.0283 26.984 76.8123 26.888C76.6043 26.784 76.3643 26.732 76.0923 26.732C75.7083 26.732 75.4243 26.824 75.2403 27.008C75.0563 27.184 74.9643 27.388 74.9643 27.62C74.9643 27.812 75.0243 27.972 75.1443 28.1C75.2723 28.22 75.4363 28.324 75.6363 28.412C75.8363 28.5 76.0483 28.588 76.2723 28.676C76.5603 28.78 76.8403 28.9 77.1123 29.036C77.3923 29.164 77.6243 29.336 77.8083 29.552C77.9923 29.768 78.0843 30.064 78.0843 30.44C78.0843 30.744 78.0043 31.028 77.8443 31.292C77.6843 31.548 77.4483 31.756 77.1363 31.916C76.8243 32.068 76.4443 32.144 75.9963 32.144ZM79.5005 32V26.18H80.3645V32H79.5005ZM79.9445 24.932C79.7765 24.932 79.6325 24.876 79.5125 24.764C79.4005 24.652 79.3445 24.504 79.3445 24.32C79.3445 24.144 79.4005 24.004 79.5125 23.9C79.6325 23.788 79.7765 23.732 79.9445 23.732C80.1205 23.732 80.2645 23.788 80.3765 23.9C80.4885 24.004 80.5445 24.144 80.5445 24.32C80.5445 24.504 80.4885 24.652 80.3765 24.764C80.2645 24.876 80.1205 24.932 79.9445 24.932ZM84.6267 32.144C84.1547 32.144 83.7147 32.024 83.3067 31.784C82.8987 31.544 82.5707 31.2 82.3227 30.752C82.0747 30.296 81.9507 29.744 81.9507 29.096C81.9507 28.448 82.0747 27.896 82.3227 27.44C82.5707 26.984 82.8987 26.636 83.3067 26.396C83.7147 26.156 84.1547 26.036 84.6267 26.036C85.0987 26.036 85.5347 26.156 85.9347 26.396C86.3427 26.636 86.6707 26.984 86.9187 27.44C87.1747 27.896 87.3027 28.448 87.3027 29.096C87.3027 29.744 87.1747 30.296 86.9187 30.752C86.6707 31.2 86.3427 31.544 85.9347 31.784C85.5347 32.024 85.0987 32.144 84.6267 32.144ZM84.6267 31.412C84.9787 31.412 85.2867 31.316 85.5507 31.124C85.8227 30.932 86.0307 30.664 86.1747 30.32C86.3267 29.968 86.4027 29.56 86.4027 29.096C86.4027 28.64 86.3267 28.236 86.1747 27.884C86.0307 27.532 85.8227 27.26 85.5507 27.068C85.2867 26.868 84.9787 26.768 84.6267 26.768C84.2827 26.768 83.9747 26.868 83.7027 27.068C83.4387 27.26 83.2307 27.532 83.0787 27.884C82.9347 28.236 82.8627 28.64 82.8627 29.096C82.8627 29.56 82.9347 29.968 83.0787 30.32C83.2307 30.664 83.4387 30.932 83.7027 31.124C83.9747 31.316 84.2827 31.412 84.6267 31.412ZM88.8872 32V26.18H89.6072L89.6792 27.044H89.7152C89.9952 26.756 90.2912 26.516 90.6032 26.324C90.9232 26.132 91.2792 26.036 91.6712 26.036C92.2872 26.036 92.7352 26.228 93.0152 26.612C93.3032 26.996 93.4472 27.56 93.4472 28.304V32H92.5712V28.412C92.5712 27.852 92.4792 27.444 92.2952 27.188C92.1192 26.932 91.8272 26.804 91.4192 26.804C91.1152 26.804 90.8392 26.884 90.5912 27.044C90.3432 27.196 90.0632 27.428 89.7512 27.74V32H88.8872ZM96.7228 32.144C96.4028 32.144 96.1148 32.08 95.8588 31.952C95.6028 31.824 95.3988 31.64 95.2468 31.4C95.0948 31.152 95.0188 30.852 95.0188 30.5C95.0188 29.868 95.3068 29.384 95.8828 29.048C96.4668 28.704 97.3868 28.464 98.6428 28.328C98.6428 28.064 98.6068 27.812 98.5348 27.572C98.4708 27.332 98.3468 27.14 98.1628 26.996C97.9868 26.844 97.7308 26.768 97.3948 26.768C97.0428 26.768 96.7148 26.836 96.4108 26.972C96.1148 27.108 95.8548 27.252 95.6308 27.404L95.2828 26.804C95.4508 26.692 95.6508 26.576 95.8828 26.456C96.1148 26.336 96.3708 26.236 96.6508 26.156C96.9308 26.076 97.2268 26.036 97.5388 26.036C98.0108 26.036 98.3908 26.136 98.6788 26.336C98.9668 26.536 99.1748 26.812 99.3028 27.164C99.4388 27.516 99.5068 27.928 99.5068 28.4V32H98.7868L98.7148 31.292H98.6788C98.3988 31.524 98.0948 31.724 97.7668 31.892C97.4388 32.06 97.0908 32.144 96.7228 32.144ZM96.9508 31.436C97.2548 31.436 97.5348 31.368 97.7908 31.232C98.0548 31.088 98.3388 30.884 98.6428 30.62V28.916C97.9548 28.996 97.4108 29.108 97.0108 29.252C96.6108 29.388 96.3228 29.556 96.1468 29.756C95.9708 29.956 95.8828 30.188 95.8828 30.452C95.8828 30.796 95.9868 31.048 96.1948 31.208C96.4108 31.36 96.6628 31.436 96.9508 31.436ZM102.363 32.144C102.147 32.144 101.967 32.096 101.823 32C101.679 31.912 101.575 31.78 101.511 31.604C101.447 31.42 101.415 31.196 101.415 30.932V23.432H102.279V31.004C102.279 31.148 102.307 31.252 102.363 31.316C102.419 31.38 102.483 31.412 102.555 31.412C102.579 31.412 102.607 31.412 102.639 31.412C102.671 31.404 102.715 31.396 102.771 31.388L102.891 32.06C102.827 32.076 102.751 32.092 102.663 32.108C102.583 32.132 102.483 32.144 102.363 32.144ZM106.817 32V26.18H107.537L107.609 27.044H107.645C107.901 26.764 108.181 26.528 108.485 26.336C108.797 26.136 109.121 26.036 109.457 26.036C109.913 26.036 110.265 26.14 110.513 26.348C110.769 26.548 110.953 26.82 111.065 27.164C111.377 26.828 111.689 26.556 112.001 26.348C112.321 26.14 112.653 26.036 112.997 26.036C113.597 26.036 114.041 26.228 114.329 26.612C114.617 26.996 114.761 27.56 114.761 28.304V32H113.885V28.412C113.885 27.852 113.793 27.444 113.609 27.188C113.425 26.932 113.137 26.804 112.745 26.804C112.513 26.804 112.269 26.884 112.013 27.044C111.765 27.196 111.501 27.428 111.221 27.74V32H110.345V28.412C110.345 27.852 110.253 27.444 110.069 27.188C109.893 26.932 109.609 26.804 109.217 26.804C108.753 26.804 108.241 27.116 107.681 27.74V32H106.817ZM118.039 32.144C117.719 32.144 117.431 32.08 117.175 31.952C116.919 31.824 116.715 31.64 116.563 31.4C116.411 31.152 116.335 30.852 116.335 30.5C116.335 29.868 116.623 29.384 117.199 29.048C117.783 28.704 118.703 28.464 119.959 28.328C119.959 28.064 119.923 27.812 119.851 27.572C119.787 27.332 119.663 27.14 119.479 26.996C119.303 26.844 119.047 26.768 118.711 26.768C118.359 26.768 118.031 26.836 117.727 26.972C117.431 27.108 117.171 27.252 116.947 27.404L116.599 26.804C116.767 26.692 116.967 26.576 117.199 26.456C117.431 26.336 117.687 26.236 117.967 26.156C118.247 26.076 118.543 26.036 118.855 26.036C119.327 26.036 119.707 26.136 119.995 26.336C120.283 26.536 120.491 26.812 120.619 27.164C120.755 27.516 120.823 27.928 120.823 28.4V32H120.103L120.031 31.292H119.995C119.715 31.524 119.411 31.724 119.083 31.892C118.755 32.06 118.407 32.144 118.039 32.144ZM118.267 31.436C118.571 31.436 118.851 31.368 119.107 31.232C119.371 31.088 119.655 30.884 119.959 30.62V28.916C119.271 28.996 118.727 29.108 118.327 29.252C117.927 29.388 117.639 29.556 117.463 29.756C117.287 29.956 117.199 30.188 117.199 30.452C117.199 30.796 117.303 31.048 117.511 31.208C117.727 31.36 117.979 31.436 118.267 31.436ZM124.219 32.144C123.803 32.144 123.407 32.068 123.031 31.916C122.655 31.756 122.331 31.564 122.059 31.34L122.503 30.752C122.759 30.952 123.023 31.12 123.295 31.256C123.567 31.392 123.887 31.46 124.255 31.46C124.655 31.46 124.955 31.364 125.155 31.172C125.355 30.98 125.455 30.752 125.455 30.488C125.455 30.28 125.387 30.108 125.251 29.972C125.115 29.828 124.943 29.708 124.735 29.612C124.527 29.508 124.315 29.416 124.099 29.336C123.827 29.24 123.555 29.124 123.283 28.988C123.011 28.852 122.783 28.68 122.599 28.472C122.423 28.264 122.335 27.996 122.335 27.668C122.335 27.212 122.507 26.828 122.851 26.516C123.203 26.196 123.691 26.036 124.315 26.036C124.667 26.036 124.995 26.1 125.299 26.228C125.603 26.356 125.863 26.508 126.079 26.684L125.659 27.248C125.459 27.104 125.251 26.984 125.035 26.888C124.827 26.784 124.587 26.732 124.315 26.732C123.931 26.732 123.647 26.824 123.463 27.008C123.279 27.184 123.187 27.388 123.187 27.62C123.187 27.812 123.247 27.972 123.367 28.1C123.495 28.22 123.659 28.324 123.859 28.412C124.059 28.5 124.271 28.588 124.495 28.676C124.783 28.78 125.063 28.9 125.335 29.036C125.615 29.164 125.847 29.336 126.031 29.552C126.215 29.768 126.307 30.064 126.307 30.44C126.307 30.744 126.227 31.028 126.067 31.292C125.907 31.548 125.671 31.756 125.359 31.916C125.047 32.068 124.667 32.144 124.219 32.144ZM129.211 32.144C128.795 32.144 128.399 32.068 128.023 31.916C127.647 31.756 127.323 31.564 127.051 31.34L127.495 30.752C127.751 30.952 128.015 31.12 128.287 31.256C128.559 31.392 128.879 31.46 129.247 31.46C129.647 31.46 129.947 31.364 130.147 31.172C130.347 30.98 130.447 30.752 130.447 30.488C130.447 30.28 130.379 30.108 130.243 29.972C130.107 29.828 129.935 29.708 129.727 29.612C129.519 29.508 129.307 29.416 129.091 29.336C128.819 29.24 128.547 29.124 128.275 28.988C128.003 28.852 127.775 28.68 127.591 28.472C127.415 28.264 127.327 27.996 127.327 27.668C127.327 27.212 127.499 26.828 127.843 26.516C128.195 26.196 128.683 26.036 129.307 26.036C129.659 26.036 129.987 26.1 130.291 26.228C130.595 26.356 130.855 26.508 131.071 26.684L130.651 27.248C130.451 27.104 130.243 26.984 130.027 26.888C129.819 26.784 129.579 26.732 129.307 26.732C128.923 26.732 128.639 26.824 128.455 27.008C128.271 27.184 128.179 27.388 128.179 27.62C128.179 27.812 128.239 27.972 128.359 28.1C128.487 28.22 128.651 28.324 128.851 28.412C129.051 28.5 129.263 28.588 129.487 28.676C129.775 28.78 130.055 28.9 130.327 29.036C130.607 29.164 130.839 29.336 131.023 29.552C131.207 29.768 131.299 30.064 131.299 30.44C131.299 30.744 131.219 31.028 131.059 31.292C130.899 31.548 130.663 31.756 130.351 31.916C130.039 32.068 129.659 32.144 129.211 32.144ZM134.035 32.144C133.715 32.144 133.427 32.08 133.171 31.952C132.915 31.824 132.711 31.64 132.559 31.4C132.407 31.152 132.331 30.852 132.331 30.5C132.331 29.868 132.619 29.384 133.195 29.048C133.779 28.704 134.699 28.464 135.955 28.328C135.955 28.064 135.919 27.812 135.847 27.572C135.783 27.332 135.659 27.14 135.475 26.996C135.299 26.844 135.043 26.768 134.707 26.768C134.355 26.768 134.027 26.836 133.723 26.972C133.427 27.108 133.167 27.252 132.943 27.404L132.595 26.804C132.763 26.692 132.963 26.576 133.195 26.456C133.427 26.336 133.683 26.236 133.963 26.156C134.243 26.076 134.539 26.036 134.851 26.036C135.323 26.036 135.703 26.136 135.991 26.336C136.279 26.536 136.487 26.812 136.615 27.164C136.751 27.516 136.819 27.928 136.819 28.4V32H136.099L136.027 31.292H135.991C135.711 31.524 135.407 31.724 135.079 31.892C134.751 32.06 134.403 32.144 134.035 32.144ZM134.263 31.436C134.567 31.436 134.847 31.368 135.103 31.232C135.367 31.088 135.651 30.884 135.955 30.62V28.916C135.267 28.996 134.723 29.108 134.323 29.252C133.923 29.388 133.635 29.556 133.459 29.756C133.283 29.956 133.195 30.188 133.195 30.452C133.195 30.796 133.299 31.048 133.507 31.208C133.723 31.36 133.975 31.436 134.263 31.436ZM140.671 34.712C140.191 34.712 139.771 34.648 139.411 34.52C139.051 34.392 138.771 34.212 138.571 33.98C138.371 33.748 138.271 33.468 138.271 33.14C138.271 32.884 138.347 32.64 138.499 32.408C138.651 32.176 138.859 31.972 139.123 31.796V31.748C138.979 31.652 138.855 31.528 138.751 31.376C138.655 31.216 138.607 31.024 138.607 30.8C138.607 30.552 138.675 30.336 138.811 30.152C138.955 29.968 139.099 29.824 139.243 29.72V29.672C139.059 29.52 138.887 29.308 138.727 29.036C138.575 28.764 138.499 28.456 138.499 28.112C138.499 27.688 138.595 27.324 138.787 27.02C138.987 26.708 139.247 26.468 139.567 26.3C139.895 26.124 140.255 26.036 140.647 26.036C140.807 26.036 140.955 26.052 141.091 26.084C141.235 26.108 141.355 26.14 141.451 26.18H143.467V26.864H142.231C142.383 27.008 142.507 27.188 142.603 27.404C142.699 27.62 142.747 27.86 142.747 28.124C142.747 28.54 142.651 28.9 142.459 29.204C142.275 29.508 142.023 29.744 141.703 29.912C141.391 30.072 141.039 30.152 140.647 30.152C140.503 30.152 140.351 30.136 140.191 30.104C140.039 30.064 139.895 30.012 139.759 29.948C139.647 30.036 139.551 30.136 139.471 30.248C139.399 30.36 139.363 30.5 139.363 30.668C139.363 30.86 139.435 31.02 139.579 31.148C139.731 31.268 140.003 31.328 140.395 31.328H141.559C142.231 31.328 142.731 31.44 143.059 31.664C143.395 31.88 143.563 32.228 143.563 32.708C143.563 33.06 143.443 33.388 143.203 33.692C142.971 33.996 142.639 34.24 142.207 34.424C141.775 34.616 141.263 34.712 140.671 34.712ZM140.791 34.088C141.175 34.088 141.507 34.028 141.787 33.908C142.075 33.788 142.299 33.632 142.459 33.44C142.619 33.248 142.699 33.044 142.699 32.828C142.699 32.548 142.595 32.352 142.387 32.24C142.187 32.128 141.887 32.072 141.487 32.072H140.419C140.331 32.072 140.219 32.064 140.083 32.048C139.955 32.032 139.819 32.008 139.675 31.976C139.451 32.136 139.287 32.304 139.183 32.48C139.087 32.664 139.039 32.844 139.039 33.02C139.039 33.348 139.195 33.608 139.507 33.8C139.819 33.992 140.247 34.088 140.791 34.088ZM140.647 29.552C140.879 29.552 141.091 29.492 141.283 29.372C141.483 29.252 141.643 29.084 141.763 28.868C141.883 28.652 141.943 28.4 141.943 28.112C141.943 27.816 141.883 27.564 141.763 27.356C141.651 27.14 141.495 26.976 141.295 26.864C141.103 26.744 140.887 26.684 140.647 26.684C140.287 26.684 139.979 26.812 139.723 27.068C139.467 27.316 139.339 27.664 139.339 28.112C139.339 28.4 139.399 28.652 139.519 28.868C139.639 29.084 139.799 29.252 139.999 29.372C140.199 29.492 140.415 29.552 140.647 29.552ZM147.031 32.144C146.527 32.144 146.063 32.024 145.639 31.784C145.223 31.536 144.891 31.188 144.643 30.74C144.395 30.284 144.271 29.736 144.271 29.096C144.271 28.464 144.395 27.92 144.643 27.464C144.891 27.008 145.211 26.656 145.603 26.408C146.003 26.16 146.427 26.036 146.875 26.036C147.355 26.036 147.767 26.148 148.111 26.372C148.455 26.596 148.715 26.912 148.891 27.32C149.075 27.72 149.167 28.2 149.167 28.76C149.167 28.856 149.163 28.952 149.155 29.048C149.155 29.136 149.147 29.216 149.131 29.288H144.955L144.943 28.652H148.387C148.387 28.028 148.255 27.556 147.991 27.236C147.727 26.908 147.359 26.744 146.887 26.744C146.599 26.744 146.319 26.828 146.047 26.996C145.775 27.164 145.551 27.42 145.375 27.764C145.199 28.108 145.111 28.552 145.111 29.096C145.111 29.616 145.203 30.048 145.387 30.392C145.571 30.736 145.815 30.996 146.119 31.172C146.431 31.348 146.771 31.436 147.139 31.436C147.435 31.436 147.699 31.392 147.931 31.304C148.171 31.216 148.399 31.104 148.615 30.968L148.939 31.544C148.691 31.704 148.411 31.844 148.099 31.964C147.795 32.084 147.439 32.144 147.031 32.144ZM152.121 32.144C151.705 32.144 151.309 32.068 150.933 31.916C150.557 31.756 150.233 31.564 149.961 31.34L150.405 30.752C150.661 30.952 150.925 31.12 151.197 31.256C151.469 31.392 151.789 31.46 152.157 31.46C152.557 31.46 152.857 31.364 153.057 31.172C153.257 30.98 153.357 30.752 153.357 30.488C153.357 30.28 153.289 30.108 153.153 29.972C153.017 29.828 152.845 29.708 152.637 29.612C152.429 29.508 152.217 29.416 152.001 29.336C151.729 29.24 151.457 29.124 151.185 28.988C150.913 28.852 150.685 28.68 150.501 28.472C150.325 28.264 150.237 27.996 150.237 27.668C150.237 27.212 150.409 26.828 150.753 26.516C151.105 26.196 151.593 26.036 152.217 26.036C152.569 26.036 152.897 26.1 153.201 26.228C153.505 26.356 153.765 26.508 153.981 26.684L153.561 27.248C153.361 27.104 153.153 26.984 152.937 26.888C152.729 26.784 152.489 26.732 152.217 26.732C151.833 26.732 151.549 26.824 151.365 27.008C151.181 27.184 151.089 27.388 151.089 27.62C151.089 27.812 151.149 27.972 151.269 28.1C151.397 28.22 151.561 28.324 151.761 28.412C151.961 28.5 152.173 28.588 152.397 28.676C152.685 28.78 152.965 28.9 153.237 29.036C153.517 29.164 153.749 29.336 153.933 29.552C154.117 29.768 154.209 30.064 154.209 30.44C154.209 30.744 154.129 31.028 153.969 31.292C153.809 31.548 153.573 31.756 153.261 31.916C152.949 32.068 152.569 32.144 152.121 32.144ZM159.78 32.144C159.316 32.144 158.904 32.052 158.544 31.868C158.192 31.684 157.912 31.428 157.704 31.1C157.504 30.772 157.404 30.396 157.404 29.972C157.404 29.588 157.488 29.252 157.656 28.964C157.832 28.668 158.056 28.404 158.328 28.172C158.6 27.94 158.888 27.724 159.192 27.524C159.504 27.324 159.796 27.124 160.068 26.924C160.34 26.724 160.56 26.512 160.728 26.288C160.904 26.056 160.992 25.8 160.992 25.52C160.992 25.28 160.932 25.068 160.812 24.884C160.7 24.7 160.504 24.608 160.224 24.608C159.912 24.608 159.664 24.724 159.48 24.956C159.304 25.18 159.216 25.46 159.216 25.796C159.216 26.172 159.304 26.572 159.48 26.996C159.664 27.412 159.904 27.832 160.2 28.256C160.504 28.68 160.84 29.08 161.208 29.456C161.576 29.832 161.944 30.164 162.312 30.452C162.624 30.692 162.928 30.892 163.224 31.052C163.52 31.212 163.792 31.332 164.04 31.412L163.8 32.144C163.496 32.056 163.176 31.92 162.84 31.736C162.504 31.552 162.156 31.32 161.796 31.04C161.372 30.704 160.96 30.324 160.56 29.9C160.16 29.476 159.8 29.028 159.48 28.556C159.168 28.084 158.916 27.616 158.724 27.152C158.54 26.688 158.448 26.244 158.448 25.82C158.448 25.468 158.52 25.156 158.664 24.884C158.816 24.604 159.024 24.384 159.288 24.224C159.56 24.056 159.872 23.972 160.224 23.972C160.696 23.972 161.06 24.116 161.316 24.404C161.58 24.684 161.712 25.048 161.712 25.496C161.712 25.832 161.628 26.136 161.46 26.408C161.3 26.672 161.088 26.92 160.824 27.152C160.56 27.376 160.28 27.592 159.984 27.8C159.688 28.008 159.408 28.22 159.144 28.436C158.888 28.644 158.676 28.868 158.508 29.108C158.34 29.348 158.256 29.62 158.256 29.924C158.256 30.228 158.328 30.496 158.472 30.728C158.616 30.952 158.808 31.128 159.048 31.256C159.296 31.376 159.572 31.436 159.876 31.436C160.212 31.436 160.536 31.348 160.848 31.172C161.16 30.996 161.444 30.772 161.7 30.5C162.028 30.14 162.308 29.732 162.54 29.276C162.78 28.82 162.972 28.32 163.116 27.776H163.932C163.764 28.36 163.544 28.92 163.272 29.456C163.008 29.992 162.688 30.48 162.312 30.92C161.992 31.28 161.624 31.576 161.208 31.808C160.792 32.032 160.316 32.144 159.78 32.144ZM169.881 32.144C169.369 32.144 168.909 32.024 168.501 31.784C168.093 31.544 167.769 31.2 167.529 30.752C167.289 30.296 167.169 29.744 167.169 29.096C167.169 28.448 167.297 27.896 167.553 27.44C167.817 26.984 168.157 26.636 168.573 26.396C168.989 26.156 169.445 26.036 169.941 26.036C170.325 26.036 170.653 26.108 170.925 26.252C171.197 26.388 171.433 26.548 171.633 26.732L171.177 27.308C171.009 27.148 170.825 27.02 170.625 26.924C170.433 26.82 170.217 26.768 169.977 26.768C169.609 26.768 169.281 26.868 168.993 27.068C168.713 27.26 168.489 27.532 168.321 27.884C168.161 28.236 168.081 28.64 168.081 29.096C168.081 29.56 168.157 29.968 168.309 30.32C168.469 30.664 168.689 30.932 168.969 31.124C169.249 31.316 169.577 31.412 169.953 31.412C170.233 31.412 170.493 31.352 170.733 31.232C170.973 31.112 171.185 30.972 171.369 30.812L171.753 31.4C171.497 31.632 171.209 31.816 170.889 31.952C170.569 32.08 170.233 32.144 169.881 32.144ZM174.395 32.144C174.075 32.144 173.787 32.08 173.531 31.952C173.275 31.824 173.071 31.64 172.919 31.4C172.767 31.152 172.691 30.852 172.691 30.5C172.691 29.868 172.979 29.384 173.555 29.048C174.139 28.704 175.059 28.464 176.315 28.328C176.315 28.064 176.279 27.812 176.207 27.572C176.143 27.332 176.019 27.14 175.835 26.996C175.659 26.844 175.403 26.768 175.067 26.768C174.715 26.768 174.387 26.836 174.083 26.972C173.787 27.108 173.527 27.252 173.303 27.404L172.955 26.804C173.123 26.692 173.323 26.576 173.555 26.456C173.787 26.336 174.043 26.236 174.323 26.156C174.603 26.076 174.899 26.036 175.211 26.036C175.683 26.036 176.063 26.136 176.351 26.336C176.639 26.536 176.847 26.812 176.975 27.164C177.111 27.516 177.179 27.928 177.179 28.4V32H176.459L176.387 31.292H176.351C176.071 31.524 175.767 31.724 175.439 31.892C175.111 32.06 174.763 32.144 174.395 32.144ZM174.623 31.436C174.927 31.436 175.207 31.368 175.463 31.232C175.727 31.088 176.011 30.884 176.315 30.62V28.916C175.627 28.996 175.083 29.108 174.683 29.252C174.283 29.388 173.995 29.556 173.819 29.756C173.643 29.956 173.555 30.188 173.555 30.452C173.555 30.796 173.659 31.048 173.867 31.208C174.083 31.36 174.335 31.436 174.623 31.436ZM179.086 32V26.18H179.806L179.878 27.248H179.914C180.114 26.88 180.354 26.588 180.634 26.372C180.922 26.148 181.234 26.036 181.57 26.036C181.69 26.036 181.798 26.048 181.894 26.072C181.99 26.088 182.082 26.116 182.17 26.156L182.002 26.924C181.906 26.892 181.818 26.868 181.738 26.852C181.666 26.836 181.57 26.828 181.45 26.828C181.202 26.828 180.942 26.932 180.67 27.14C180.398 27.34 180.158 27.696 179.95 28.208V32H179.086ZM185.469 32.144C184.965 32.144 184.501 32.024 184.077 31.784C183.661 31.536 183.329 31.188 183.081 30.74C182.833 30.284 182.709 29.736 182.709 29.096C182.709 28.464 182.833 27.92 183.081 27.464C183.329 27.008 183.649 26.656 184.041 26.408C184.441 26.16 184.865 26.036 185.313 26.036C185.793 26.036 186.205 26.148 186.549 26.372C186.893 26.596 187.153 26.912 187.329 27.32C187.513 27.72 187.605 28.2 187.605 28.76C187.605 28.856 187.601 28.952 187.593 29.048C187.593 29.136 187.585 29.216 187.569 29.288H183.393L183.381 28.652H186.825C186.825 28.028 186.693 27.556 186.429 27.236C186.165 26.908 185.797 26.744 185.325 26.744C185.037 26.744 184.757 26.828 184.485 26.996C184.213 27.164 183.989 27.42 183.813 27.764C183.637 28.108 183.549 28.552 183.549 29.096C183.549 29.616 183.641 30.048 183.825 30.392C184.009 30.736 184.253 30.996 184.557 31.172C184.869 31.348 185.209 31.436 185.577 31.436C185.873 31.436 186.137 31.392 186.369 31.304C186.609 31.216 186.837 31.104 187.053 30.968L187.377 31.544C187.129 31.704 186.849 31.844 186.537 31.964C186.233 32.084 185.877 32.144 185.469 32.144Z" fill="black" fill-opacity="0.65"/>
<path d="M25.1509 14.8481C24.937 12.6145 24.224 10.4502 23.0597 8.50014C21.8955 6.55011 20.3067 4.85939 18.4 3.54125L16.5264 2.25L14.7707 3.54938C12.9414 4.90287 11.4328 6.60842 10.3433 8.5546C9.25383 10.5008 8.608 12.6438 8.44802 14.8438C7.74123 14.717 7.02357 14.6532 6.30434 14.6532H1.05072V18.75C1.05072 24.8154 6.23559 29.75 12.6087 29.75H21.0145C27.3876 29.75 32.5725 24.8154 32.5725 18.75V14.6532H27.3188C26.5914 14.6532 25.8655 14.7184 25.1509 14.8481ZM16.0608 5.12813L16.5714 4.75L17.1677 5.16094C18.8873 6.34977 20.3097 7.88545 21.3332 9.65821C22.3568 11.431 22.9563 13.397 23.0887 15.4159C20.31 16.4636 18.0621 18.4896 16.8116 21.0732C15.5586 18.4848 13.3044 16.4564 10.5188 15.4107C10.5922 13.4145 11.1268 11.4583 12.0847 9.68107C13.0426 7.90387 14.4001 6.34936 16.0608 5.12813ZM15.7609 27.75H12.6087C7.39447 27.75 3.15217 23.7125 3.15217 18.75V16.6532H6.30434C11.5186 16.6532 15.7609 20.6907 15.7609 25.6532V27.75ZM30.471 18.75C30.471 23.7125 26.2287 27.75 21.0145 27.75H17.8623V25.6532C17.8623 20.6907 22.1046 16.6532 27.3188 16.6532H30.471V18.75Z" fill="#4E580F" fill-opacity="0.8"/>
</svg>
