<svg width="70" height="70" viewBox="0 0 70 70" fill="none" xmlns="http://www.w3.org/2000/svg">
<circle cx="35" cy="35" r="35" fill="#F6F6DE"/>
<g clip-path="url(#clip0_63_163)">
<mask id="mask0_63_163" style="mask-type:luminance" maskUnits="userSpaceOnUse" x="15" y="15" width="40" height="40">
<path d="M55 15H15V55H55V15Z" fill="white"/>
</mask>
<g mask="url(#mask0_63_163)">
<path d="M23.0242 22.3413C23.1102 22.3667 23.2007 22.3734 23.2895 22.3609C23.3784 22.3483 23.4634 22.3167 23.539 22.2683C23.6145 22.22 23.6787 22.1559 23.7273 22.0805C23.7759 22.0051 23.8077 21.9201 23.8205 21.8313C23.8333 21.7425 23.8268 21.652 23.8016 21.566C23.7762 21.4799 23.7327 21.4003 23.6739 21.3326C23.6152 21.2648 23.5425 21.2105 23.4608 21.1733C23.3791 21.1362 23.2905 21.117 23.2008 21.1172C23.0659 21.1178 22.9348 21.1617 22.8268 21.2425C22.7188 21.3232 22.6396 21.4364 22.6008 21.5656C22.5543 21.7246 22.5727 21.8955 22.6521 22.0409C22.7315 22.1863 22.8653 22.2944 23.0242 22.3413Z" fill="#4E580F" fill-opacity="0.8"/>
<path d="M21.9453 24.0844V24.0852C21.8448 24.9501 21.9465 25.8265 22.2425 26.6453C22.5385 27.4642 23.0205 28.2031 23.6508 28.8039L33.4896 38.7444L33.2531 39.1194C33.1649 39.2598 33.1359 39.4294 33.1726 39.591C33.2092 39.7527 33.3084 39.8933 33.4484 39.982C33.5888 40.0702 33.7584 40.0992 33.9201 40.0626C34.0817 40.0259 34.2223 39.9267 34.3109 39.7866L34.5961 39.3342C34.7234 39.2866 34.8315 39.1985 34.9039 39.0835C34.9764 38.9686 35.0092 38.833 34.9973 38.6977L37.218 35.1752C37.2214 35.1701 37.2245 35.1648 37.2277 35.1595L42.4594 26.8609C42.6845 26.5041 42.8349 26.1055 42.9015 25.6889C42.9681 25.2723 42.9495 24.8466 42.8469 24.4375L41.8188 20.3241C41.4393 18.8029 40.5613 17.4524 39.325 16.4882C39.2203 16.407 39.1117 16.3264 39.0008 16.2499H41.2594C42.2032 16.2537 43.1209 16.5611 43.8765 17.1267C44.6321 17.6923 45.1858 18.486 45.4555 19.3905L46.8656 24.1859C47.0464 24.7996 47.0902 25.4455 46.9941 26.078C46.898 26.7106 46.6643 27.3144 46.3094 27.8467L43.5203 32.0312C43.4723 32.0995 43.4384 32.1766 43.4207 32.2581C43.403 32.3396 43.4017 32.4238 43.417 32.5059C43.4323 32.5879 43.4639 32.6659 43.5099 32.7355C43.5559 32.8052 43.6154 32.8648 43.6848 32.9111C43.7542 32.9573 43.8322 32.9893 43.9141 33.0049C43.996 33.0205 44.0803 33.0197 44.1619 33.0023C44.2434 32.9848 44.3207 32.9513 44.3891 32.9035C44.4575 32.8558 44.5157 32.7948 44.5602 32.7242L47.35 28.5405C47.8059 27.8557 48.1061 27.0794 48.2298 26.266C48.3534 25.4527 48.2973 24.6222 48.0656 23.8328L46.6555 19.0375C46.3126 17.8719 45.6016 16.8487 44.6287 16.1209C43.6559 15.3931 42.4735 14.9999 41.2586 15H28.7414C27.5265 14.9999 26.3441 15.3931 25.3713 16.1209C24.3984 16.8487 23.6874 17.8719 23.3445 19.0375L23.307 19.1672C23.2797 19.2604 23.2745 19.3587 23.2917 19.4544C23.3091 19.55 23.3484 19.6403 23.4066 19.718C23.4648 19.7958 23.5403 19.859 23.6272 19.9025C23.7141 19.946 23.8098 19.9687 23.907 19.9688C24.0418 19.9681 24.1728 19.9242 24.2807 19.8434C24.3886 19.7626 24.4677 19.6494 24.5063 19.5202L24.5445 19.3906C24.8143 18.486 25.368 17.6922 26.1238 17.1266C26.8797 16.561 27.7974 16.2537 28.7414 16.25H30.9992C29.5964 17.2208 28.5948 18.669 28.1813 20.3241L27.2367 24.0999C27.1063 24.6235 27.1134 25.172 27.2573 25.692C27.4013 26.212 27.6773 26.6861 28.0586 27.068L35.9046 34.9141L34.1743 37.6584L24.5281 27.9141L24.5156 27.9016C24.0873 27.4922 23.7463 27.0005 23.513 26.4559C23.2796 25.9114 23.1588 25.3252 23.1578 24.7328C23.1577 24.5645 23.1673 24.3962 23.1867 24.2289C23.2056 24.0643 23.1586 23.899 23.0558 23.7691C22.953 23.6391 22.8028 23.5553 22.6383 23.5359C22.6141 23.5335 22.5891 23.532 22.5648 23.532C22.4118 23.5322 22.2642 23.5885 22.15 23.6903C22.0358 23.7921 21.9629 23.9323 21.9453 24.0844ZM28.943 26.1835C28.7684 26.0098 28.6298 25.8032 28.5356 25.5757C28.4413 25.3481 28.3931 25.1041 28.3938 24.8578C28.3937 24.7045 28.4123 24.5518 28.4492 24.403L29.3938 20.6273C29.7064 19.3771 30.428 18.2673 31.4438 17.4743C32.4595 16.6812 33.7113 16.2505 35 16.2505C36.2887 16.2505 37.5405 16.6812 38.5562 17.4743C39.572 18.2673 40.2936 19.3771 40.6063 20.6273L41.6344 24.7406C41.6959 24.9861 41.7071 25.2415 41.6672 25.4913C41.6273 25.7413 41.5373 25.9805 41.4023 26.1945L36.5886 33.8292L28.943 26.1835Z" fill="#4E580F" fill-opacity="0.8"/>
<path d="M16.875 40.0781C17.0408 40.0781 17.1997 40.0123 17.3169 39.8951C17.4341 39.7779 17.5 39.6189 17.5 39.4531V23.125C17.5013 21.9651 17.9627 20.853 18.7828 20.0328C19.603 19.2127 20.7151 18.7513 21.875 18.75C22.0408 18.75 22.1997 18.6841 22.3169 18.5669C22.4341 18.4497 22.5 18.2908 22.5 18.125C22.5 17.9592 22.4341 17.8003 22.3169 17.6831C22.1997 17.5659 22.0408 17.5 21.875 17.5C20.3837 17.5017 18.9539 18.0948 17.8994 19.1494C16.8448 20.2039 16.2517 21.6337 16.25 23.125V39.4531C16.25 39.6189 16.3159 39.7779 16.4331 39.8951C16.5503 40.0123 16.7092 40.0781 16.875 40.0781Z" fill="#4E580F" fill-opacity="0.8"/>
<path d="M48.125 18.75C49.2849 18.7513 50.397 19.2127 51.2172 20.0328C52.0373 20.853 52.4987 21.9651 52.5 23.125V43.75C52.5 43.9158 52.5659 44.0748 52.683 44.192C52.8002 44.3091 52.9592 44.375 53.125 44.375C53.2908 44.375 53.4498 44.3091 53.567 44.192C53.6841 44.0748 53.75 43.9158 53.75 43.75V23.125C53.7484 21.6337 53.1552 20.2039 52.1006 19.1494C51.0461 18.0948 49.6163 17.5017 48.125 17.5C47.9592 17.5 47.8002 17.5659 47.683 17.6831C47.5659 17.8003 47.5 17.9592 47.5 18.125C47.5 18.2908 47.5659 18.4497 47.683 18.5669C47.8002 18.6841 47.9592 18.75 48.125 18.75Z" fill="#4E580F" fill-opacity="0.8"/>
<path d="M35.625 53.7495H30.5428L32.395 50.9716C32.4415 50.9033 32.474 50.8265 32.4906 50.7456C32.5073 50.6648 32.5077 50.5813 32.4919 50.5003C32.4761 50.4192 32.4444 50.3421 32.3986 50.2734C32.3528 50.2047 32.2938 50.1457 32.2252 50.0998C32.1564 50.0541 32.0793 50.0223 31.9982 50.0065C31.9172 49.9906 31.8337 49.991 31.7528 50.0077C31.672 50.0242 31.5951 50.0567 31.5268 50.1032C31.4585 50.1496 31.4002 50.2091 31.355 50.2783L29.0405 53.7495H25.5078L27.2677 50.9582C27.3562 50.818 27.3852 50.6484 27.3486 50.4868C27.312 50.3251 27.2126 50.1847 27.0724 50.0962C26.9322 50.0079 26.7626 49.9787 26.6009 50.0154C26.4392 50.052 26.2988 50.1514 26.2103 50.2916L24.0302 53.7495H21.875C20.9047 53.7502 19.9618 53.4282 19.1946 52.8342C18.4275 52.2403 17.8796 51.4081 17.6373 50.4687C17.6168 50.3892 17.5808 50.3146 17.5314 50.249C17.482 50.1834 17.4202 50.1282 17.3495 50.0865C17.2788 50.0448 17.2006 50.0175 17.1193 50.006C17.038 49.9946 16.9553 49.9992 16.8758 50.0198C16.7963 50.0403 16.7216 50.0762 16.6561 50.1256C16.5905 50.175 16.5353 50.2368 16.4936 50.3075C16.4519 50.3782 16.4245 50.4564 16.4131 50.5377C16.4016 50.6189 16.4063 50.7017 16.4268 50.7812C16.7383 51.9889 17.4427 53.0588 18.429 53.8224C19.4153 54.5861 20.6276 55.0001 21.875 54.9994H35.625C35.7908 54.9994 35.9498 54.9335 36.067 54.8164C36.1841 54.6991 36.25 54.5402 36.25 54.3745C36.25 54.2087 36.1841 54.0497 36.067 53.9326C35.9498 53.8154 35.7908 53.7495 35.625 53.7495Z" fill="#4E580F" fill-opacity="0.8"/>
<path d="M33.125 48.7491C33.2908 48.7491 33.4498 48.6833 33.567 48.5661C33.6841 48.4489 33.75 48.2899 33.75 48.1242C33.75 47.9584 33.6841 47.7995 33.567 47.6823C33.4498 47.5651 33.2908 47.4993 33.125 47.4993H16.875C16.7093 47.4991 16.5504 47.4332 16.4333 47.316C16.3161 47.1988 16.2502 47.04 16.25 46.8743V45.6245H25.625C25.7908 45.6245 25.9498 45.5586 26.067 45.4415C26.1841 45.3243 26.25 45.1653 26.25 44.9996C26.25 44.8338 26.1841 44.6748 26.067 44.5577C25.9498 44.4405 25.7908 44.3746 25.625 44.3746H16.25V43.2029C16.2502 43.0372 16.3161 42.8784 16.4333 42.7612C16.5504 42.6441 16.7093 42.5781 16.875 42.578H38.125C38.2908 42.578 38.4498 42.5121 38.567 42.395C38.6841 42.2778 38.75 42.1188 38.75 41.953C38.75 41.7873 38.6841 41.6283 38.567 41.5111C38.4498 41.394 38.2908 41.3281 38.125 41.3281H16.875C16.3779 41.3287 15.9013 41.5264 15.5498 41.8778C15.1983 42.2293 15.0006 42.7058 15 43.2029V46.8743C15.0006 47.3714 15.1983 47.8479 15.5498 48.1994C15.9013 48.5508 16.3779 48.7486 16.875 48.7491H33.125Z" fill="#4E580F" fill-opacity="0.8"/>
<path d="M54.6438 46.0795C53.6259 45.8217 52.5796 45.6933 51.5295 45.6974C51.3189 44.6805 50.981 43.6943 50.5239 42.7619C50.4609 42.6405 50.3598 42.543 50.2362 42.4846C50.1125 42.4262 49.9731 42.4099 49.8393 42.4383C48.9891 42.6399 48.1627 42.9312 47.3738 43.3071C46.8027 42.594 46.1538 41.9468 45.4393 41.3774C45.3305 41.2946 45.1975 41.2498 45.0608 41.2498C44.9241 41.2498 44.7911 41.2946 44.6823 41.3774C43.9411 41.9681 43.2705 42.6424 42.684 43.3869C41.8455 42.9725 40.9628 42.6542 40.0528 42.4381C39.9191 42.4098 39.7796 42.426 39.656 42.4844C39.5323 42.5429 39.4313 42.6402 39.3683 42.7616C38.9112 43.6941 38.5733 44.6804 38.3626 45.6973C37.3126 45.6933 36.2662 45.8217 35.2484 46.0793C35.1166 46.1162 35.0007 46.1951 34.9182 46.3042C34.8357 46.4133 34.7913 46.5465 34.7917 46.6832C34.7924 46.8794 34.8405 51.5131 37.733 53.7C39.089 54.7251 40.7833 55.0047 42.2295 55.0047C43.1434 55.0009 44.0541 54.8988 44.9461 54.7C45.838 54.8988 46.7489 55.001 47.6627 55.0047C49.1088 55.0047 50.8034 54.7248 52.1591 53.7C55.0516 51.5131 55.0998 46.8797 55.1004 46.6832C55.1008 46.5465 55.0563 46.4134 54.9739 46.3044C54.8914 46.1954 54.7755 46.1164 54.6438 46.0795ZM49.6204 43.7874C49.9786 44.6242 50.2356 45.5007 50.386 46.3984C50.3881 46.4198 50.3912 46.4408 50.3953 46.4615C50.5587 47.5439 50.5389 48.7505 50.0387 49.8086C49.5417 50.8597 48.6202 51.6396 47.6841 52.1998C48.517 51.0635 49.2623 49.5904 49.2623 47.9556C49.2623 46.6091 48.7565 45.3722 48.1127 44.3428C48.6024 44.1241 49.1062 43.9386 49.6207 43.7874H49.6204ZM38.487 52.7031C36.5845 51.2648 36.1617 48.3373 36.0682 47.1729C36.7648 47.0341 37.4725 46.9589 38.1827 46.9481C38.0955 48.055 38.2048 49.2464 38.723 50.3428C39.5121 52.0116 41.0678 53.0876 42.4381 53.7491C41.1609 53.7758 39.6388 53.574 38.487 52.7031ZM39.8531 49.8086C38.8339 47.6523 39.8159 44.8623 40.2726 43.7872C40.8496 43.9567 41.413 44.1698 41.9577 44.4248C41.3383 45.4375 40.8594 46.6448 40.8594 47.9556C40.8594 49.7037 41.7116 51.2673 42.612 52.4316C41.5413 51.8612 40.4229 51.0139 39.8531 49.8086ZM45.0608 53.2194C44.1875 52.4416 42.1094 50.3396 42.1094 47.9556C42.1094 45.5716 44.1893 43.4683 45.0618 42.6912C45.6555 43.2183 46.1938 43.8047 46.6684 44.4412C46.6809 44.4603 46.6945 44.4787 46.7089 44.4964C47.4052 45.455 48.013 46.6617 48.013 47.9555C48.0126 50.3398 45.9337 52.4419 45.0608 53.2194ZM51.4052 52.7031C50.2524 53.5747 48.7288 53.7762 47.4511 53.749C48.8299 53.0844 50.3818 52.0083 51.1691 50.3427C51.6874 49.2463 51.7966 48.055 51.7095 46.9481C52.4197 46.9595 53.1273 47.0349 53.8239 47.1733C53.7302 48.3388 53.3072 51.2651 51.4052 52.7031Z" fill="#4E580F" fill-opacity="0.8"/>
<path d="M42.6539 33.8328C42.5038 33.8324 42.3586 33.886 42.2448 33.9838C42.1309 34.0816 42.056 34.217 42.0337 34.3654C42.0114 34.5138 42.0432 34.6652 42.1233 34.7922C42.2034 34.919 42.3264 35.0129 42.47 35.0567C42.6136 35.1004 42.768 35.0911 42.9053 35.0304C43.0426 34.9697 43.1535 34.8618 43.2177 34.7262C43.282 34.5906 43.2954 34.4364 43.2554 34.2917C43.2155 34.1471 43.1248 34.0216 43 33.9382C42.8976 33.8697 42.7772 33.833 42.6539 33.8328Z" fill="#4E580F" fill-opacity="0.8"/>
<path d="M41.6133 36.018C41.4754 35.9261 41.3066 35.8929 41.1441 35.9254C40.9817 35.9579 40.8388 36.0535 40.7469 36.1914L38.8031 39.1059C38.7112 39.2439 38.6777 39.4128 38.7102 39.5754C38.7428 39.7379 38.8386 39.881 38.9766 39.9729C39.1146 40.0649 39.2835 40.0983 39.4461 40.0658C39.6087 40.0332 39.7518 39.9375 39.8437 39.7995L41.7867 36.8843C41.8323 36.816 41.8639 36.7395 41.8798 36.659C41.8958 36.5785 41.8957 36.4957 41.8796 36.4152C41.8635 36.3348 41.8317 36.2582 41.786 36.1901C41.7403 36.1219 41.6816 36.0635 41.6133 36.018Z" fill="#4E580F" fill-opacity="0.8"/>
<path d="M28.125 45.6248C28.4702 45.6248 28.75 45.345 28.75 44.9999C28.75 44.6548 28.4702 44.375 28.125 44.375C27.7798 44.375 27.5 44.6548 27.5 44.9999C27.5 45.345 27.7798 45.6248 28.125 45.6248Z" fill="#4E580F" fill-opacity="0.8"/>
<path d="M30.625 45.6248C30.9702 45.6248 31.25 45.345 31.25 44.9999C31.25 44.6548 30.9702 44.375 30.625 44.375C30.2798 44.375 30 44.6548 30 44.9999C30 45.345 30.2798 45.6248 30.625 45.6248Z" fill="#4E580F" fill-opacity="0.8"/>
<path d="M33.125 45.6248C33.4702 45.6248 33.75 45.345 33.75 44.9999C33.75 44.6548 33.4702 44.375 33.125 44.375C32.7798 44.375 32.5 44.6548 32.5 44.9999C32.5 45.345 32.7798 45.6248 33.125 45.6248Z" fill="#4E580F" fill-opacity="0.8"/>
</g>
</g>
<defs>
<clipPath id="clip0_63_163">
<rect width="40" height="40" fill="white" transform="translate(15 15)"/>
</clipPath>
</defs>
</svg>
