<svg width="70" height="70" viewBox="0 0 70 70" fill="none" xmlns="http://www.w3.org/2000/svg">
<g clip-path="url(#clip0_200_51)">
<circle cx="35" cy="35" r="35" fill="#F6F6DE"/>
<g clip-path="url(#clip1_200_51)">
<mask id="mask0_200_51" style="mask-type:luminance" maskUnits="userSpaceOnUse" x="15" y="15" width="40" height="40">
<path d="M55 15H15V55H55V15Z" fill="white"/>
</mask>
<g mask="url(#mask0_200_51)">
<path d="M22.6134 22.2069C22.9334 22.2498 23.2279 22.0242 23.2705 21.7039C23.5254 19.7833 24.933 17.8479 26.6935 16.9974C29.1983 15.7871 32.3041 15.9097 35.0015 17.3251C36.6119 18.1701 37.8427 19.2453 38.561 20.4346C38.85 20.9132 39.073 21.5608 39.224 22.3597C39.277 22.6406 39.5226 22.8363 39.7983 22.8362C39.8342 22.8362 39.8708 22.833 39.9075 22.826C40.2251 22.766 40.4339 22.46 40.3739 22.1423C40.197 21.206 39.9241 20.4279 39.5628 19.8295C38.7222 18.4377 37.3705 17.2464 35.5454 16.2886C32.5212 14.7016 29.0217 14.5727 26.1844 15.9434C24.0562 16.9717 22.419 19.2247 22.1103 21.5498C22.0678 21.8702 22.293 22.1644 22.6134 22.2069Z" fill="#4E580F" fill-opacity="0.8"/>
<path d="M51.733 51.6193L45.6769 45.5631L47.7968 42.055C47.8027 42.0452 47.8083 42.0352 47.8137 42.025C48.3326 41.04 48.21 39.9069 47.5083 39.2053L46.4344 38.1312C45.9788 37.6757 45.2375 37.6757 44.7819 38.1313L44.0541 38.8592C43.5215 38.4527 42.8243 38.3629 42.2182 38.5878C42.184 38.0704 42.1407 37.5615 42.0939 37.0678L42.0596 36.694C42.2656 36.2619 42.3742 36.033 42.4312 35.8988L42.4374 35.9018C43.9019 32.8314 43.691 28.9929 41.8999 26.1225C40.2533 23.4838 37.4819 21.8107 35.2551 20.4664C33.1581 19.2005 31.1651 17.5992 28.5303 17.9174C27.3494 18.06 26.3033 18.6656 25.5842 19.6225C25.1389 20.2153 24.8584 20.8927 24.7544 21.6031C23.5134 22.2954 22.3878 23.1132 21.4092 24.0389C19.2561 26.0753 18.0102 28.8512 18.0999 31.8376C18.1421 33.2421 18.4789 34.6333 19.0839 35.9016C19.0839 35.9018 19.4461 36.6611 19.4461 36.6611L19.409 37.066C19.157 39.7236 18.9774 42.7891 20.0441 45.5364C21.1898 48.4871 23.9878 51.5688 27.5288 53.78C27.6089 53.83 29.4966 54.9997 30.7419 54.9996C30.7482 54.9996 30.7545 54.9996 30.7608 54.9996C32.006 54.9996 33.8937 53.83 33.9738 53.78C35.2231 52.9998 36.3793 52.111 37.4037 51.1582C37.5087 51.1722 37.6155 51.1795 37.7233 51.1795C38.1396 51.1795 38.5715 51.0746 38.9781 50.8603C38.9864 50.856 38.9946 50.8514 39.0026 50.8467L42.5478 48.7553L44.8476 51.0552C45.0762 51.2836 45.4467 51.2836 45.6751 51.0552C45.9037 50.8266 45.9037 50.4561 45.6751 50.2276L45.1936 49.746L46.6993 48.2404L50.4916 52.0328L48.9859 53.5384L47.5915 52.144C47.363 51.9156 46.9925 51.9156 46.764 52.144C46.5355 52.3726 46.5355 52.743 46.764 52.9716L48.5722 54.7797C48.6864 54.8939 48.8362 54.951 48.9859 54.951C49.1357 54.951 49.2854 54.8939 49.3997 54.7797L51.7329 52.4465C51.8427 52.3368 51.9044 52.188 51.9044 52.0328C51.9044 51.8775 51.8429 51.729 51.733 51.6193ZM19.9772 35.036C20.0051 34.9595 19.8107 34.6154 19.7797 34.5278C19.5906 33.9935 19.4518 33.4394 19.3669 32.8791C18.9334 30.0194 19.9444 26.8201 22.1808 24.9194C22.1888 24.9126 22.1966 24.9056 22.2043 24.8983C22.9665 24.1761 23.8272 23.5239 24.7678 22.9506C25.0982 24.9616 26.4691 26.058 27.8451 27.0086C28.4626 27.4353 29.0551 27.8343 29.6302 28.2114C28.1569 29.2482 26.5434 30.062 24.9246 30.8412C23.6114 31.4731 22.2536 32.1262 21.1251 33.1328C20.5383 33.6559 20.2305 34.3398 19.9772 35.036ZM33.354 52.7876C32.6593 53.2214 31.3987 53.8296 30.7622 53.8296C30.7587 53.8296 30.755 53.8295 30.7515 53.8296C30.748 53.8297 30.7444 53.8296 30.7407 53.8296C30.1042 53.8296 28.8435 53.2213 28.1488 52.7876C25.5747 51.1801 22.3804 48.32 21.1352 45.1131C20.161 42.6043 20.3349 39.701 20.5744 37.1749C20.6183 36.7119 20.7689 36.3199 20.9263 35.8646C21.18 35.1311 21.4196 34.4382 21.9041 34.0061C22.9096 33.1093 24.1919 32.4924 25.432 31.8957L25.6655 31.7834C27.3417 30.975 29.105 30.0653 30.6868 28.8912C31.7556 29.5654 32.7719 30.1645 33.7793 30.7146C34.0629 30.8696 34.4183 30.7651 34.5734 30.4815C34.7283 30.1979 34.624 29.8425 34.3404 29.6875C32.5206 28.6937 30.6681 27.5364 28.5105 26.0457C27.0112 25.0099 26.1546 24.1791 25.9222 22.7577C25.7806 21.8912 25.993 21.0275 26.5202 20.3256C27.0459 19.626 27.8097 19.1834 28.671 19.0795C29.6334 18.9628 30.5883 19.2378 31.46 19.6269C32.558 20.1172 33.6227 20.8478 34.6506 21.4684C36.8811 22.815 39.4092 24.341 40.9075 26.7422C42.4224 29.17 42.659 32.3819 41.5443 35.035C41.2911 34.3392 40.9833 33.6556 40.3968 33.1325C39.2697 32.1272 37.9077 31.4718 36.706 30.8933C36.4147 30.753 36.065 30.8756 35.9249 31.1668C35.7847 31.458 35.9072 31.8078 36.1983 31.9478C37.3305 32.4928 38.6137 33.1104 39.6177 34.006C40.1022 34.4382 40.3419 35.131 40.5955 35.8646C40.684 36.1207 40.7759 36.3837 40.8798 36.6411L40.929 37.1767C40.9989 37.9137 41.061 38.6839 41.0926 39.4663L35.9957 44.5632C35.3082 45.2508 35.2536 46.3329 35.8279 47.0856L35.0847 47.8289C34.629 48.2846 34.629 49.026 35.0847 49.4815L36.1586 50.5556C36.1827 50.5797 36.2076 50.6032 36.2328 50.626C35.2721 51.4786 34.2737 52.2133 33.354 52.7876ZM37.0932 49.8181C37.0555 49.7907 37.0192 49.7611 36.9859 49.7279L35.912 48.6565L36.654 47.9144C36.9872 48.1696 37.3925 48.3082 37.8192 48.3082C38.0858 48.3082 38.344 48.2539 38.5815 48.151C38.1234 48.736 37.6204 49.2942 37.0932 49.8181ZM38.3502 46.9178C38.0523 47.2157 37.5862 47.2158 37.2882 46.9178C37.288 46.9175 36.8232 46.4528 36.8232 46.4528C36.5304 46.16 36.5304 45.6835 36.8232 45.3907C36.8232 45.3907 42.3551 39.8589 42.3594 39.8545C42.6376 39.5763 43.1282 39.5611 43.4215 39.8544L43.8865 40.3196C44.0283 40.4614 44.1065 40.65 44.1065 40.8506C44.1065 41.0513 44.0283 41.2398 43.8865 41.3816L38.3502 46.9178ZM42.3575 47.5093L39.0122 49.4826C40.1035 48.2007 40.9465 46.8557 41.4587 45.5368C41.4735 45.4985 41.4869 45.4602 41.5013 45.4219L44.714 42.2092C45.0769 41.8463 45.2768 41.3639 45.2768 40.8506C45.2768 40.4238 45.138 40.0183 44.8828 39.6852L45.6071 38.9589L46.681 40.0329C47.0148 40.3667 47.0562 40.9408 46.7858 41.4655L44.3189 45.5479L42.3575 47.5093ZM44.3663 48.9188L43.4847 48.0371L44.9903 46.5315L45.8719 47.4132L44.3663 48.9188Z" fill="#4E580F" fill-opacity="0.8"/>
<path d="M27.1643 37.8662C26.6928 38.3377 26.0659 38.5974 25.3992 38.5974C24.7325 38.5974 24.1055 38.3377 23.634 37.8662C23.4054 37.6377 23.0351 37.6377 22.8065 37.8663C22.578 38.0948 22.578 38.4653 22.8065 38.6938C22.9432 38.8305 23.089 38.9545 23.2422 39.0664L22.8851 39.7306C22.7321 40.0152 22.8387 40.3701 23.1234 40.5231C23.2116 40.5704 23.3065 40.593 23.4 40.593C23.6085 40.593 23.8102 40.4813 23.9159 40.2849L24.2863 39.5957C24.4581 39.6502 24.6344 39.692 24.814 39.7207V40.4017C24.814 40.725 25.076 40.9869 25.3991 40.9869C25.7223 40.9869 25.9844 40.725 25.9844 40.4017V39.7206C26.1639 39.692 26.3401 39.6501 26.5119 39.5956L26.8823 40.2848C26.9879 40.4813 27.1897 40.5929 27.3983 40.5929C27.4918 40.5929 27.5866 40.5704 27.6748 40.523C27.9594 40.37 28.0662 40.0152 27.9132 39.7306L27.5561 39.0663C27.7092 38.9545 27.8551 38.8304 27.9917 38.6937C28.2203 38.4652 28.2203 38.0946 27.9917 37.8662C27.7633 37.6377 27.3929 37.6377 27.1643 37.8662Z" fill="#4E580F" fill-opacity="0.8"/>
<path d="M35.5019 39.7207V40.4018C35.5019 40.725 35.7639 40.987 36.0871 40.987C36.4102 40.987 36.6722 40.725 36.6722 40.4018V39.7207C36.8518 39.692 37.0281 39.6502 37.1999 39.5957L37.5704 40.2848C37.676 40.4814 37.8778 40.593 38.0863 40.593C38.1798 40.593 38.2748 40.5705 38.3628 40.523C38.6475 40.3699 38.7543 40.0152 38.6011 39.7305L38.244 39.0663C38.3972 38.9545 38.543 38.8304 38.6797 38.6937C38.9082 38.4652 38.9082 38.0947 38.6797 37.8662C38.4511 37.6377 38.0807 37.6377 37.8521 37.8662C37.3807 38.3377 36.7538 38.5973 36.0871 38.5973C35.4203 38.5973 34.7935 38.3377 34.3219 37.8662C34.0934 37.6377 33.7228 37.6377 33.4944 37.8662C33.2659 38.0948 33.266 38.4653 33.4945 38.6937C33.6312 38.8305 33.777 38.9545 33.9302 39.0663L33.5731 39.7305C33.42 40.0152 33.5266 40.3699 33.8114 40.523C33.8995 40.5704 33.9943 40.593 34.0879 40.593C34.2964 40.593 34.4982 40.4813 34.6038 40.2848L34.9743 39.5957C35.1461 39.6502 35.3223 39.692 35.5019 39.7207Z" fill="#4E580F" fill-opacity="0.8"/>
</g>
</g>
</g>
<defs>
<clipPath id="clip0_200_51">
<rect width="70" height="70" fill="white"/>
</clipPath>
<clipPath id="clip1_200_51">
<rect width="40" height="40" fill="white" transform="translate(15 15)"/>
</clipPath>
</defs>
</svg>
