<svg width="70" height="70" viewBox="0 0 70 70" fill="none" xmlns="http://www.w3.org/2000/svg">
<circle cx="35" cy="35" r="35" fill="#F6F6DE"/>
<mask id="mask0_63_88" style="mask-type:luminance" maskUnits="userSpaceOnUse" x="15" y="14" width="38" height="39">
<path d="M52.2778 14.9999H15V52.2777H52.2778V14.9999Z" fill="white"/>
</mask>
<g mask="url(#mask0_63_88)">
<path d="M31.8915 27.8141C31.737 27.8141 31.5888 27.8755 31.4796 27.9847C31.3704 28.0939 31.309 28.2421 31.309 28.3966V51.6952C31.309 51.8497 31.3704 51.9978 31.4796 52.107C31.5888 52.2162 31.737 52.2776 31.8915 52.2776C32.046 52.2776 32.1941 52.2162 32.3034 52.107C32.4126 51.9978 32.474 51.8497 32.474 51.6952V28.3966C32.474 28.2421 32.4126 28.0939 32.3034 27.9847C32.1941 27.8755 32.046 27.8141 31.8915 27.8141Z" fill="#4E580F" fill-opacity="0.8"/>
<path d="M51.6953 27.2308H45.2882V21.4069H51.6953C51.8498 21.4069 51.998 21.3455 52.1072 21.2363C52.2164 21.1271 52.2778 20.9789 52.2778 20.8245C52.2778 20.67 52.2164 20.5219 52.1072 20.4126C51.998 20.3034 51.8498 20.2421 51.6953 20.2421H44.7057C44.5512 20.2421 44.403 20.3034 44.2938 20.4126C44.1846 20.5219 44.1232 20.67 44.1232 20.8245V22.5716H35.468L28.8767 20.6887C28.6166 20.6144 28.3429 20.6015 28.077 20.651C27.8111 20.7004 27.5603 20.8109 27.3444 20.9738C27.1284 21.1367 26.9533 21.3474 26.8327 21.5895C26.7121 21.8315 26.6493 22.0983 26.6493 22.3687V26.269C26.6497 26.7315 26.8331 27.1751 27.1597 27.5028C27.4862 27.8305 27.9293 28.0154 28.3919 28.0174C28.5559 28.0173 28.7191 27.9943 28.8767 27.949L35.468 26.066H44.1232V27.8132C44.1232 27.9677 44.1846 28.1158 44.2938 28.225C44.403 28.3342 44.5512 28.3956 44.7057 28.3956H51.6953C51.8498 28.3956 51.998 28.3342 52.1072 28.225C52.2164 28.1158 52.2778 27.9677 52.2778 27.8132C52.2778 27.6587 52.2164 27.5106 52.1072 27.4014C51.998 27.2922 51.8498 27.2308 51.6953 27.2308ZM33.9359 25.2922L28.5569 26.829C28.4702 26.8538 28.3789 26.8581 28.2902 26.8416C28.2016 26.8251 28.118 26.7883 28.046 26.734C27.974 26.6797 27.9156 26.6095 27.8754 26.5288C27.8351 26.4481 27.8142 26.3591 27.8142 26.269V22.3687C27.8142 22.2785 27.8351 22.1896 27.8754 22.1089C27.9156 22.0282 27.974 21.9579 28.046 21.9037C28.118 21.8494 28.2016 21.8125 28.2902 21.7961C28.3789 21.7796 28.4702 21.7839 28.5569 21.8087L33.9361 23.3454C33.7425 23.6331 33.639 23.972 33.639 24.3188C33.639 24.6656 33.7425 25.0045 33.9361 25.2922H33.9359ZM44.1232 24.9012H35.3863C35.2318 24.9012 35.0836 24.8399 34.9744 24.7307C34.8652 24.6215 34.8038 24.4733 34.8038 24.3188C34.8038 24.1643 34.8652 24.0162 34.9744 23.907C35.0836 23.7978 35.2318 23.7364 35.3863 23.7364H44.1232V24.9012Z" fill="#4E580F" fill-opacity="0.8"/>
<path d="M24.9019 23.1543C25.2236 23.1543 25.4844 22.8935 25.4844 22.5719C25.4844 22.2502 25.2236 21.9895 24.9019 21.9895C24.5803 21.9895 24.3195 22.2502 24.3195 22.5719C24.3195 22.8935 24.5803 23.1543 24.9019 23.1543Z" fill="#4E580F" fill-opacity="0.8"/>
<path d="M15.6553 52.2775C15.977 52.2775 16.2377 52.0167 16.2377 51.6951C16.2377 51.3734 15.977 51.1127 15.6553 51.1127C15.3336 51.1127 15.0728 51.3734 15.0728 51.6951C15.0728 52.0167 15.3336 52.2775 15.6553 52.2775Z" fill="#4E580F" fill-opacity="0.8"/>
<path d="M20.2422 23.1543H22.5721C22.7266 23.1543 22.8747 23.0929 22.9839 22.9837C23.0931 22.8745 23.1545 22.7264 23.1545 22.5719C23.1545 22.4174 23.0931 22.2693 22.9839 22.1601C22.8747 22.0509 22.7266 21.9895 22.5721 21.9895H20.2422C20.0877 21.9895 19.9396 22.0509 19.8303 22.1601C19.7211 22.2693 19.6597 22.4174 19.6597 22.5719C19.6597 22.7264 19.7211 22.8745 19.8303 22.9837C19.9396 23.0929 20.0877 23.1543 20.2422 23.1543Z" fill="#4E580F" fill-opacity="0.8"/>
<path d="M20.2422 26.649H24.9019C25.0564 26.649 25.2046 26.5877 25.3138 26.4785C25.423 26.3693 25.4844 26.2211 25.4844 26.0666C25.4844 25.9122 25.423 25.764 25.3138 25.6548C25.2046 25.5456 25.0564 25.4843 24.9019 25.4843H20.2422C20.0877 25.4843 19.9396 25.5456 19.8303 25.6548C19.7211 25.764 19.6597 25.9122 19.6597 26.0666C19.6597 26.2211 19.7211 26.3693 19.8303 26.4785C19.9396 26.5877 20.0877 26.649 20.2422 26.649Z" fill="#4E580F" fill-opacity="0.8"/>
<path d="M29.5617 28.979C29.4072 28.979 29.259 29.0404 29.1498 29.1496C29.0406 29.2588 28.9792 29.407 28.9792 29.5615C28.9796 30.3009 28.8226 31.0318 28.5187 31.7058C27.9179 31.0314 27.1813 30.4916 26.3572 30.1221C25.5331 29.7526 24.6402 29.5615 23.737 29.5615C22.8338 29.5615 21.9409 29.7526 21.1168 30.1221C20.2927 30.4916 19.5561 31.0314 18.9553 31.7058C18.6514 31.0318 18.4944 30.3009 18.4948 29.5615V17.9122C18.4954 17.4489 18.6796 17.0048 19.0072 16.6772C19.3348 16.3496 19.7789 16.1653 20.2422 16.1648H27.2318C27.6951 16.1653 28.1392 16.3496 28.4668 16.6772C28.7944 17.0048 28.9787 17.4489 28.9792 17.9122V19.0771C28.9792 19.2316 29.0406 19.3798 29.1498 19.489C29.259 19.5982 29.4072 19.6596 29.5617 19.6596C29.7161 19.6596 29.8643 19.5982 29.9735 19.489C30.0827 19.3798 30.1441 19.2316 30.1441 19.0771V17.9122C30.1432 17.1401 29.8361 16.3998 29.2901 15.8538C28.7442 15.3079 28.0039 15.0007 27.2318 14.9999H20.2422C19.4701 15.0007 18.7298 15.3079 18.1838 15.8538C17.6379 16.3998 17.3308 17.1401 17.3299 17.9122V20.1273C15.8279 21.7398 14.995 23.863 15 26.0667V49.3653C15 49.5198 15.0614 49.668 15.1706 49.7772C15.2799 49.8864 15.428 49.9478 15.5825 49.9478C15.737 49.9478 15.8851 49.8864 15.9944 49.7772C16.1036 49.668 16.165 49.5198 16.165 49.3653V26.0667C16.162 24.6373 16.566 23.2366 17.3299 22.0283V29.5615C17.3285 30.8003 17.6884 32.0126 18.3654 33.05C18.3786 33.0733 18.3934 33.0958 18.4097 33.1172C18.9943 33.9943 19.7865 34.7135 20.7158 35.2109C21.6451 35.7083 22.6829 35.9686 23.737 35.9686C24.7911 35.9686 25.8288 35.7083 26.7582 35.2109C27.6876 34.7135 28.4797 33.9943 29.0643 33.1172C29.0806 33.0958 29.0954 33.0733 29.1086 33.05C29.7856 32.0126 30.1455 30.8003 30.1441 29.5615C30.1441 29.407 30.0827 29.2588 29.9735 29.1496C29.8643 29.0404 29.7161 28.979 29.5617 28.979ZM23.737 34.8037C22.9358 34.8036 22.1453 34.6196 21.4265 34.2658C20.7076 33.9121 20.0795 33.3981 19.5906 32.7633C20.0801 32.1295 20.7083 31.6162 21.4272 31.2632C22.146 30.9101 22.9362 30.7264 23.737 30.7264C24.5379 30.7264 25.3281 30.9101 26.0468 31.2632C26.7657 31.6162 27.3939 32.1295 27.8834 32.7633C27.3945 33.3981 26.7664 33.9121 26.0476 34.2658C25.3287 34.6196 24.5382 34.8036 23.737 34.8037Z" fill="#4E580F" fill-opacity="0.8"/>
<path d="M26.0668 39.4633C26.2213 39.4633 26.3695 39.4019 26.4787 39.2927C26.5879 39.1835 26.6493 39.0353 26.6493 38.8809C26.6493 38.7264 26.5879 38.5782 26.4787 38.469C26.3695 38.3598 26.2213 38.2985 26.0668 38.2985H21.4071C21.2526 38.2985 21.1045 38.3598 20.9952 38.469C20.886 38.5782 20.8246 38.7264 20.8246 38.8809C20.8246 39.0353 20.886 39.1835 20.9952 39.2927C21.1045 39.4019 21.2526 39.4633 21.4071 39.4633H26.0668Z" fill="#4E580F" fill-opacity="0.8"/>
<path d="M27.2318 40.6283H20.2422C20.0877 40.6283 19.9396 40.6897 19.8303 40.7989C19.7211 40.9081 19.6597 41.0562 19.6597 41.2107C19.6597 41.3652 19.7211 41.5133 19.8303 41.6225C19.9396 41.7317 20.0877 41.7931 20.2422 41.7931H27.2318C27.3863 41.7931 27.5344 41.7317 27.6437 41.6225C27.7529 41.5133 27.8142 41.3652 27.8142 41.2107C27.8142 41.0562 27.7529 40.9081 27.6437 40.7989C27.5344 40.6897 27.3863 40.6283 27.2318 40.6283Z" fill="#4E580F" fill-opacity="0.8"/>
<path d="M26.0668 42.9583H21.4071C21.2526 42.9583 21.1045 43.0196 20.9952 43.1288C20.886 43.238 20.8246 43.3862 20.8246 43.5406C20.8246 43.6951 20.886 43.8433 20.9952 43.9525C21.1045 44.0617 21.2526 44.123 21.4071 44.123H26.0668C26.2213 44.123 26.3695 44.0617 26.4787 43.9525C26.5879 43.8433 26.6493 43.6951 26.6493 43.5406C26.6493 43.3862 26.5879 43.238 26.4787 43.1288C26.3695 43.0196 26.2213 42.9583 26.0668 42.9583Z" fill="#4E580F" fill-opacity="0.8"/>
</g>
</svg>
