<svg width="70" height="70" viewBox="0 0 70 70" fill="none" xmlns="http://www.w3.org/2000/svg">
<circle cx="35" cy="35" r="35" fill="#F6F6DE"/>
<mask id="mask0_63_200" style="mask-type:luminance" maskUnits="userSpaceOnUse" x="15" y="14" width="40" height="41">
<path d="M55 14.9999H15V54.9999H55V14.9999Z" fill="white"/>
</mask>
<g mask="url(#mask0_63_200)">
<path d="M35 46.2499H30.625C30.4592 46.2499 30.3002 46.3157 30.183 46.4329C30.0659 46.5501 30 46.709 30 46.8748C30 47.0406 30.0659 47.1995 30.183 47.3167C30.3002 47.4339 30.4592 47.4997 30.625 47.4997H35C35.1658 47.4997 35.3248 47.4339 35.442 47.3167C35.5591 47.1995 35.625 47.0406 35.625 46.8748C35.625 46.709 35.5591 46.5501 35.442 46.4329C35.3248 46.3157 35.1658 46.2499 35 46.2499Z" fill="#4E580F" fill-opacity="0.8"/>
<path d="M24.6107 33.1132C25.0651 32.7175 25.6474 32.4996 26.25 32.4999H35C35.5541 32.5006 36.0923 32.685 36.5304 33.0243C36.9684 33.3636 37.2816 33.8385 37.4209 34.3749H30C29.8342 34.3749 29.6752 34.4407 29.558 34.5579C29.4409 34.6751 29.375 34.8341 29.375 34.9999C29.375 35.1657 29.4409 35.3246 29.558 35.4418C29.6752 35.559 29.8342 35.6249 30 35.6249H37.4212C37.2821 36.1614 36.9689 36.6364 36.5308 36.9758C36.0926 37.3151 35.5542 37.4994 35 37.4999H33.125C32.9592 37.4999 32.8002 37.5657 32.683 37.6829C32.5659 37.8001 32.5 37.9591 32.5 38.1249C32.5 38.2907 32.5659 38.4496 32.683 38.5668C32.8002 38.684 32.9592 38.7499 33.125 38.7499H36.25C37.1508 38.753 38.0205 39.0789 38.7016 39.6685C39.3825 40.2582 39.8296 41.0723 39.9617 41.9633C39.9734 42.0446 40.0009 42.1228 40.0427 42.1934C40.0845 42.264 40.1398 42.3257 40.2055 42.375C40.2712 42.4242 40.3459 42.46 40.4254 42.4803C40.5049 42.5007 40.5877 42.5053 40.6689 42.4936C40.7502 42.482 40.8284 42.4545 40.899 42.4127C40.9696 42.3709 41.0312 42.3155 41.0805 42.2499C41.1298 42.1842 41.1656 42.1095 41.1859 42.03C41.2063 41.9504 41.2109 41.8677 41.1992 41.7864C41.0579 40.831 40.6441 39.9365 40.0075 39.2101C39.3709 38.4837 38.5385 37.9562 37.6098 37.6907C37.6236 37.6774 37.6378 37.6647 37.6514 37.6516C38.108 37.195 38.4391 36.6281 38.6123 36.006C38.7856 35.3838 38.7952 34.7275 38.6403 34.1005C38.4855 33.4735 38.1712 32.8972 37.7282 32.4273C37.2852 31.9575 36.7283 31.61 36.1115 31.4185C36.4565 31.0207 36.6953 30.5423 36.8056 30.0275C36.916 29.5127 36.8944 28.9783 36.7427 28.4742C36.5911 27.97 36.3145 27.5124 35.9384 27.1439C35.5623 26.7753 35.0992 26.5079 34.5921 26.3665C34.789 26.0658 34.9186 25.7262 34.9722 25.3707C35.0257 25.0153 35.0019 24.6526 34.9023 24.3072C34.8027 23.9619 34.6298 23.6421 34.3952 23.3698C34.1607 23.0975 33.8701 22.8789 33.5434 22.7293C33.6901 22.4435 33.7609 22.1249 33.7489 21.8039C33.737 21.4829 33.6427 21.1704 33.4752 20.8963C33.3077 20.6223 33.0726 20.3959 32.7923 20.2389C32.5121 20.0819 32.1962 19.9996 31.875 19.9999H29.375C29.0538 19.9996 28.738 20.0819 28.4579 20.2389C28.1777 20.3959 27.9426 20.6222 27.775 20.8962C27.6075 21.1702 27.5133 21.4827 27.5013 21.8036C27.4893 22.1245 27.56 22.4431 27.7066 22.7289C27.3799 22.8785 27.0893 23.0971 26.8548 23.3694C26.6202 23.6418 26.4473 23.9615 26.3477 24.3068C26.2481 24.6522 26.2243 25.015 26.2778 25.3703C26.3314 25.7258 26.461 26.0654 26.6579 26.3661C26.1507 26.5076 25.6875 26.775 25.3114 27.1436C24.9354 27.5122 24.6587 27.97 24.5071 28.4743C24.3555 28.9785 24.3341 29.513 24.4445 30.0278C24.5551 30.5427 24.7941 31.0212 25.1392 31.4189C24.6417 31.5728 24.1819 31.829 23.7891 32.171C23.6641 32.2799 23.5876 32.434 23.5762 32.5994C23.5706 32.6813 23.5812 32.7635 23.6073 32.8413C23.6335 32.919 23.6747 32.991 23.7287 33.0528C23.7826 33.1146 23.8481 33.1653 23.9216 33.2018C23.9952 33.2384 24.0752 33.26 24.157 33.2657C24.3224 33.277 24.4855 33.2221 24.6105 33.1132H24.6107ZM29.375 21.2499H31.875C32.0408 21.2499 32.1998 21.3157 32.317 21.4329C32.4341 21.5501 32.5 21.7091 32.5 21.8749C32.5 22.0406 32.4341 22.1996 32.317 22.3168C32.1998 22.434 32.0408 22.4999 31.875 22.4999H29.375C29.2092 22.4999 29.0502 22.434 28.933 22.3168C28.8159 22.1996 28.75 22.0406 28.75 21.8749C28.75 21.7091 28.8159 21.5501 28.933 21.4329C29.0502 21.3157 29.2092 21.2499 29.375 21.2499ZM28.75 23.7499H32.5C32.8315 23.7499 33.1495 23.8816 33.3839 24.116C33.6183 24.3504 33.75 24.6684 33.75 24.9999C33.75 25.3314 33.6183 25.6493 33.3839 25.8838C33.1495 26.1182 32.8315 26.2499 32.5 26.2499H28.75C28.4185 26.2499 28.1005 26.1182 27.8661 25.8838C27.6317 25.6493 27.5 25.3314 27.5 24.9999C27.5 24.6684 27.6317 24.3504 27.8661 24.116C28.1005 23.8816 28.4185 23.7499 28.75 23.7499ZM27.5 27.4999H33.75C34.1376 27.5003 34.5155 27.6208 34.832 27.8446C35.1484 28.0684 35.3879 28.3846 35.5175 28.7499H29.375C29.2092 28.7499 29.0502 28.8157 28.933 28.9329C28.8159 29.0501 28.75 29.2091 28.75 29.3749C28.75 29.5407 28.8159 29.6996 28.933 29.8168C29.0502 29.934 29.2092 29.9999 29.375 29.9999H35.5175C35.3879 30.3652 35.1484 30.6814 34.832 30.9052C34.5155 31.1289 34.1376 31.2494 33.75 31.2499H27.5C27.0027 31.2499 26.5258 31.0523 26.1741 30.7007C25.8226 30.3491 25.625 29.8721 25.625 29.3749C25.625 28.8776 25.8226 28.4007 26.1741 28.049C26.5258 27.6975 27.0027 27.4999 27.5 27.4999Z" fill="#4E580F" fill-opacity="0.8"/>
<path d="M31.2336 39.3707C31.2692 39.2183 31.2463 39.0582 31.1694 38.9219C31.0926 38.7856 30.9674 38.6831 30.8187 38.6346C30.7132 38.6001 28.4124 37.8637 26.3242 38.2258C25.5514 36.2289 23.6266 34.6043 23.525 34.5197C23.4127 34.4261 23.2711 34.3749 23.1249 34.3749C22.9788 34.3749 22.8372 34.4261 22.7249 34.5197C22.6326 34.5965 20.6438 36.2723 19.8935 38.3043C17.8142 37.9556 15.5502 38.6793 15.4311 38.7184C15.2824 38.7669 15.1572 38.8694 15.0804 39.0057C15.0036 39.1421 14.9807 39.3022 15.0163 39.4546C15.0503 39.6007 15.8409 42.8985 17.9168 44.3175C16.8424 46.4043 17.2817 49.3331 17.3033 49.4714C17.3263 49.6186 17.4011 49.7528 17.5143 49.8497C17.6274 49.9467 17.7715 50 17.9205 50C17.9339 50 17.9475 50 17.961 49.9987C18.107 49.9893 21.3048 49.7643 23.0908 48.107C24.8766 49.7641 28.0746 49.9893 28.2205 49.9987C28.2341 49.9996 28.2476 50 28.261 50C28.41 50 28.5541 49.9466 28.6673 49.8497C28.7804 49.7528 28.8553 49.6185 28.8782 49.4714C28.8993 49.3357 29.3431 46.3776 28.2498 44.2895C30.3879 42.903 31.1991 39.5189 31.2336 39.3707ZM18.4734 48.6823C18.3882 47.5129 18.4526 45.4995 19.3556 44.3807C20.0299 43.5452 21.018 42.7343 22.1113 43.1815C21.8029 43.5919 21.6102 44.0775 21.5532 44.5878C21.4635 45.4048 21.7135 46.2611 22.2945 47.1398C21.2606 48.1543 19.4175 48.5443 18.4734 48.6823ZM20.9867 41.8504C20.1617 41.9928 19.3733 42.4794 18.6387 43.2962C17.4121 42.4753 16.6988 40.6732 16.4001 39.7459C17.5485 39.4725 19.5615 39.2074 20.8214 39.9126C21.621 40.3602 22.4725 41.0555 22.4985 41.9929C22.0164 41.811 21.4943 41.7619 20.9867 41.8504ZM21.432 38.8219C21.3227 38.7607 21.2107 38.7049 21.0961 38.6545C21.5566 37.4733 22.5659 36.3875 23.1274 35.8443C24.0004 36.6856 25.3921 38.3347 25.3921 39.7915C25.3921 41.315 24.8209 42.225 23.7318 42.4595C23.7271 42.4548 23.7227 42.4499 23.7178 42.4454C23.8552 41.4821 23.5951 40.0328 21.4319 38.8219H21.432ZM27.7042 48.6854C26.5363 48.5146 24.5671 48.015 23.6622 46.8937C23.0261 46.1057 22.7266 45.3554 22.7959 44.724C22.8316 44.411 22.9568 44.1149 23.1566 43.8712C23.583 44.4881 24.2286 44.9191 24.9619 45.0764C25.1795 45.1221 25.4012 45.1449 25.6235 45.1444C26.1399 45.1364 26.6507 45.035 27.1308 44.8448C27.7865 46.0631 27.7691 47.7885 27.704 48.6854H27.7042ZM27.4203 43.331C26.5209 43.8345 25.3629 44.2106 24.5227 43.5221C24.9364 43.3623 25.3107 43.1147 25.6196 42.7964C26.2984 42.095 26.643 41.084 26.643 39.7915C26.643 39.6743 26.6352 39.5583 26.6241 39.4422C27.8064 39.2573 29.115 39.4914 29.8492 39.666C29.5339 40.6419 28.7629 42.5794 27.4202 43.331H27.4203Z" fill="#4E580F" fill-opacity="0.8"/>
<path d="M45.625 29.9992C45.7908 29.9992 45.9498 29.9333 46.067 29.8162C46.1841 29.699 46.25 29.54 46.25 29.3743V24.9998C46.25 24.834 46.1841 24.6751 46.067 24.5579C45.9498 24.4407 45.7908 24.3749 45.625 24.3749C45.4592 24.3749 45.3002 24.4407 45.183 24.5579C45.0659 24.6751 45 24.834 45 24.9998V29.3743C45 29.54 45.0659 29.699 45.183 29.8162C45.3002 29.9333 45.4592 29.9992 45.625 29.9992Z" fill="#4E580F" fill-opacity="0.8"/>
<path d="M45.625 34.3745C45.7908 34.3745 45.9498 34.3086 46.067 34.1915C46.1841 34.0743 46.25 33.9153 46.25 33.7496V31.8748C46.25 31.709 46.1841 31.5501 46.067 31.4329C45.9498 31.3157 45.7908 31.2499 45.625 31.2499C45.4592 31.2499 45.3002 31.3157 45.183 31.4329C45.0659 31.5501 45 31.709 45 31.8748V33.7496C45 33.9153 45.0659 34.0743 45.183 34.1915C45.3002 34.3086 45.4592 34.3745 45.625 34.3745Z" fill="#4E580F" fill-opacity="0.8"/>
<path d="M43.125 35.6241C43.2908 35.6241 43.4498 35.5583 43.567 35.4411C43.6841 35.3239 43.75 35.165 43.75 34.9992V29.9998C43.75 29.834 43.6841 29.6751 43.567 29.5579C43.4498 29.4407 43.2908 29.3749 43.125 29.3749C42.9592 29.3749 42.8002 29.4407 42.683 29.5579C42.5659 29.6751 42.5 29.834 42.5 29.9998V34.9992C42.5 35.165 42.5659 35.3239 42.683 35.4411C42.8002 35.5583 42.9592 35.6241 43.125 35.6241Z" fill="#4E580F" fill-opacity="0.8"/>
<path d="M48.125 35.6241C48.2908 35.6241 48.4498 35.5583 48.567 35.4411C48.6841 35.3239 48.75 35.165 48.75 34.9992V29.9998C48.75 29.834 48.6841 29.6751 48.567 29.5579C48.4498 29.4407 48.2908 29.3749 48.125 29.3749C47.9592 29.3749 47.8002 29.4407 47.683 29.5579C47.5659 29.6751 47.5 29.834 47.5 29.9998V34.9992C47.5 35.165 47.5659 35.3239 47.683 35.4411C47.8002 35.5583 47.9592 35.6241 48.125 35.6241Z" fill="#4E580F" fill-opacity="0.8"/>
<path d="M43.125 28.1247C43.4702 28.1247 43.75 27.8449 43.75 27.4998C43.75 27.1547 43.4702 26.8749 43.125 26.8749C42.7798 26.8749 42.5 27.1547 42.5 27.4998C42.5 27.8449 42.7798 28.1247 43.125 28.1247Z" fill="#4E580F" fill-opacity="0.8"/>
<path d="M27.5 35.6247C27.8452 35.6247 28.125 35.3449 28.125 34.9998C28.125 34.6547 27.8452 34.3749 27.5 34.3749C27.1548 34.3749 26.875 34.6547 26.875 34.9998C26.875 35.3449 27.1548 35.6247 27.5 35.6247Z" fill="#4E580F" fill-opacity="0.8"/>
<path d="M48.125 28.1247C48.4702 28.1247 48.75 27.8449 48.75 27.4998C48.75 27.1547 48.4702 26.8749 48.125 26.8749C47.7798 26.8749 47.5 27.1547 47.5 27.4998C47.5 27.8449 47.7798 28.1247 48.125 28.1247Z" fill="#4E580F" fill-opacity="0.8"/>
<path d="M48.125 25.6247C48.4702 25.6247 48.75 25.3449 48.75 24.9998C48.75 24.6547 48.4702 24.3749 48.125 24.3749C47.7798 24.3749 47.5 24.6547 47.5 24.9998C47.5 25.3449 47.7798 25.6247 48.125 25.6247Z" fill="#4E580F" fill-opacity="0.8"/>
<path d="M43.125 25.6247C43.4702 25.6247 43.75 25.3449 43.75 24.9998C43.75 24.6547 43.4702 24.3749 43.125 24.3749C42.7798 24.3749 42.5 24.6547 42.5 24.9998C42.5 25.3449 42.7798 25.6247 43.125 25.6247Z" fill="#4E580F" fill-opacity="0.8"/>
<path d="M45.625 23.1245C45.9702 23.1245 46.25 22.8447 46.25 22.4996C46.25 22.1544 45.9702 21.8746 45.625 21.8746C45.2798 21.8746 45 22.1544 45 22.4996C45 22.8447 45.2798 23.1245 45.625 23.1245Z" fill="#4E580F" fill-opacity="0.8"/>
<path d="M54.375 43.7498H46.25V42.4235C47.327 42.1552 48.125 41.2103 48.125 40.0891C48.125 39.0005 46.6112 36.6126 46.1473 35.9066C46.0905 35.82 46.0129 35.7489 45.9217 35.6997C45.8305 35.6505 45.7286 35.6248 45.625 35.6248C45.5214 35.6248 45.4194 35.6505 45.3282 35.6997C45.237 35.7489 45.1595 35.82 45.1027 35.9066C44.6387 36.6126 43.125 39.0003 43.125 40.0891C43.125 41.2103 43.923 42.1552 45 42.4235V43.7498H36.875C36.7092 43.7498 36.5502 43.8157 36.433 43.9329C36.3159 44.0501 36.25 44.2091 36.25 44.3748C36.2494 45.2746 36.4659 46.1612 36.8813 46.9592C36.9032 47.1202 36.987 47.2663 37.1149 47.3665C37.6209 48.1722 38.323 48.8363 39.1555 49.2969C39.9879 49.7574 40.9236 49.9993 41.875 49.9998H49.375C50.3264 49.9993 51.262 49.7574 52.0945 49.2969C52.927 48.8363 53.6291 48.1722 54.1351 47.3665C54.263 47.2663 54.3468 47.1202 54.3687 46.9592C54.7841 46.1612 55.0006 45.2746 55 44.3748C55 44.2091 54.9341 44.0501 54.817 43.9329C54.6997 43.8157 54.5408 43.7498 54.375 43.7498ZM44.375 40.0891C44.375 39.6968 44.9576 38.5366 45.625 37.4251C46.2924 38.5361 46.875 39.6962 46.875 40.0891C46.875 40.7291 46.3142 41.2498 45.625 41.2498C44.9358 41.2498 44.375 40.7291 44.375 40.0891ZM53.3265 46.2498H43.125C42.9592 46.2498 42.8002 46.3157 42.683 46.4329C42.5659 46.5501 42.5 46.7091 42.5 46.8748C42.5 47.0406 42.5659 47.1996 42.683 47.3168C42.8002 47.434 42.9592 47.4998 43.125 47.4998H52.4327C51.6169 48.3015 50.5187 48.7504 49.375 48.7498H41.875C40.7312 48.7504 39.6331 48.3015 38.8173 47.4998H40.625C40.7908 47.4998 40.9497 47.434 41.067 47.3168C41.1841 47.1996 41.25 47.0406 41.25 46.8748C41.25 46.7091 41.1841 46.5501 41.067 46.4329C40.9497 46.3157 40.7908 46.2498 40.625 46.2498H37.9235C37.7348 45.8547 37.607 45.4333 37.5445 44.9998H53.7055C53.643 45.4333 53.5152 45.8547 53.3265 46.2498Z" fill="#4E580F" fill-opacity="0.8"/>
</g>
</svg>
