<svg width="70" height="70" viewBox="0 0 70 70" fill="none" xmlns="http://www.w3.org/2000/svg">
<circle cx="35" cy="35" r="35" fill="#F6F6DE"/>
<g clip-path="url(#clip0_63_171)">
<path d="M25.5927 38.6297H24.1617V36.5786C24.1617 36.2557 23.9002 35.9939 23.5773 35.9939C23.2541 35.9939 22.9926 36.2557 22.9926 36.5786V38.6297H19.1266V34.6923C19.1266 33.72 19.5581 32.8097 20.3101 32.1938C21.03 31.6048 21.8372 30.9289 22.1933 30.6301C22.6483 30.7192 22.9926 31.1212 22.9926 31.6018V34.24C22.9926 34.5629 23.2541 34.8248 23.5773 34.8248C23.9002 34.8248 24.1617 34.5629 24.1617 34.24V31.6018C24.1617 30.411 23.193 29.442 22.0023 29.442C21.8643 29.442 21.731 29.4908 21.6254 29.5797C21.6144 29.5888 20.5154 30.5151 19.5694 31.289C18.5449 32.1276 17.9575 33.3681 17.9575 34.6923V38.6294H16.7572C16.438 38.6294 16.1777 38.8857 16.1728 39.2049C16.1722 39.2177 16.1719 39.2302 16.1719 39.2428V52.8401C16.1719 54.031 17.1408 54.9999 18.3316 54.9999H24.0186C25.2094 54.9999 26.178 54.031 26.178 52.8401V39.2428C26.178 39.2302 26.1777 39.2177 26.1773 39.2049C26.1722 38.8857 25.9119 38.6297 25.5927 38.6297ZM25.0088 39.7988V42.0427H19.7037C19.3808 42.0427 19.1193 42.3046 19.1193 42.6275C19.1193 42.9504 19.3808 43.2122 19.7037 43.2122H25.0088V45.4683H17.3413V39.7988H25.0088ZM18.4967 53.8305C17.8595 53.8305 17.3413 53.3122 17.3413 52.6751V46.6378H25.0088V52.6751C25.0088 53.3122 24.4904 53.8305 23.8531 53.8305H18.4967Z" fill="#4E580F" fill-opacity="0.8"/>
<path d="M51.4487 40.1188C51.2277 39.8836 50.8578 39.8716 50.6223 40.0926C50.3866 40.3136 50.3748 40.6834 50.5957 40.919C51.908 42.3179 52.6306 44.1453 52.6306 46.0646C52.6306 50.2122 49.256 53.5869 45.108 53.5869C40.9601 53.5869 37.5855 50.2122 37.5855 46.0646C37.5855 41.9166 40.9601 38.542 45.108 38.542C46.4957 38.542 47.8513 38.9226 49.0283 39.6428C49.3039 39.8112 49.6637 39.7246 49.8322 39.4493C50.0006 39.1737 49.9139 38.8139 49.6387 38.6454C48.2779 37.8126 46.7114 37.3726 45.1084 37.3726C40.3155 37.3726 36.4163 41.2718 36.4163 46.0646C36.4163 50.8571 40.3155 54.7563 45.1084 54.7563C49.9008 54.7563 53.8001 50.8571 53.8001 46.0646C53.8001 43.8469 52.9648 41.7354 51.4487 40.1188Z" fill="#4E580F" fill-opacity="0.8"/>
<path d="M45.1084 39.7096C41.6043 39.7096 38.7534 42.5602 38.7534 46.0646C38.7534 49.5686 41.604 52.4193 45.1084 52.4193C48.6123 52.4193 51.463 49.5686 51.463 46.0646C51.463 42.5602 48.6123 39.7096 45.1084 39.7096ZM45.1084 51.2498C42.2488 51.2498 39.9228 48.9238 39.9228 46.0646C39.9228 43.2051 42.2488 40.879 45.1084 40.879C47.9675 40.879 50.2936 43.2051 50.2936 46.0646C50.2936 48.9238 47.9675 51.2498 45.1084 51.2498Z" fill="#4E580F" fill-opacity="0.8"/>
<path d="M39.6393 22.7831C39.6393 18.4914 36.1477 14.9999 31.8561 14.9999C27.5644 14.9999 24.0729 18.4914 24.0729 22.7831C24.0729 24.6749 25.4462 27.0168 28.1561 29.7506C28.1506 29.7829 28.1473 29.8161 28.1473 29.85V51.4825C28.1473 53.3736 29.6857 54.9123 31.5772 54.9123H31.7429C33.6344 54.9123 35.173 53.3736 35.173 51.4825V41.2944C35.173 40.9716 34.9112 40.7097 34.5883 40.7097C34.2652 40.7097 34.0036 40.9716 34.0036 41.2944V51.4825C34.0036 52.7288 32.9895 53.7428 31.7429 53.7428H31.5772C30.3305 53.7428 29.3164 52.7288 29.3164 51.4825V35.2678H34.0036V38.9559C34.0036 39.2788 34.2652 39.5406 34.5883 39.5406C34.9112 39.5406 35.173 39.2788 35.173 38.9559V30.1302C38.136 27.2322 39.6393 24.7607 39.6393 22.7831ZM25.2423 22.7831C25.2423 19.1362 28.2092 16.1693 31.8561 16.1693C35.503 16.1693 38.4698 19.1362 38.4698 22.7831C38.4698 24.3819 37.0199 26.6805 34.3848 29.2653H34.3027L34.2398 26.5672C34.2322 26.2447 33.9682 25.9883 33.6416 25.9966C33.3188 26.0039 33.0634 26.2718 33.071 26.5944L33.133 29.2653H32.4408V24.0725C32.4408 23.7496 32.179 23.4878 31.8561 23.4878C31.5332 23.4878 31.2713 23.7496 31.2713 24.0725V29.2653H30.6372L30.5762 26.5675C30.5685 26.2447 30.2997 25.9889 29.9784 25.9963C29.6555 26.0036 29.3997 26.2712 29.407 26.5941L29.4678 29.2653H29.3271C26.6912 26.6799 25.2423 24.3834 25.2423 22.7831ZM29.3164 34.0185V30.4347H34.0036V34.0185H29.3164Z" fill="#4E580F" fill-opacity="0.8"/>
<path d="M42.2772 29.6816L41.452 32.0559C41.3788 32.2661 41.4316 32.4995 41.5875 32.6582C41.7441 32.8167 41.9766 32.8728 42.1878 32.8029L44.5746 32.0137L46.5777 33.5326C46.6813 33.611 46.8057 33.6513 46.9309 33.6513C47.0199 33.6513 47.1097 33.6309 47.1923 33.5893C47.3913 33.4899 47.5168 33.286 47.5155 33.0635L47.5024 30.5498L49.566 29.1139C49.7485 28.9867 49.8431 28.767 49.8102 28.5469C49.777 28.3269 49.6216 28.1447 49.4098 28.077L47.0151 27.3125L46.287 24.9065C46.2225 24.6935 46.0428 24.5354 45.8234 24.4991C45.6037 24.4624 45.3824 24.5537 45.2527 24.7344L43.7857 26.776L41.2723 26.7247C41.0538 26.7199 40.8441 26.8422 40.7416 27.0399C40.6391 27.2374 40.6573 27.476 40.7892 27.6555L42.2772 29.6816ZM44.0692 27.9515C44.2627 27.9552 44.4437 27.8642 44.5556 27.708L45.5109 26.3789L45.9848 27.9454C46.0403 28.1298 46.1832 28.2747 46.3666 28.3333L47.9254 28.8307L46.5823 29.7655C46.4242 29.8753 46.3305 30.056 46.3315 30.2486L46.34 31.8849L45.036 30.8962C44.9329 30.8184 44.8087 30.7774 44.6826 30.7774C44.6213 30.7774 44.559 30.7872 44.4992 30.807L42.9452 31.321L43.4827 29.7749C43.5459 29.5934 43.5156 29.392 43.4015 29.237L42.4329 27.918L44.0692 27.9515Z" fill="#4E580F" fill-opacity="0.8"/>
<path d="M47.5309 21.4266L49.1339 21.672L49.8404 23.1311C49.9371 23.3313 50.1395 23.4591 50.3623 23.461H50.3665C50.5875 23.461 50.7895 23.3365 50.889 23.1391L51.6174 21.6906L53.2239 21.4697C53.4442 21.4394 53.6285 21.2866 53.6987 21.0754C53.7692 20.8643 53.7137 20.6317 53.5553 20.4752L52.403 19.3346L52.6892 17.7387C52.7283 17.5199 52.6401 17.2975 52.4609 17.1654C52.2818 17.0332 52.0431 17.014 51.8454 17.1162L50.4047 17.8599L48.9752 17.0943C48.779 16.9893 48.5403 17.0049 48.3591 17.1342C48.1781 17.2636 48.0862 17.4845 48.1223 17.7042L48.3841 19.3041L47.2144 20.427C47.0538 20.5811 46.9949 20.813 47.0621 21.0251C47.1292 21.2371 47.3108 21.3928 47.5309 21.4266ZM49.4159 19.9348C49.5545 19.8015 49.6188 19.6083 49.5877 19.4185L49.4675 18.6844L50.1236 19.0356C50.2933 19.1262 50.4968 19.1277 50.6677 19.0395L51.3291 18.6984L51.1975 19.4307C51.1637 19.6202 51.225 19.814 51.3617 19.9495L51.8909 20.4728L51.1536 20.5744C50.9628 20.6006 50.7974 20.7187 50.7108 20.8908L50.3762 21.5554L50.0522 20.8856C49.9683 20.7126 49.8047 20.5918 49.6142 20.5625L48.8787 20.4499L49.4159 19.9348Z" fill="#4E580F" fill-opacity="0.8"/>
</g>
<defs>
<clipPath id="clip0_63_171">
<rect width="40" height="40" fill="white" transform="translate(15 14.9999)"/>
</clipPath>
</defs>
</svg>
