<svg width="70" height="70" viewBox="0 0 70 70" fill="none" xmlns="http://www.w3.org/2000/svg">
<circle cx="35" cy="35" r="35" fill="#F6F6DE"/>
<g clip-path="url(#clip0_200_19)">
<path d="M35.9062 53.8264C36.3087 50.5514 36.1294 47.2632 35.3737 44.0532C34.7337 41.3326 34.5269 38.5407 34.7587 35.7551L35.0256 32.552L33.7806 32.4482L33.5137 35.6514C33.27 38.5682 33.4869 41.4914 34.1569 44.3401C34.8787 47.4051 35.05 50.5457 34.6656 53.6739L35.9062 53.8264Z" fill="#4E580F" fill-opacity="0.8"/>
<path d="M29.4437 23.7536C28.2244 23.618 27.3119 23.1305 26.6537 22.2617C25.0212 20.1073 25.61 16.3892 25.6162 16.3517L24.3831 16.1473C24.3544 16.3205 23.6975 20.4255 25.6544 23.0123C26.4106 24.0123 27.445 24.648 28.735 24.9073C28.5331 26.6317 27.3756 28.1042 25.7087 28.6848L25.1231 28.2898L24.1881 24.8967L22.9831 25.2286L23.9794 28.8442C24.0187 28.988 24.1087 29.113 24.2319 29.1961L28.4769 32.0592C28.6431 32.1711 28.7444 32.3567 28.7487 32.5567C28.7544 32.7705 28.6556 32.9617 28.4781 33.0823C28.3 33.2017 28.085 33.223 27.8894 33.138L25.9906 32.3211C25.7606 32.223 25.495 32.2698 25.3137 32.4417C25.1325 32.613 25.0706 32.8761 25.1569 33.1105L27.6294 39.8398L27.7125 40.1267C28.0237 41.198 27.6269 41.3905 27.4962 41.4542C27.2337 41.583 26.7606 41.3348 26.5825 41.0498C26.4575 40.8498 26.3675 40.5473 26.2812 40.2548C26.2387 40.1117 26.1962 39.9711 26.1506 39.8386L25.0706 36.7267C25.0481 36.6617 24.9769 36.4261 24.9037 36.1898C24.8256 35.9348 24.7469 35.6798 24.7225 35.6086L23.5419 36.0186C23.5644 36.0836 23.6356 36.3192 23.7087 36.5555C23.7869 36.8105 23.8656 37.0655 23.8894 37.1361L24.9694 40.248C25.0087 40.3623 25.0456 40.4855 25.0825 40.6105C25.165 40.8873 25.2569 41.1917 25.3944 41.4755L25.8394 42.713C25.8875 42.8873 25.8187 43.0723 25.6687 43.173C25.5281 43.2673 25.3919 43.2492 25.3212 43.2286C25.2519 43.2092 25.1244 43.1536 25.0762 43.058L22.7975 36.5117L21.6169 36.923L23.4744 42.2511L23.2581 42.3317C23.1112 42.3711 22.9531 42.3286 22.8475 42.2217L21.2456 38.0742L20.0812 38.5261L21.485 42.1592C21.1087 42.2017 20.885 42.0286 20.7831 41.913L19.0656 35.6555C19.0137 35.4642 18.9556 35.2698 18.8975 35.0717C18.5487 33.8923 18.1881 32.673 18.8219 31.733C18.8869 31.6367 18.9562 31.5448 19.025 31.4536C19.2331 31.1792 19.4694 30.8673 19.5981 30.4523C19.7444 29.9786 19.7719 29.493 19.78 29.123C19.7981 28.2723 19.6969 27.4186 19.4862 26.6542C19.4769 26.6205 19.4656 26.5886 19.4506 26.5567L17.4412 22.2361L16.3075 22.7636L18.295 27.0355C18.4644 27.6723 18.545 28.3836 18.53 29.0973C18.5237 29.3861 18.5044 29.7586 18.4044 30.0823C18.3406 30.2873 18.1962 30.4786 18.0287 30.6992C17.945 30.8092 17.8619 30.9198 17.7844 31.0348C17.1712 31.9455 17.1481 32.9423 17.3112 33.888C17.1369 34.4673 16.9025 35.463 16.9025 36.118V48.513C16.9031 49.8855 16.875 53.7448 16.875 53.7455L18.125 53.7542C18.125 53.7542 18.1531 49.888 18.1531 48.513V37.0517L19.6087 42.358C19.6256 42.4186 19.6512 42.4761 19.685 42.5292C19.9281 42.908 20.5181 43.4223 21.3706 43.4223C21.6181 43.4223 21.8887 43.3742 22.1781 43.2723C22.4581 43.4711 22.7925 43.5892 23.1506 43.5892C23.3119 43.5892 23.4769 43.5673 23.6419 43.5211L23.8862 43.4311L23.92 43.5273C24.125 43.9717 24.5131 44.3017 24.9844 44.4336C25.1331 44.4755 25.2844 44.4961 25.4362 44.4961C25.7631 44.4961 26.0875 44.3998 26.3656 44.213C26.8587 43.8817 27.1262 43.3217 27.0906 42.7217C27.1712 42.7323 27.2525 42.7398 27.3337 42.7398C27.5756 42.7398 27.8162 42.6905 28.0437 42.5798C28.595 42.3111 29.44 41.5911 28.9131 39.7798L26.8312 34.0448L27.3962 34.288C27.9825 34.5386 28.6494 34.4773 29.1794 34.1186C29.7087 33.7611 30.015 33.1661 30 32.5286C29.9862 31.9242 29.6787 31.3623 29.1781 31.0242L26.9375 29.5136C28.6275 28.6186 29.7719 26.9442 29.9869 25.0305C35.6975 25.0011 41.505 16.9686 41.7581 16.613L40.7412 15.8867C40.6812 15.9711 34.6581 24.3461 29.4437 23.7536Z" fill="#4E580F" fill-opacity="0.8"/>
<path d="M42.5706 26.1681C43.3256 26.1681 44.0631 25.8788 44.5794 25.3219C44.9887 24.88 45.2444 24.3294 45.32 23.7294L46.245 16.3269L45.005 16.1719L44.08 23.5744C44.0375 23.9131 43.8931 24.2238 43.6631 24.4725C43.1744 25 42.3012 25.0738 41.6331 24.6419L38.4644 22.5994L37.7869 23.6506L39.4169 24.7006C39.5375 26.8738 40.8544 28.7819 42.8225 29.6719L40.9906 30.7856C40.475 31.0994 40.1419 31.6463 40.0987 32.2481C40.0531 32.8863 40.3319 33.4944 40.8437 33.8763C41.3556 34.2588 42.02 34.3525 42.6169 34.1281L43.1925 33.9119L40.9387 39.2606L40.8425 39.5425C40.2319 41.3269 41.0419 42.0863 41.5794 42.3806C41.8269 42.5156 42.095 42.5756 42.3644 42.5756C42.4156 42.5756 42.4669 42.5694 42.5181 42.565C42.4531 43.1475 42.695 43.7313 43.18 44.0913C43.4706 44.3069 43.8187 44.4188 44.1731 44.4188C44.2987 44.4188 44.425 44.405 44.55 44.3763C45.0262 44.2663 45.4287 43.9544 45.6806 43.4656L45.6962 43.4269L45.9825 43.5475C46.1512 43.6031 46.325 43.6294 46.4969 43.6294C46.8212 43.6294 47.135 43.5263 47.4069 43.3506C47.7294 43.4819 48.0306 43.54 48.305 43.54C49.1056 43.54 49.6825 43.0781 49.9325 42.7244C49.9687 42.6731 49.9975 42.6169 50.0169 42.5569L51.28 38.6781V53.75H52.53V36.1181C52.53 36.1088 52.5269 35.3913 52.515 34.9225C52.865 33.7913 53.0906 32.5156 52.3719 31.3325C52.3 31.2138 52.2219 31.0994 52.1437 30.985C51.9869 30.7563 51.8519 30.5588 51.7975 30.35C51.7119 30.0225 51.71 29.6494 51.7181 29.36C51.7362 28.6275 51.8569 27.9025 52.0594 27.2831L53.7144 22.7125L52.5387 22.2863L50.8775 26.8756C50.6312 27.6275 50.49 28.4756 50.4681 29.3269C50.4581 29.6981 50.4631 30.185 50.5875 30.6644C50.6962 31.0844 50.9169 31.4069 51.1119 31.6919C51.1769 31.7863 51.2425 31.8813 51.3031 31.9806C51.79 32.7825 51.5981 33.7081 51.2787 34.6913L51.2544 34.6938C51.2556 34.7063 51.2569 34.7325 51.2581 34.7563C51.1981 34.9394 51.135 35.1238 51.0706 35.3106C51.0031 35.5063 50.9356 35.6988 50.8744 35.8875L48.8656 42.055C48.7544 42.1688 48.5225 42.3288 48.1531 42.27L49.7256 38.7075L48.5819 38.2019L46.7862 42.27C46.6762 42.3719 46.5206 42.4119 46.4212 42.3788L46.1619 42.2688L48.2644 37.035L47.105 36.5688L44.5444 42.9438C44.4669 43.0925 44.3369 43.1419 44.2669 43.1588C44.1962 43.1731 44.0569 43.1869 43.9225 43.0869C43.7769 42.9794 43.7169 42.7906 43.7569 42.6625L44.2931 41.3619L44.2844 41.3581C44.4237 41.0925 44.5369 40.8144 44.6275 40.5556C44.6706 40.4319 44.7131 40.31 44.7581 40.1981L45.9831 37.14C46.0106 37.0706 46.1006 36.8194 46.1906 36.5688C46.2744 36.3363 46.3575 36.1031 46.3831 36.0394L45.2225 35.5756C45.195 35.645 45.105 35.8963 45.015 36.1469C44.9312 36.3794 44.8481 36.6125 44.8225 36.6756L43.5975 39.7338C43.5456 39.8631 43.4975 40.0019 43.4481 40.1431C43.3475 40.4313 43.2431 40.7294 43.1087 40.9231C42.9181 41.1975 42.4325 41.4206 42.1775 41.2844C42.0506 41.215 41.6631 41.0031 42.0244 39.9469L44.9075 33.0594C45.0037 32.8294 44.955 32.5631 44.7819 32.3838C44.6094 32.2038 44.345 32.1431 44.1119 32.2313L42.1769 32.9575C41.9762 33.0338 41.7631 33.0025 41.5906 32.8744C41.4194 32.7463 41.3294 32.55 41.3437 32.3369C41.3581 32.1381 41.4687 31.9569 41.6394 31.8531L46.0144 29.1925C46.1419 29.115 46.2369 28.9944 46.2837 28.8525L47.4487 25.2881L46.2612 24.9L45.1675 28.245L44.1825 28.8444L43.7837 28.7119C42.3175 28.2256 41.2381 27.0488 40.8344 25.615L40.955 25.6925C41.4506 26.0119 42.0156 26.1681 42.5706 26.1681Z" fill="#4E580F" fill-opacity="0.8"/>
<path d="M23.125 46.8751H24.375V53.7493H23.125V46.8751Z" fill="#4E580F" fill-opacity="0.8"/>
<path d="M45.625 46.8751H46.875V53.7493H45.625V46.8751Z" fill="#4E580F" fill-opacity="0.8"/>
</g>
<defs>
<clipPath id="clip0_200_19">
<rect width="40" height="40" fill="white" transform="translate(15 15.0001)"/>
</clipPath>
</defs>
</svg>
