<svg width="70" height="70" viewBox="0 0 70 70" fill="none" xmlns="http://www.w3.org/2000/svg">
<circle cx="35" cy="35" r="35" fill="#F6F6DE"/>
<g clip-path="url(#clip0_63_145)">
<mask id="mask0_63_145" style="mask-type:luminance" maskUnits="userSpaceOnUse" x="15" y="18" width="40" height="40">
<path d="M55 18H15V58H55V18Z" fill="white"/>
</mask>
<g mask="url(#mask0_63_145)">
<path d="M40 32.9788C40 33.1446 40.0659 33.3036 40.183 33.4208C40.3002 33.538 40.4592 33.6038 40.625 33.6038C40.7908 33.6038 40.9498 33.538 41.067 33.4208C41.1841 33.3036 41.25 33.1446 41.25 32.9788V31.7288C41.25 29.4157 42.7713 27.9788 45.2203 27.9788C45.7896 27.9788 46.3512 28.1113 46.8604 28.366C47.3695 28.6207 47.8124 28.9905 48.1539 29.446L53.875 37.0741C53.9745 37.2066 54.1225 37.2944 54.2866 37.3178C54.4507 37.3413 54.6174 37.2985 54.75 37.1991C54.8826 37.0996 54.9703 36.9516 54.9938 36.7874C55.0172 36.6234 54.9745 36.4567 54.875 36.3241L49.1539 28.6959C48.696 28.0851 48.1022 27.5893 47.4194 27.2478C46.7366 26.9064 45.9837 26.7287 45.2203 26.7288C42.0979 26.7288 40 28.7381 40 31.7288V32.9788Z" fill="#4E580F" fill-opacity="0.8"/>
<path d="M45.625 43.6039C45.625 43.4381 45.5592 43.2791 45.442 43.1619C45.3248 43.0447 45.1658 42.9789 45 42.9789C44.8342 42.9789 44.6752 43.0447 44.5581 43.1619C44.4409 43.2791 44.375 43.4381 44.375 43.6039V46.7289C44.375 46.8946 44.4409 47.0536 44.5581 47.1708L44.6486 47.2606C45.9538 48.5524 46.6166 49.544 46.6183 50.2078C46.6215 50.2923 46.6066 50.3765 46.5746 50.4548C46.5427 50.5331 46.4945 50.6036 46.4331 50.6619C46.1135 50.9773 45.7574 51.2534 45.3724 51.4844C44.9118 51.7634 44.4857 52.0958 44.103 52.4745C43.6269 52.9505 43.2065 53.5866 42.7616 54.2599C42.3397 54.8976 41.9043 55.5568 41.4513 56.0099C40.4919 56.9694 39.3432 56.8232 38.5677 56.5454L39.817 55.2961C39.8803 55.2327 39.9294 55.1564 39.9607 55.0724L41.8357 50.0411C41.8617 49.9713 41.8749 49.8974 41.8748 49.8229V47.9791C41.8748 47.8133 41.8089 47.6544 41.6917 47.5372C41.5745 47.42 41.4156 47.3541 41.2498 47.3541C41.084 47.3541 40.925 47.42 40.8078 47.5372C40.6906 47.6544 40.6248 47.8133 40.6248 47.9791V49.7101L38.8369 54.5079L37.0581 56.2866C36.9909 56.3538 36.9399 56.4354 36.909 56.5252C36.8781 56.615 36.8681 56.7107 36.8797 56.8049C36.8913 56.8992 36.9242 56.9896 36.976 57.0692C37.0277 57.1489 37.097 57.2157 37.1784 57.2645C37.8995 57.6972 38.7865 58.0032 39.6929 58.0031C40.1855 58.0064 40.6736 57.9097 41.1277 57.719C41.5819 57.5282 41.9927 57.2473 42.3352 56.8933C42.8776 56.351 43.3487 55.638 43.8044 54.9485C44.2136 54.3293 44.6001 53.7445 44.9868 53.3578C45.3063 53.0425 45.6625 52.7665 46.0476 52.5358C46.5081 52.2567 46.9342 51.9243 47.317 51.5456C47.4944 51.3706 47.6347 51.1616 47.7294 50.9311C47.8242 50.7007 47.8714 50.4534 47.8683 50.2043C47.8649 48.8856 46.6148 47.4591 45.625 46.4688V43.6039Z" fill="#4E580F" fill-opacity="0.8"/>
<path d="M26.875 35.5334C27.2202 35.5334 27.5 35.2536 27.5 34.9085C27.5 34.5634 27.2202 34.2836 26.875 34.2836C26.5298 34.2836 26.25 34.5634 26.25 34.9085C26.25 35.2536 26.5298 35.5334 26.875 35.5334Z" fill="#4E580F" fill-opacity="0.8"/>
<path d="M15.625 25.5H22.5V39.875C22.5 40.538 22.7634 41.1739 23.2323 41.6427C23.7011 42.1116 24.337 42.375 25 42.375C25.663 42.375 26.2989 42.1116 26.7677 41.6427C27.2366 41.1739 27.5 40.538 27.5 39.875V37.4086C27.5 37.2428 27.4341 37.0838 27.317 36.9666C27.1998 36.8494 27.0408 36.7836 26.875 36.7836C26.7092 36.7836 26.5502 36.8494 26.433 36.9666C26.3159 37.0838 26.25 37.2428 26.25 37.4086V39.875C26.25 40.2065 26.1183 40.5244 25.8839 40.7589C25.6495 40.9933 25.3315 41.125 25 41.125C24.6685 41.125 24.3505 40.9933 24.1161 40.7589C23.8817 40.5244 23.75 40.2065 23.75 39.875V19.875C23.7507 19.7095 23.8168 19.5509 23.9339 19.4339C24.0509 19.3168 24.2095 19.2507 24.375 19.25H31.25V23.625C31.25 23.7908 31.3159 23.9497 31.433 24.0669C31.5502 24.1841 31.7092 24.25 31.875 24.25C32.0408 24.25 32.1998 24.1841 32.317 24.0669C32.4341 23.9497 32.5 23.7908 32.5 23.625V19.25H33.125C33.2905 19.2507 33.4491 19.3168 33.5661 19.4339C33.6832 19.5509 33.7493 19.7095 33.75 19.875V31.125C33.75 31.6223 33.5524 32.0992 33.2009 32.4509C32.8492 32.8024 32.3723 33 31.875 33C31.3777 33 30.9008 32.8024 30.5491 32.4509C30.1976 32.0992 30 31.6223 30 31.125V28.625C30 28.1277 29.8024 27.6508 29.4509 27.2991C29.0992 26.9476 28.6223 26.75 28.125 26.75C27.6277 26.75 27.1508 26.9476 26.7991 27.2991C26.4476 27.6508 26.25 28.1277 26.25 28.625V32.4086C26.25 32.5744 26.3159 32.7334 26.433 32.8505C26.5502 32.9677 26.7092 33.0336 26.875 33.0336C27.0408 33.0336 27.1998 32.9677 27.317 32.8505C27.4341 32.7334 27.5 32.5744 27.5 32.4086V28.625C27.5 28.4592 27.5659 28.3002 27.683 28.183C27.8002 28.0659 27.9592 28 28.125 28C28.2908 28 28.4498 28.0659 28.567 28.183C28.6841 28.3002 28.75 28.4592 28.75 28.625V31.125C28.75 31.9538 29.0792 32.7487 29.6653 33.3347C30.2513 33.9208 31.0462 34.25 31.875 34.25C32.7038 34.25 33.4987 33.9208 34.0847 33.3347C34.6708 32.7487 35 31.9538 35 31.125V25.5H38.125C38.9538 25.5 39.7487 25.1708 40.3347 24.5847C40.9208 23.9987 41.25 23.2038 41.25 22.375C41.25 21.5462 40.9208 20.7513 40.3347 20.1653C39.7487 19.5792 38.9538 19.25 38.125 19.25H36.875C36.7092 19.25 36.5502 19.3159 36.433 19.4331C36.3159 19.5503 36.25 19.7092 36.25 19.875C36.25 20.0408 36.3159 20.1997 36.433 20.3169C36.5502 20.4341 36.7092 20.5 36.875 20.5H38.125C38.3713 20.5 38.6151 20.5485 38.8425 20.6427C39.07 20.737 39.2767 20.8751 39.4509 21.0492C39.6249 21.2233 39.763 21.43 39.8573 21.6575C39.9515 21.885 40 22.1288 40 22.375C40 22.6212 39.9515 22.865 39.8573 23.0925C39.763 23.32 39.6249 23.5267 39.4509 23.7008C39.2767 23.8749 39.07 24.013 38.8425 24.1073C38.6151 24.2015 38.3713 24.25 38.125 24.25H35V19.875C35 19.3777 34.8024 18.9008 34.4509 18.5492C34.0992 18.1975 33.6223 18 33.125 18H24.375C23.8777 18 23.4008 18.1975 23.0491 18.5492C22.6975 18.9008 22.5 19.3777 22.5 19.875V24.25H15.625C15.4592 24.25 15.3003 24.3159 15.1831 24.4331C15.0658 24.5503 15 24.7092 15 24.875C15 25.0408 15.0658 25.1997 15.1831 25.3169C15.3003 25.4341 15.4592 25.5 15.625 25.5Z" fill="#4E580F" fill-opacity="0.8"/>
<path d="M15.625 20.4997H20.625C20.7908 20.4997 20.9497 20.4339 21.0669 20.3167C21.1841 20.1995 21.25 20.0405 21.25 19.8748C21.25 19.7091 21.1841 19.5501 21.0669 19.4329C20.9497 19.3157 20.7908 19.2499 20.625 19.2499H15.625C15.4592 19.2499 15.3003 19.3157 15.1831 19.4329C15.0658 19.5501 15 19.7091 15 19.8748C15 20.0405 15.0658 20.1995 15.1831 20.3167C15.3003 20.4339 15.4592 20.4997 15.625 20.4997Z" fill="#4E580F" fill-opacity="0.8"/>
<path d="M44.2863 34.8539C44.6168 34.8585 46.1018 35.3177 46.3766 35.5001C46.3823 35.504 46.3881 35.5079 46.3939 35.5115L47.127 35.9785C47.1516 35.9967 47.1774 36.0132 47.2044 36.0278L54.0391 40.3811C54.1083 40.4252 54.1855 40.4553 54.2664 40.4696C54.3473 40.4838 54.4302 40.482 54.5103 40.4642C54.5905 40.4464 54.6664 40.413 54.7337 40.366C54.8009 40.3188 54.8582 40.2589 54.9023 40.1897C54.9465 40.1204 54.9765 40.0431 54.9908 39.9623C55.005 39.8814 55.0032 39.7985 54.9854 39.7184C54.9677 39.6382 54.9343 39.5624 54.8872 39.4951C54.8401 39.4278 54.7802 39.3705 54.7109 39.3264L48.0035 35.0547L46.8303 32.1217C46.7684 31.9684 46.6481 31.8459 46.496 31.781C46.3439 31.7162 46.1723 31.7142 46.0188 31.7756C45.8653 31.8371 45.7423 31.9567 45.6769 32.1086C45.6115 32.2604 45.6089 32.4321 45.6697 32.5858L46.2771 34.1044C45.5729 33.8481 44.6593 33.6038 44.2867 33.6038C43.6391 33.6021 42.9974 33.7282 42.3987 33.9752C41.7999 34.2221 41.2559 34.5848 40.7977 35.0426C40.1309 35.7052 39.147 36.6809 37.9857 37.8254C37.9841 37.827 37.9824 37.8282 37.9809 37.8298C37.9793 37.8313 37.9788 37.8322 37.9777 37.8334C37.7245 38.0829 37.4634 38.3399 37.1946 38.6043C37.0764 38.7206 37.0092 38.8789 37.0078 39.0447C37.0064 39.2105 37.0709 39.37 37.1872 39.4882C37.3034 39.6064 37.4618 39.6736 37.6276 39.6749C37.7934 39.6763 37.9529 39.6119 38.0711 39.4956C38.1888 39.3797 38.3051 39.2653 38.4197 39.1525L39.6469 40.3797L36.7662 43.2605C36.877 42.0627 36.5804 40.8625 35.9244 39.8542L34.8984 38.2833C34.8416 38.1963 34.764 38.1248 34.6726 38.0753C34.5812 38.0259 34.4789 38 34.375 38H31.25C31.1397 38 31.0313 38.0292 30.936 38.0846C30.8406 38.1401 30.7616 38.2198 30.707 38.3156C30.6524 38.4114 30.6241 38.52 30.6251 38.6303C30.626 38.7406 30.6561 38.8487 30.7123 38.9436L32.4026 41.796C32.5622 42.0635 32.6263 42.3771 32.5845 42.6858C32.5427 42.9945 32.3973 43.2798 32.1723 43.4952C32.171 43.4965 32.1698 43.498 32.1684 43.4993C32.167 43.5006 32.1654 43.502 32.1639 43.5034C32.1578 43.5095 32.1526 43.5161 32.1468 43.5224C32.1397 43.5303 32.1324 43.5377 32.1258 43.5459C32.1191 43.5541 32.1116 43.5641 32.1047 43.5733C32.0993 43.5806 32.0938 43.5877 32.0891 43.5951C32.0819 43.6057 32.0754 43.6167 32.0689 43.6276C32.065 43.6342 32.0611 43.6406 32.0573 43.6474C32.0508 43.6592 32.0451 43.6714 32.0395 43.6836C32.0366 43.6899 32.0334 43.6961 32.0306 43.7026C32.0254 43.7151 32.0209 43.7278 32.0165 43.7405C32.0141 43.7471 32.0116 43.7537 32.0095 43.7604C32.0056 43.7729 32.0026 43.7856 31.9995 43.7982C31.9977 43.8056 31.9957 43.8128 31.9941 43.8202C31.9916 43.8325 31.9899 43.845 31.9882 43.8575C31.987 43.8653 31.9856 43.8731 31.9848 43.881C31.9834 43.8938 31.983 43.9067 31.9825 43.92C31.9825 43.9267 31.9813 43.9333 31.9813 43.9399C31.9813 43.9409 31.9813 43.9417 31.9813 43.9426C31.9813 43.9571 31.9821 43.9714 31.983 43.9858C31.983 43.9918 31.983 43.9978 31.9838 44.0038C31.9952 44.1275 32.0434 44.2451 32.1221 44.3413C32.1353 44.3576 32.1493 44.3732 32.1641 44.3881L34.3438 46.5678C34.4019 46.6259 34.4708 46.6719 34.5466 46.7033C34.6224 46.7347 34.7037 46.7509 34.7858 46.7509C34.8679 46.7509 34.9491 46.7347 35.0249 46.7033C35.1008 46.6719 35.1697 46.6259 35.2277 46.5678L40.973 40.8226C41.031 40.7646 41.077 40.6956 41.1084 40.6198C41.1398 40.544 41.156 40.4627 41.156 40.3806C41.156 40.2985 41.1398 40.2173 41.1084 40.1414C41.077 40.0656 41.031 39.9967 40.973 39.9387L39.3102 38.276C40.2781 37.3206 41.0989 36.5067 41.6792 35.93C42.0215 35.5878 42.428 35.3166 42.8754 35.1319C43.3227 34.9472 43.8023 34.8528 44.2863 34.8539ZM34.7513 45.207L33.444 43.8996C33.7021 43.4903 33.842 43.0177 33.848 42.5339C33.854 42.0502 33.7259 41.5742 33.478 41.1588L32.3469 39.25H34.0366L34.8778 40.5381C35.3309 41.2379 35.5614 42.0587 35.5388 42.8921C35.5163 43.7256 35.2417 44.5327 34.7513 45.207Z" fill="#4E580F" fill-opacity="0.8"/>
<path d="M45.8334 40.0667C45.6827 39.8145 45.4698 39.6049 45.2152 39.4582C44.9605 39.3114 44.6726 39.2323 44.3787 39.2283C44.0848 39.2243 43.7948 39.2957 43.5362 39.4354C43.2777 39.5752 43.0592 39.7788 42.9016 40.0269C41.0758 42.8963 39.5922 45.0028 38.9329 45.6619C37.8184 46.7764 35.6344 47.826 33.7074 48.7526C31.1853 49.9649 29.1931 50.9225 28.782 52.1562C28.6257 52.625 28.5069 53.0571 28.4021 53.4382C28.0671 54.6569 27.8907 55.2096 27.2204 55.5449C26.8085 55.7506 25.9876 55.6644 24.9688 55.3079C24.1249 55.0122 23.2201 54.9339 22.3379 55.0803C22.2894 55.0883 22.2421 55.1021 22.1968 55.1212C21.5026 55.4146 20.7563 55.5649 20.0026 55.5632C19.2489 55.5614 18.5033 55.4075 17.8105 55.1108L17.0198 54.7714C16.7286 54.647 16.4945 54.4181 16.3636 54.1297L20.0884 53.5976C20.1365 53.5907 20.1837 53.5783 20.229 53.5605C20.4296 53.4814 25.1605 51.611 26.6568 50.3284C27.6898 49.4427 29.2284 48.0292 31.2298 46.1272C31.2893 46.0707 31.337 46.0029 31.3704 45.9279C31.4037 45.8529 31.422 45.7721 31.4241 45.69C31.4262 45.608 31.4121 45.5264 31.3826 45.4497C31.3531 45.3731 31.3089 45.303 31.2523 45.2435C31.1958 45.184 31.1281 45.1362 31.0531 45.1029C30.978 45.0696 30.8973 45.0514 30.8152 45.0492C30.7331 45.0471 30.6515 45.0612 30.5748 45.0907C30.4982 45.1201 30.4282 45.1644 30.3687 45.221C28.3827 47.1082 26.8602 48.5072 25.8432 49.3791C24.752 50.3146 21.2049 51.8286 19.8387 52.3703L15.5366 52.9852C15.3877 53.0064 15.2514 53.0807 15.1529 53.1943C15.0543 53.308 15 53.4534 15 53.6039C14.9995 54.0972 15.144 54.5799 15.4157 54.9917C15.6873 55.4036 16.074 55.7265 16.5277 55.9204L17.3176 56.2595C18.1531 56.6174 19.0515 56.8057 19.9604 56.813C20.8694 56.8204 21.7707 56.6468 22.612 56.3025C23.2652 56.2055 23.9322 56.2691 24.5554 56.4876C25.3483 56.7649 26.0407 56.9038 26.6274 56.9038C27.025 56.9142 27.4195 56.8317 27.7795 56.6629C28.9766 56.0644 29.269 55.0009 29.6077 53.7696C29.7132 53.3857 29.8223 52.9889 29.968 52.5516C30.212 51.8199 32.4505 50.7438 34.2493 49.8792C36.3647 48.8623 38.5521 47.8108 39.8171 46.5459C40.8171 45.5459 42.8398 42.4526 43.9566 40.6976C44.0002 40.6293 44.0605 40.5733 44.132 40.5351C44.2034 40.4968 44.2834 40.4776 44.3645 40.4792C44.4454 40.4807 44.5247 40.5031 44.5945 40.544C44.6644 40.585 44.7226 40.6433 44.7635 40.7132C46.3307 43.3088 50.6097 47.9867 53.9233 51.454C54.0378 51.5739 54.1952 51.6433 54.361 51.6471C54.5267 51.6508 54.6872 51.5885 54.807 51.474C54.9269 51.3595 54.9962 51.2021 55 51.0364C55.0038 50.8706 54.9416 50.7102 54.827 50.5903C50.2042 45.753 47.0102 42.0156 45.8334 40.0667Z" fill="#4E580F" fill-opacity="0.8"/>
<path d="M31.875 31.7498C32.2202 31.7498 32.5 31.47 32.5 31.1249C32.5 30.7798 32.2202 30.5 31.875 30.5C31.5298 30.5 31.25 30.7798 31.25 31.1249C31.25 31.47 31.5298 31.7498 31.875 31.7498Z" fill="#4E580F" fill-opacity="0.8"/>
<path d="M32.5 28.6246V26.1249C32.5 25.9592 32.4341 25.8002 32.317 25.683C32.1998 25.5658 32.0408 25.5 31.875 25.5C31.7092 25.5 31.5502 25.5658 31.433 25.683C31.3159 25.8002 31.25 25.9592 31.25 26.1249V28.6246C31.25 28.7904 31.3159 28.9493 31.433 29.0665C31.5502 29.1837 31.7092 29.2495 31.875 29.2495C32.0408 29.2495 32.1998 29.1837 32.317 29.0665C32.4341 28.9493 32.5 28.7904 32.5 28.6246Z" fill="#4E580F" fill-opacity="0.8"/>
<path d="M30 23.6246V21.1249C30 20.9592 29.9341 20.8002 29.817 20.683C29.6998 20.5658 29.5408 20.5 29.375 20.5C29.2092 20.5 29.0502 20.5658 28.933 20.683C28.8159 20.8002 28.75 20.9592 28.75 21.1249V23.6246C28.75 23.7904 28.8159 23.9493 28.933 24.0665C29.0502 24.1837 29.2092 24.2495 29.375 24.2495C29.5408 24.2495 29.6998 24.1837 29.817 24.0665C29.9341 23.9493 30 23.7904 30 23.6246Z" fill="#4E580F" fill-opacity="0.8"/>
<path d="M26.25 22.3749C26.25 22.2092 26.1841 22.0502 26.067 21.933C25.9498 21.8158 25.7908 21.75 25.625 21.75C25.4592 21.75 25.3002 21.8158 25.183 21.933C25.0659 22.0502 25 22.2092 25 22.3749V25.4995C25 25.6653 25.0659 25.8243 25.183 25.9414C25.3002 26.0586 25.4592 26.1245 25.625 26.1245C25.7908 26.1245 25.9498 26.0586 26.067 25.9414C26.1841 25.8243 26.25 25.6653 26.25 25.4995V22.3749Z" fill="#4E580F" fill-opacity="0.8"/>
</g>
</g>
<defs>
<clipPath id="clip0_63_145">
<rect width="40" height="40" fill="white" transform="translate(15 18)"/>
</clipPath>
</defs>
</svg>
