<svg width="70" height="70" viewBox="0 0 70 70" fill="none" xmlns="http://www.w3.org/2000/svg">
<circle cx="35" cy="35" r="35" fill="#F6F6DE"/>
<mask id="mask0_158_5" style="mask-type:luminance" maskUnits="userSpaceOnUse" x="15" y="14" width="40" height="41">
<path d="M55 14.9999H15V54.9999H55V14.9999Z" fill="white"/>
</mask>
<g mask="url(#mask0_158_5)">
<path d="M45.2803 41.1545C42.6076 41.7539 39.2813 42.4998 34.9148 42.4998C32.0255 42.4998 29.4934 41.7958 27.3797 40.4069C28.8439 40.9535 30.3927 41.2388 31.9556 41.2498C35.315 41.2498 38.9848 40.2697 42.2221 39.405C45.8402 38.4386 49.2575 37.5258 50.4024 38.5838C50.5241 38.6963 50.6855 38.7558 50.8513 38.7493C51.0169 38.7428 51.1731 38.6708 51.2856 38.549C51.3981 38.4273 51.4577 38.2658 51.4512 38.1002C51.4446 37.9346 51.3726 37.7783 51.2509 37.6658C49.6002 36.1406 46.202 37.0482 41.8993 38.1971C38.7365 39.0422 35.1514 39.9998 31.9556 39.9998C28.3528 39.9998 25.2719 38.2125 23.3218 36.713C21.1767 35.0637 19.8843 33.3872 19.8719 33.3708C19.8227 33.3041 19.7607 33.2479 19.6895 33.2054C19.6184 33.1629 19.5395 33.1351 19.4574 33.1233C19.3754 33.1116 19.2918 33.1164 19.2116 33.1372C19.1314 33.1582 19.0561 33.1948 18.9902 33.2451C18.9243 33.2953 18.869 33.3582 18.8276 33.43C18.7863 33.5018 18.7596 33.5811 18.7491 33.6633C18.7387 33.7456 18.7447 33.829 18.7668 33.909C18.789 33.9888 18.8268 34.0635 18.878 34.1286C18.9336 34.2015 20.2645 35.9333 22.5315 37.682C22.8643 37.9387 23.1998 38.1818 23.538 38.4113C23.5449 38.4247 23.5517 38.4379 23.5596 38.451C23.5626 38.4558 23.5717 38.4705 23.5864 38.4932L23.1159 38.385L23.1185 38.374C23.1133 38.3936 22.9827 38.8558 22.4132 39.1779C21.6525 39.6083 20.4444 39.6068 18.921 39.1739C18.762 39.1301 18.5922 39.1508 18.4485 39.2317C18.3047 39.3125 18.1988 39.4469 18.1537 39.6055C18.1086 39.7641 18.1281 39.9342 18.2078 40.0785C18.2875 40.2229 18.421 40.3299 18.5793 40.3762C19.4588 40.6262 20.2531 40.7512 20.9621 40.7512C21.7919 40.7512 22.5005 40.5793 23.0813 40.2356C23.5127 39.9862 23.87 39.6268 24.1169 39.194C24.2068 39.3008 24.3079 39.4161 24.4208 39.5385C24.3909 39.6123 24.3755 39.6912 24.3755 39.7708C24.3755 39.7812 24.3521 40.814 23.5647 41.4204C22.8583 41.9643 21.6784 42.0503 20.1521 41.6686C19.9918 41.6297 19.8226 41.6559 19.6814 41.7413C19.5402 41.8267 19.4385 41.9644 19.3985 42.1245C19.3585 42.2845 19.3834 42.454 19.4678 42.5957C19.5522 42.7375 19.6892 42.8401 19.849 42.8813C20.5043 43.0539 21.1783 43.1459 21.8559 43.1554C22.8649 43.1554 23.6977 42.9025 24.3441 42.3975C24.9229 41.9338 25.332 41.2917 25.5077 40.5711C25.728 40.7557 25.9676 40.9436 26.2284 41.1315C26.238 41.1384 26.2483 41.1455 26.258 41.1525C26.2484 41.2138 26.248 41.2762 26.2568 41.3377C26.2587 41.351 26.4218 42.6851 25.5659 43.5683C24.8621 44.2948 23.644 44.5671 21.9446 44.3782C21.7813 44.3626 21.6184 44.4119 21.4911 44.5154C21.3638 44.6189 21.2823 44.7683 21.2642 44.9313C21.2461 45.0943 21.2928 45.2579 21.3942 45.3868C21.4957 45.5158 21.6437 45.5997 21.8065 45.6204C22.1763 45.6625 22.5482 45.6842 22.9204 45.6853C24.4705 45.6853 25.6595 45.2675 26.4635 44.438C27.2474 43.6293 27.4635 42.6246 27.5096 41.9417C27.7173 42.0567 27.936 42.17 28.1659 42.2815C28.1294 42.3783 28.1177 42.4826 28.1316 42.5852C28.1337 42.6004 28.3269 44.1214 27.4082 45.1717C26.7826 45.8873 25.7623 46.2498 24.375 46.2498C24.2092 46.2498 24.0502 46.3157 23.933 46.4329C23.8159 46.55 23.75 46.709 23.75 46.8748C23.75 47.0406 23.8159 47.1995 23.933 47.3168C24.0502 47.434 24.2092 47.4998 24.375 47.4998C24.5901 47.4998 24.7988 47.4922 25.0009 47.4769V47.4855C25.0009 47.4965 25 47.5075 25.0004 47.5185C25.0004 47.5252 25.0014 47.5318 25.0018 47.5385C25.0027 47.5522 25.0034 47.566 25.0052 47.5796C25.0058 47.5838 25.0067 47.588 25.0073 47.5922C25.0098 47.6079 25.0123 47.6235 25.0158 47.6391C25.0166 47.6429 25.018 47.6465 25.0188 47.6503C25.0227 47.6659 25.0266 47.6815 25.0319 47.6966C25.0338 47.7023 25.0363 47.7079 25.0384 47.7136C25.043 47.7265 25.0477 47.7393 25.0532 47.7519C25.0572 47.761 25.062 47.7697 25.0664 47.7786C25.0709 47.7875 25.0748 47.7964 25.0796 47.805C25.0858 47.8161 25.0929 47.8267 25.0997 47.8374C25.1036 47.8434 25.1071 47.8497 25.1112 47.8556C25.1186 47.8664 25.1268 47.8766 25.135 47.8868C25.1393 47.8923 25.1433 47.8981 25.1478 47.9035C25.1556 47.9122 25.1634 47.9205 25.1713 47.929C25.1773 47.9354 25.1831 47.9421 25.1895 47.9483C25.1958 47.9544 25.2032 47.9605 25.2101 47.9666C25.2187 47.9744 25.2271 47.9822 25.2362 47.9893C25.2416 47.9936 25.2475 47.9975 25.2531 48.0016C25.2644 48.0099 25.2755 48.0183 25.2873 48.0258C25.2924 48.029 25.2978 48.0318 25.303 48.035C25.3158 48.0428 25.3286 48.0502 25.342 48.057C25.3432 48.0576 25.3442 48.0583 25.3454 48.0589L27.8454 49.3089C27.8564 49.3144 27.8675 49.3197 27.8788 49.3245C28.393 49.5532 28.941 49.6972 29.5013 49.7508C29.5595 49.8282 29.6348 49.8909 29.7213 49.9341C29.8078 49.9773 29.9033 49.9998 30 49.9998H31.25C31.5775 50.0003 31.9047 49.9794 32.2295 49.9373C32.3138 49.9783 32.4063 49.9997 32.5 49.9998H34.375C34.5391 49.9998 34.699 49.9936 34.8557 49.9824C34.903 49.9938 34.9514 49.9997 35 49.9998H36.875C37.0391 49.9998 37.199 49.9936 37.3557 49.9824C37.403 49.9938 37.4514 49.9997 37.5 49.9998H38.75C39.7649 49.9998 40.6192 49.771 41.3311 49.3739C42.3091 49.3639 43.1366 49.1358 43.8295 48.7447C44.8449 48.5693 45.8035 48.1532 46.625 47.5311C47.8223 46.6331 49.2379 44.9029 49.3648 41.7161C50.2426 41.69 50.9317 41.8542 51.4507 42.3338C51.5109 42.3895 51.5816 42.4328 51.6586 42.4612C51.7356 42.4896 51.8175 42.5025 51.8995 42.4993C51.9815 42.4961 52.0621 42.4768 52.1366 42.4424C52.2112 42.408 52.2782 42.3593 52.3339 42.299C52.3896 42.2387 52.4329 42.1681 52.4613 42.0911C52.4897 42.0141 52.5027 41.9322 52.4995 41.8502C52.4962 41.7682 52.4769 41.6876 52.4425 41.6131C52.4081 41.5386 52.3594 41.4715 52.2991 41.4158C50.7008 39.9388 48.427 40.4488 45.2803 41.1545ZM26.7491 47.0998C27.3688 46.865 27.9214 46.4815 28.3584 45.9833C29.3218 44.8725 29.4165 43.4771 29.3975 42.8055C29.7803 42.947 30.1866 43.0779 30.6163 43.1949C30.612 43.2233 30.6098 43.2521 30.6097 43.2808C30.6097 44.3165 30.2434 45.802 29.2113 46.5806C28.5775 47.0593 27.7513 47.2321 26.7494 47.1001L26.7491 47.0998ZM31.0651 48.1422C30.3746 48.5975 29.5539 48.6337 28.5618 48.2522C29.0694 48.123 29.5461 47.894 29.9642 47.5785C31.2971 46.5731 31.8114 44.8379 31.8563 43.4769C32.2493 43.5493 32.6581 43.6097 33.0842 43.6547C32.9655 45.0084 32.4132 47.2537 31.0654 48.1425L31.0651 48.1422ZM34.8492 47.0133C34.3102 47.8977 33.5037 48.4375 32.402 48.6478C33.7433 47.2884 34.2159 45.0487 34.3298 43.739C34.522 43.7453 34.7163 43.7495 34.9145 43.7495C35.1496 43.7495 35.381 43.7469 35.6102 43.7429V43.7495C35.6102 44.6694 35.4782 45.9822 34.8495 47.0136L34.8492 47.0133ZM35.0462 48.7086C36.2249 47.6483 36.8602 45.9624 36.8602 43.7498C36.8602 43.7336 36.859 43.7175 36.8577 43.7016C37.2897 43.6802 37.7108 43.6525 38.1212 43.6186C38.0816 45.9975 37.6902 48.3727 35.0469 48.7089L35.0462 48.7086ZM37.8949 48.6504C38.2709 48.2467 38.5705 47.7782 38.7791 47.2675C39.3104 46.001 39.3677 44.5609 39.3738 43.4946C39.8025 43.4455 40.2192 43.3913 40.6238 43.332C40.61 45.6951 40.3235 48.1354 37.8952 48.6507L37.8949 48.6504ZM40.7053 48.2811C40.9373 47.9681 41.13 47.6278 41.2791 47.2678C41.8737 45.8514 41.875 44.2167 41.875 43.132C42.2991 43.0579 42.7098 42.9809 43.1072 42.901C43.076 44.2151 42.7656 47.1409 40.7056 48.2815L40.7053 48.2811ZM43.0593 47.7303C43.9783 46.3298 44.3599 44.4615 44.3599 42.6558C44.3599 42.65 44.3592 42.6445 44.3591 42.6388C44.771 42.5493 45.1691 42.46 45.5535 42.3739L45.6139 42.3604C45.5501 43.8345 45.147 46.6877 43.0596 47.7306L43.0593 47.7303ZM45.875 46.5371C46.5474 45.2397 46.8487 43.6465 46.8732 42.084C47.3119 41.9913 47.7228 41.9111 48.1076 41.849C47.9622 44.3464 46.9159 45.7521 45.875 46.5371Z" fill="#4E580F" fill-opacity="0.8"/>
<path d="M53.4624 24.153L30.0789 20.0092C30.0247 20.0003 29.9696 19.9979 29.9148 20.0022L26.8312 20.2733C26.7494 20.2805 26.6698 20.3037 26.597 20.3416C26.5243 20.3796 26.4597 20.4314 26.407 20.4943C26.3542 20.5572 26.3144 20.6299 26.2897 20.7082C26.2651 20.7865 26.2561 20.8689 26.2633 20.9506C26.2764 21.107 26.3484 21.2525 26.4648 21.3577C26.5287 21.4159 26.604 21.4603 26.6859 21.488C26.7677 21.5157 26.8545 21.5262 26.9406 21.5186L29.9422 21.2545L53.2445 25.3834C53.3892 25.4084 53.5204 25.4838 53.6148 25.5962C53.7094 25.7085 53.7611 25.8507 53.7609 25.9975C53.7605 26.0347 53.7571 26.0718 53.7508 26.1084V26.1092C53.6594 26.5505 53.4042 26.9407 53.0367 27.2014C52.652 27.4892 52.1859 27.6473 51.7055 27.653H51.7C51.5887 27.6528 51.4777 27.6434 51.368 27.6249L30.0828 23.1381C30.0405 23.129 29.9973 23.1245 29.9539 23.1249H18.4766C17.8304 23.1249 17.2914 23.0131 16.9585 22.8108C16.803 22.7225 16.6722 22.5965 16.5781 22.4444C16.575 22.4397 16.5727 22.435 16.5695 22.4295L21.9594 21.9561C22.0411 21.9489 22.1207 21.9257 22.1935 21.8878C22.2663 21.8499 22.3309 21.798 22.3836 21.7351C22.4364 21.6722 22.4762 21.5995 22.5009 21.5212C22.5255 21.4429 22.5345 21.3605 22.5273 21.2788C22.5202 21.197 22.4969 21.1174 22.459 21.0446C22.4211 20.9719 22.3692 20.9072 22.3063 20.8545C22.2434 20.8018 22.1707 20.7619 22.0924 20.7373C22.0141 20.7126 21.9318 20.7036 21.85 20.7108L15.7242 21.2491C15.5684 21.2625 15.4233 21.334 15.3177 21.4493C15.2121 21.5646 15.1536 21.7154 15.1539 21.8717L15.1546 21.9155C15.1761 22.3312 15.2981 22.7354 15.5102 23.0936C15.8648 23.6811 16.4195 23.9764 16.8218 24.1209C17.2937 24.2905 17.8422 24.3741 18.5 24.3749H29.8882L51.1211 28.8499L51.1398 28.8538C51.3248 28.8863 51.5122 28.9028 51.7 28.903C52.452 28.8976 53.1826 28.652 53.7852 28.2022C54.4075 27.7528 54.8352 27.0831 54.9812 26.3295V26.3272C55.0243 26.0847 55.0192 25.8361 54.9662 25.5956C54.9132 25.3551 54.8133 25.1274 54.6723 24.9255C54.5312 24.7235 54.3518 24.5514 54.1442 24.4188C53.9366 24.2863 53.7049 24.1959 53.4624 24.153Z" fill="#4E580F" fill-opacity="0.8"/>
<path d="M23.9742 21.5762C24.089 21.6813 24.2389 21.7395 24.3945 21.7395C24.4124 21.7395 24.4312 21.7387 24.45 21.7372C24.593 21.7247 24.7274 21.6634 24.8306 21.5635C24.9337 21.4637 24.9995 21.3313 25.0166 21.1888C25.0337 21.0463 25.0012 20.9022 24.9247 20.7807C24.848 20.6593 24.732 20.5679 24.596 20.5219C24.46 20.4759 24.3123 20.4781 24.1777 20.5281C24.0431 20.5781 23.9298 20.6729 23.857 20.7966C23.784 20.9203 23.7559 21.0653 23.7772 21.2072C23.7985 21.3492 23.8681 21.4795 23.9742 21.5762Z" fill="#4E580F" fill-opacity="0.8"/>
</g>
</svg>
