<svg width="44" height="44" viewBox="0 0 44 44" fill="none" xmlns="http://www.w3.org/2000/svg">
<path d="M23.8847 3.66852C25.2225 3.66338 26.5604 3.67683 27.8978 3.70885L28.2535 3.72168C28.6642 3.73635 29.0693 3.75468 29.5588 3.77668C31.5095 3.86835 32.8405 4.17635 34.0083 4.62918C35.2183 5.09485 36.2377 5.72552 37.257 6.74485C38.189 7.66079 38.9104 8.76875 39.3708 9.99168C39.8237 11.1595 40.1317 12.4923 40.2233 14.443C40.2453 14.9307 40.2637 15.3377 40.2783 15.7483L40.2893 16.104C40.3219 17.4409 40.336 18.7781 40.3315 20.1154L40.3333 21.483V23.8847C40.3379 25.2225 40.3238 26.5604 40.2912 27.8979L40.2802 28.2535C40.2655 28.6642 40.2472 29.0693 40.2252 29.5588C40.1335 31.5095 39.8218 32.8405 39.3708 34.0083C38.9119 35.2326 38.1904 36.3414 37.257 37.257C36.3403 38.1889 35.2317 38.9102 34.0083 39.3708C32.8405 39.8237 31.5095 40.1317 29.5588 40.2234C29.0693 40.2453 28.6642 40.2637 28.2535 40.2784L27.8978 40.2893C26.5604 40.3219 25.2225 40.336 23.8847 40.3315L22.517 40.3334H20.1172C18.7793 40.3379 17.4415 40.3238 16.104 40.2912L15.7483 40.2802C15.3131 40.2644 14.878 40.2461 14.443 40.2252C12.4923 40.1335 11.1613 39.8218 9.99168 39.3708C8.76826 38.9113 7.66011 38.1899 6.74484 37.257C5.81176 36.3409 5.08975 35.2322 4.62918 34.0083C4.17634 32.8405 3.86834 31.5095 3.77668 29.5588C3.75626 29.1238 3.73793 28.6887 3.72168 28.2535L3.71251 27.8979C3.67871 26.5604 3.66343 25.2226 3.66668 23.8847V20.1154C3.66156 18.7781 3.67501 17.4409 3.70701 16.104L3.71984 15.7483C3.73451 15.3377 3.75284 14.9307 3.77484 14.443C3.86651 12.4905 4.17451 11.1613 4.62734 9.99168C5.08819 8.76815 5.81161 7.6605 6.74668 6.74668C7.66132 5.81306 8.76877 5.0904 9.99168 4.62918C11.1613 4.17635 12.4905 3.86835 14.443 3.77668L15.7483 3.72168L16.104 3.71252C17.4408 3.67873 18.7781 3.66345 20.1153 3.66668L23.8847 3.66852ZM22 12.8352C20.7854 12.818 19.5796 13.0424 18.4525 13.4953C17.3254 13.9482 16.2995 14.6206 15.4346 15.4734C14.5696 16.3263 13.8827 17.3425 13.4139 18.4631C12.9451 19.5837 12.7037 20.7862 12.7037 22.0009C12.7037 23.2156 12.9451 24.4182 13.4139 25.5388C13.8827 26.6594 14.5696 27.6756 15.4346 28.5284C16.2995 29.3812 17.3254 30.0536 18.4525 30.5066C19.5796 30.9595 20.7854 31.1839 22 31.1667C24.4312 31.1667 26.7627 30.2009 28.4818 28.4818C30.2009 26.7627 31.1667 24.4312 31.1667 22C31.1667 19.5689 30.2009 17.2373 28.4818 15.5182C26.7627 13.7991 24.4312 12.8352 22 12.8352ZM22 16.5019C22.7306 16.4884 23.4566 16.6206 24.1355 16.8909C24.8144 17.1611 25.4326 17.564 25.9541 18.0758C26.4756 18.5877 26.8898 19.1984 27.1727 19.8721C27.4555 20.5459 27.6012 21.2693 27.6013 22C27.6015 22.7307 27.456 23.4541 27.1734 24.128C26.8908 24.8019 26.4767 25.4127 25.9554 25.9247C25.4341 26.4367 24.816 26.8398 24.1372 27.1103C23.4584 27.3807 22.7324 27.5132 22.0018 27.5C20.5432 27.5 19.1442 26.9206 18.1128 25.8891C17.0813 24.8577 16.5018 23.4587 16.5018 22C16.5018 20.5413 17.0813 19.1424 18.1128 18.1109C19.1442 17.0795 20.5432 16.5 22.0018 16.5L22 16.5019ZM31.625 10.0852C31.0336 10.1089 30.4742 10.3605 30.0641 10.7873C29.654 11.2141 29.425 11.7831 29.425 12.375C29.425 12.9669 29.654 13.5359 30.0641 13.9627C30.4742 14.3896 31.0336 14.6412 31.625 14.6648C32.2328 14.6648 32.8157 14.4234 33.2455 13.9936C33.6752 13.5639 33.9167 12.981 33.9167 12.3732C33.9167 11.7654 33.6752 11.1825 33.2455 10.7527C32.8157 10.323 32.2328 10.0815 31.625 10.0815V10.0852Z" fill="#4E580F"/>
</svg>
