<svg width="276" height="58" viewBox="0 0 276 58" fill="none" xmlns="http://www.w3.org/2000/svg">
<path d="M75.9864 33V12.04H82.3224C83.8797 12.04 85.2557 12.2427 86.4504 12.648C87.645 13.032 88.5837 13.6933 89.2664 14.632C89.9704 15.5493 90.3224 16.7973 90.3224 18.376C90.3224 19.8907 89.981 21.1387 89.2984 22.12C88.6157 23.1013 87.677 23.8373 86.4824 24.328C85.309 24.7973 83.965 25.032 82.4504 25.032H79.2504V33H75.9864ZM79.2504 22.408H82.1304C83.8157 22.408 85.0637 22.0773 85.8744 21.416C86.685 20.7547 87.0904 19.7413 87.0904 18.376C87.0904 16.968 86.6637 15.9973 85.8104 15.464C84.957 14.9307 83.6877 14.664 82.0024 14.664H79.2504V22.408ZM94.3926 33V12.04H97.6566V30.248H106.553V33H94.3926ZM110.236 33V12.04H122.62V14.792H113.5V20.68H121.212V23.432H113.5V30.248H122.94V33H110.236ZM124.547 33L131.491 12.04H135.267L142.211 33H138.755L135.363 21.608C135 20.456 134.659 19.304 134.339 18.152C134.019 16.9787 133.699 15.8053 133.379 14.632H133.251C132.952 15.8053 132.632 16.9787 132.291 18.152C131.971 19.304 131.64 20.456 131.299 21.608L127.875 33H124.547ZM128.451 27.016V24.456H138.211V27.016H128.451ZM150.939 33.384C149.51 33.384 148.155 33.1067 146.875 32.552C145.595 31.9973 144.464 31.24 143.483 30.28L145.403 28.072C146.15 28.8187 147.014 29.416 147.995 29.864C148.976 30.312 149.979 30.536 151.003 30.536C152.283 30.536 153.264 30.2693 153.947 29.736C154.63 29.1813 154.971 28.4453 154.971 27.528C154.971 26.888 154.822 26.376 154.523 25.992C154.246 25.608 153.851 25.2773 153.339 25C152.848 24.7227 152.272 24.4453 151.611 24.168L148.699 22.888C148.016 22.6107 147.344 22.2373 146.683 21.768C146.043 21.2987 145.51 20.712 145.083 20.008C144.656 19.304 144.443 18.44 144.443 17.416C144.443 16.3067 144.742 15.3253 145.339 14.472C145.936 13.5973 146.747 12.9147 147.771 12.424C148.795 11.912 149.968 11.656 151.291 11.656C152.528 11.656 153.691 11.9013 154.779 12.392C155.888 12.8613 156.838 13.4907 157.627 14.28L155.931 16.36C155.291 15.784 154.587 15.336 153.819 15.016C153.051 14.6747 152.208 14.504 151.291 14.504C150.224 14.504 149.36 14.7493 148.699 15.24C148.059 15.7093 147.739 16.3707 147.739 17.224C147.739 17.8213 147.899 18.312 148.219 18.696C148.539 19.08 148.966 19.4 149.499 19.656C150.032 19.912 150.576 20.168 151.131 20.424L154.011 21.64C154.843 21.9813 155.579 22.3973 156.219 22.888C156.859 23.3787 157.36 23.976 157.723 24.68C158.107 25.384 158.299 26.248 158.299 27.272C158.299 28.4027 158 29.4373 157.403 30.376C156.827 31.2933 155.984 32.0293 154.875 32.584C153.766 33.1173 152.454 33.384 150.939 33.384ZM169.916 33.384C168.764 33.384 167.708 33.2133 166.748 32.872C165.81 32.5307 164.988 31.9973 164.284 31.272C163.602 30.5467 163.068 29.5867 162.684 28.392C162.322 27.1973 162.14 25.7467 162.14 24.04V12.04H165.404V24.232C165.404 25.832 165.596 27.0907 165.98 28.008C166.364 28.9253 166.898 29.576 167.58 29.96C168.263 30.344 169.042 30.536 169.916 30.536C170.791 30.536 171.58 30.344 172.284 29.96C172.988 29.576 173.532 28.9253 173.916 28.008C174.322 27.0907 174.524 25.832 174.524 24.232V12.04H177.66V24.04C177.66 25.7467 177.468 27.1973 177.084 28.392C176.722 29.5867 176.199 30.5467 175.516 31.272C174.834 31.9973 174.012 32.5307 173.052 32.872C172.114 33.2133 171.068 33.384 169.916 33.384ZM183.08 33V12.04H189.928C191.357 12.04 192.637 12.232 193.768 12.616C194.92 12.9787 195.827 13.608 196.488 14.504C197.149 15.4 197.48 16.6053 197.48 18.12C197.48 19.5707 197.149 20.7653 196.488 21.704C195.827 22.6427 194.92 23.3467 193.768 23.816C192.637 24.2853 191.357 24.52 189.928 24.52H186.344V33H183.08ZM194.536 33L189.288 23.624L191.72 21.8L198.216 33H194.536ZM186.344 21.896H189.544C191.08 21.896 192.243 21.5867 193.032 20.968C193.843 20.328 194.248 19.3787 194.248 18.12C194.248 16.84 193.843 15.944 193.032 15.432C192.243 14.92 191.08 14.664 189.544 14.664H186.344V21.896ZM201.705 33V12.04H214.089V14.792H204.969V20.68H212.681V23.432H204.969V30.248H214.409V33H201.705ZM231.158 33.384C229.729 33.384 228.374 33.1067 227.094 32.552C225.814 31.9973 224.683 31.24 223.702 30.28L225.622 28.072C226.369 28.8187 227.233 29.416 228.214 29.864C229.195 30.312 230.198 30.536 231.222 30.536C232.502 30.536 233.483 30.2693 234.166 29.736C234.849 29.1813 235.19 28.4453 235.19 27.528C235.19 26.888 235.041 26.376 234.742 25.992C234.465 25.608 234.07 25.2773 233.558 25C233.067 24.7227 232.491 24.4453 231.83 24.168L228.918 22.888C228.235 22.6107 227.563 22.2373 226.902 21.768C226.262 21.2987 225.729 20.712 225.302 20.008C224.875 19.304 224.662 18.44 224.662 17.416C224.662 16.3067 224.961 15.3253 225.558 14.472C226.155 13.5973 226.966 12.9147 227.99 12.424C229.014 11.912 230.187 11.656 231.51 11.656C232.747 11.656 233.91 11.9013 234.998 12.392C236.107 12.8613 237.057 13.4907 237.846 14.28L236.15 16.36C235.51 15.784 234.806 15.336 234.038 15.016C233.27 14.6747 232.427 14.504 231.51 14.504C230.443 14.504 229.579 14.7493 228.918 15.24C228.278 15.7093 227.958 16.3707 227.958 17.224C227.958 17.8213 228.118 18.312 228.438 18.696C228.758 19.08 229.185 19.4 229.718 19.656C230.251 19.912 230.795 20.168 231.35 20.424L234.23 21.64C235.062 21.9813 235.798 22.3973 236.438 22.888C237.078 23.3787 237.579 23.976 237.942 24.68C238.326 25.384 238.518 26.248 238.518 27.272C238.518 28.4027 238.219 29.4373 237.622 30.376C237.046 31.2933 236.203 32.0293 235.094 32.584C233.985 33.1173 232.673 33.384 231.158 33.384ZM242.455 33V12.04H248.791C250.348 12.04 251.724 12.2427 252.919 12.648C254.114 13.032 255.052 13.6933 255.735 14.632C256.439 15.5493 256.791 16.7973 256.791 18.376C256.791 19.8907 256.45 21.1387 255.767 22.12C255.084 23.1013 254.146 23.8373 252.951 24.328C251.778 24.7973 250.434 25.032 248.919 25.032H245.719V33H242.455ZM245.719 22.408H248.599C250.284 22.408 251.532 22.0773 252.343 21.416C253.154 20.7547 253.559 19.7413 253.559 18.376C253.559 16.968 253.132 15.9973 252.279 15.464C251.426 14.9307 250.156 14.664 248.471 14.664H245.719V22.408ZM258.109 33L265.053 12.04H268.829L275.773 33H272.317L268.925 21.608C268.563 20.456 268.221 19.304 267.901 18.152C267.581 16.9787 267.261 15.8053 266.941 14.632H266.813C266.515 15.8053 266.195 16.9787 265.853 18.152C265.533 19.304 265.203 20.456 264.861 21.608L261.437 33H258.109ZM262.013 27.016V24.456H271.773V27.016H262.013Z" fill="black"/>
<path d="M78.4928 57.328V46.24H79.4528L79.5488 47.168H79.5968C79.9488 46.8587 80.3381 46.5973 80.7648 46.384C81.2021 46.16 81.6501 46.048 82.1088 46.048C82.7808 46.048 83.3461 46.2133 83.8048 46.544C84.2635 46.864 84.6048 47.3227 84.8288 47.92C85.0635 48.5067 85.1808 49.2 85.1808 50C85.1808 50.8853 85.0208 51.6427 84.7008 52.272C84.3915 52.8907 83.9808 53.3653 83.4688 53.696C82.9568 54.0267 82.4075 54.192 81.8208 54.192C81.4688 54.192 81.1061 54.112 80.7328 53.952C80.3595 53.792 79.9861 53.568 79.6128 53.28L79.6448 54.656V57.328H78.4928ZM81.6288 53.2C82.0875 53.2 82.4928 53.072 82.8448 52.816C83.1968 52.56 83.4741 52.192 83.6768 51.712C83.8795 51.232 83.9808 50.6667 83.9808 50.016C83.9808 49.4293 83.9061 48.912 83.7568 48.464C83.6181 48.016 83.3888 47.6693 83.0688 47.424C82.7595 47.168 82.3488 47.04 81.8368 47.04C81.4955 47.04 81.1435 47.136 80.7808 47.328C80.4288 47.5093 80.0501 47.7867 79.6448 48.16V52.352C80.0288 52.6613 80.3915 52.88 80.7328 53.008C81.0741 53.136 81.3728 53.2 81.6288 53.2ZM87.3209 54V46.24H88.2809L88.3769 47.664H88.4249C88.6916 47.1733 89.0116 46.784 89.3849 46.496C89.7689 46.1973 90.1849 46.048 90.6329 46.048C90.7929 46.048 90.9369 46.064 91.0649 46.096C91.1929 46.1173 91.3156 46.1547 91.4329 46.208L91.2089 47.232C91.0809 47.1893 90.9636 47.1573 90.8569 47.136C90.7609 47.1147 90.6329 47.104 90.4729 47.104C90.1423 47.104 89.7956 47.2427 89.4329 47.52C89.0703 47.7867 88.7503 48.2613 88.4729 48.944V54H87.3209ZM95.7184 54.192C95.0891 54.192 94.5024 54.032 93.9584 53.712C93.4144 53.392 92.9771 52.9333 92.6464 52.336C92.3158 51.728 92.1504 50.992 92.1504 50.128C92.1504 49.264 92.3158 48.528 92.6464 47.92C92.9771 47.312 93.4144 46.848 93.9584 46.528C94.5024 46.208 95.0891 46.048 95.7184 46.048C96.3478 46.048 96.9291 46.208 97.4624 46.528C98.0064 46.848 98.4438 47.312 98.7744 47.92C99.1158 48.528 99.2864 49.264 99.2864 50.128C99.2864 50.992 99.1158 51.728 98.7744 52.336C98.4438 52.9333 98.0064 53.392 97.4624 53.712C96.9291 54.032 96.3478 54.192 95.7184 54.192ZM95.7184 53.216C96.1878 53.216 96.5984 53.088 96.9504 52.832C97.3131 52.576 97.5904 52.2187 97.7824 51.76C97.9851 51.2907 98.0864 50.7467 98.0864 50.128C98.0864 49.52 97.9851 48.9813 97.7824 48.512C97.5904 48.0427 97.3131 47.68 96.9504 47.424C96.5984 47.1573 96.1878 47.024 95.7184 47.024C95.2598 47.024 94.8491 47.1573 94.4864 47.424C94.1344 47.68 93.8571 48.0427 93.6544 48.512C93.4624 48.9813 93.3664 49.52 93.3664 50.128C93.3664 50.7467 93.4624 51.2907 93.6544 51.76C93.8571 52.2187 94.1344 52.576 94.4864 52.832C94.8491 53.088 95.2598 53.216 95.7184 53.216ZM101.575 54V44.896C101.575 44.3733 101.655 43.9253 101.815 43.552C101.975 43.1787 102.215 42.8907 102.535 42.688C102.866 42.4853 103.276 42.384 103.767 42.384C103.991 42.384 104.21 42.4107 104.423 42.464C104.647 42.5067 104.844 42.5653 105.015 42.64L104.759 43.536C104.61 43.4613 104.46 43.4133 104.311 43.392C104.162 43.36 104.012 43.344 103.863 43.344C103.49 43.344 103.207 43.4773 103.015 43.744C102.834 44.0107 102.743 44.4 102.743 44.912V54H101.575ZM100.519 47.2V46.32L101.623 46.24H104.423V47.2H100.519ZM109.018 54.192C108.346 54.192 107.727 54.032 107.162 53.712C106.607 53.3813 106.165 52.9173 105.834 52.32C105.503 51.712 105.338 50.9813 105.338 50.128C105.338 49.2853 105.503 48.56 105.834 47.952C106.165 47.344 106.591 46.8747 107.114 46.544C107.647 46.2133 108.213 46.048 108.81 46.048C109.45 46.048 109.999 46.1973 110.458 46.496C110.917 46.7947 111.263 47.216 111.498 47.76C111.743 48.2933 111.866 48.9333 111.866 49.68C111.866 49.808 111.861 49.936 111.85 50.064C111.85 50.1813 111.839 50.288 111.818 50.384H106.25L106.234 49.536H110.826C110.826 48.704 110.65 48.0747 110.298 47.648C109.946 47.2107 109.455 46.992 108.826 46.992C108.442 46.992 108.069 47.104 107.706 47.328C107.343 47.552 107.045 47.8933 106.81 48.352C106.575 48.8107 106.458 49.4027 106.458 50.128C106.458 50.8213 106.581 51.3973 106.826 51.856C107.071 52.3147 107.397 52.6613 107.802 52.896C108.218 53.1307 108.671 53.248 109.162 53.248C109.557 53.248 109.909 53.1893 110.218 53.072C110.538 52.9547 110.842 52.8053 111.13 52.624L111.562 53.392C111.231 53.6053 110.858 53.792 110.442 53.952C110.037 54.112 109.562 54.192 109.018 54.192ZM115.805 54.192C115.25 54.192 114.722 54.0907 114.221 53.888C113.72 53.6747 113.288 53.4187 112.925 53.12L113.517 52.336C113.858 52.6027 114.21 52.8267 114.573 53.008C114.936 53.1893 115.362 53.28 115.853 53.28C116.386 53.28 116.786 53.152 117.053 52.896C117.32 52.64 117.453 52.336 117.453 51.984C117.453 51.7067 117.362 51.4773 117.181 51.296C117 51.104 116.77 50.944 116.493 50.816C116.216 50.6773 115.933 50.5547 115.645 50.448C115.282 50.32 114.92 50.1653 114.557 49.984C114.194 49.8027 113.89 49.5733 113.645 49.296C113.41 49.0187 113.293 48.6613 113.293 48.224C113.293 47.616 113.522 47.104 113.981 46.688C114.45 46.2613 115.101 46.048 115.933 46.048C116.402 46.048 116.84 46.1333 117.245 46.304C117.65 46.4747 117.997 46.6773 118.285 46.912L117.725 47.664C117.458 47.472 117.181 47.312 116.893 47.184C116.616 47.0453 116.296 46.976 115.933 46.976C115.421 46.976 115.042 47.0987 114.797 47.344C114.552 47.5787 114.429 47.8507 114.429 48.16C114.429 48.416 114.509 48.6293 114.669 48.8C114.84 48.96 115.058 49.0987 115.325 49.216C115.592 49.3333 115.874 49.4507 116.173 49.568C116.557 49.7067 116.93 49.8667 117.293 50.048C117.666 50.2187 117.976 50.448 118.221 50.736C118.466 51.024 118.589 51.4187 118.589 51.92C118.589 52.3253 118.482 52.704 118.269 53.056C118.056 53.3973 117.741 53.6747 117.325 53.888C116.909 54.0907 116.402 54.192 115.805 54.192ZM122.461 54.192C121.907 54.192 121.379 54.0907 120.877 53.888C120.376 53.6747 119.944 53.4187 119.581 53.12L120.173 52.336C120.515 52.6027 120.867 52.8267 121.229 53.008C121.592 53.1893 122.019 53.28 122.509 53.28C123.043 53.28 123.443 53.152 123.709 52.896C123.976 52.64 124.109 52.336 124.109 51.984C124.109 51.7067 124.019 51.4773 123.837 51.296C123.656 51.104 123.427 50.944 123.149 50.816C122.872 50.6773 122.589 50.5547 122.301 50.448C121.939 50.32 121.576 50.1653 121.213 49.984C120.851 49.8027 120.547 49.5733 120.301 49.296C120.067 49.0187 119.949 48.6613 119.949 48.224C119.949 47.616 120.179 47.104 120.637 46.688C121.107 46.2613 121.757 46.048 122.589 46.048C123.059 46.048 123.496 46.1333 123.901 46.304C124.307 46.4747 124.653 46.6773 124.941 46.912L124.381 47.664C124.115 47.472 123.837 47.312 123.549 47.184C123.272 47.0453 122.952 46.976 122.589 46.976C122.077 46.976 121.699 47.0987 121.453 47.344C121.208 47.5787 121.085 47.8507 121.085 48.16C121.085 48.416 121.165 48.6293 121.325 48.8C121.496 48.96 121.715 49.0987 121.981 49.216C122.248 49.3333 122.531 49.4507 122.829 49.568C123.213 49.7067 123.587 49.8667 123.949 50.048C124.323 50.2187 124.632 50.448 124.877 50.736C125.123 51.024 125.245 51.4187 125.245 51.92C125.245 52.3253 125.139 52.704 124.925 53.056C124.712 53.3973 124.397 53.6747 123.981 53.888C123.565 54.0907 123.059 54.192 122.461 54.192ZM127.133 54V46.24H128.285V54H127.133ZM127.725 44.576C127.501 44.576 127.309 44.5013 127.149 44.352C127 44.2027 126.925 44.0053 126.925 43.76C126.925 43.5253 127 43.3387 127.149 43.2C127.309 43.0507 127.501 42.976 127.725 42.976C127.96 42.976 128.152 43.0507 128.301 43.2C128.451 43.3387 128.525 43.5253 128.525 43.76C128.525 44.0053 128.451 44.2027 128.301 44.352C128.152 44.5013 127.96 44.576 127.725 44.576ZM133.968 54.192C133.339 54.192 132.752 54.032 132.208 53.712C131.664 53.392 131.227 52.9333 130.896 52.336C130.566 51.728 130.4 50.992 130.4 50.128C130.4 49.264 130.566 48.528 130.896 47.92C131.227 47.312 131.664 46.848 132.208 46.528C132.752 46.208 133.339 46.048 133.968 46.048C134.598 46.048 135.179 46.208 135.712 46.528C136.256 46.848 136.694 47.312 137.024 47.92C137.366 48.528 137.536 49.264 137.536 50.128C137.536 50.992 137.366 51.728 137.024 52.336C136.694 52.9333 136.256 53.392 135.712 53.712C135.179 54.032 134.598 54.192 133.968 54.192ZM133.968 53.216C134.438 53.216 134.848 53.088 135.2 52.832C135.563 52.576 135.84 52.2187 136.032 51.76C136.235 51.2907 136.336 50.7467 136.336 50.128C136.336 49.52 136.235 48.9813 136.032 48.512C135.84 48.0427 135.563 47.68 135.2 47.424C134.848 47.1573 134.438 47.024 133.968 47.024C133.51 47.024 133.099 47.1573 132.736 47.424C132.384 47.68 132.107 48.0427 131.904 48.512C131.712 48.9813 131.616 49.52 131.616 50.128C131.616 50.7467 131.712 51.2907 131.904 51.76C132.107 52.2187 132.384 52.576 132.736 52.832C133.099 53.088 133.51 53.216 133.968 53.216ZM139.649 54V46.24H140.609L140.705 47.392H140.753C141.126 47.008 141.521 46.688 141.937 46.432C142.364 46.176 142.838 46.048 143.361 46.048C144.182 46.048 144.78 46.304 145.153 46.816C145.537 47.328 145.729 48.08 145.729 49.072V54H144.561V49.216C144.561 48.4693 144.438 47.9253 144.193 47.584C143.958 47.2427 143.569 47.072 143.025 47.072C142.62 47.072 142.252 47.1787 141.921 47.392C141.59 47.5947 141.217 47.904 140.801 48.32V54H139.649ZM150.097 54.192C149.67 54.192 149.286 54.1067 148.945 53.936C148.603 53.7653 148.331 53.52 148.129 53.2C147.926 52.8693 147.825 52.4693 147.825 52C147.825 51.1573 148.209 50.512 148.977 50.064C149.755 49.6053 150.982 49.2853 152.657 49.104C152.657 48.752 152.609 48.416 152.513 48.096C152.427 47.776 152.262 47.52 152.017 47.328C151.782 47.1253 151.441 47.024 150.993 47.024C150.523 47.024 150.086 47.1147 149.681 47.296C149.286 47.4773 148.939 47.6693 148.641 47.872L148.177 47.072C148.401 46.9227 148.667 46.768 148.977 46.608C149.286 46.448 149.627 46.3147 150.001 46.208C150.374 46.1013 150.769 46.048 151.185 46.048C151.814 46.048 152.321 46.1813 152.705 46.448C153.089 46.7147 153.366 47.0827 153.537 47.552C153.718 48.0213 153.809 48.5707 153.809 49.2V54H152.849L152.753 53.056H152.705C152.331 53.3653 151.926 53.632 151.489 53.856C151.051 54.08 150.587 54.192 150.097 54.192ZM150.401 53.248C150.806 53.248 151.179 53.1573 151.521 52.976C151.873 52.784 152.251 52.512 152.657 52.16V49.888C151.739 49.9947 151.014 50.144 150.481 50.336C149.947 50.5173 149.563 50.7413 149.329 51.008C149.094 51.2747 148.977 51.584 148.977 51.936C148.977 52.3947 149.115 52.7307 149.393 52.944C149.681 53.1467 150.017 53.248 150.401 53.248ZM157.616 54.192C157.328 54.192 157.088 54.128 156.896 54C156.704 53.8827 156.566 53.7067 156.48 53.472C156.395 53.2267 156.352 52.928 156.352 52.576V42.576H157.504V52.672C157.504 52.864 157.542 53.0027 157.616 53.088C157.691 53.1733 157.776 53.216 157.872 53.216C157.904 53.216 157.942 53.216 157.984 53.216C158.027 53.2053 158.086 53.1947 158.16 53.184L158.32 54.08C158.235 54.1013 158.134 54.1227 158.016 54.144C157.91 54.176 157.776 54.192 157.616 54.192ZM163.555 54V46.24H164.515L164.611 47.392H164.659C165.001 47.0187 165.374 46.704 165.779 46.448C166.195 46.1813 166.627 46.048 167.075 46.048C167.683 46.048 168.153 46.1867 168.483 46.464C168.825 46.7307 169.07 47.0933 169.219 47.552C169.635 47.104 170.051 46.7413 170.467 46.464C170.894 46.1867 171.337 46.048 171.795 46.048C172.595 46.048 173.187 46.304 173.571 46.816C173.955 47.328 174.147 48.08 174.147 49.072V54H172.979V49.216C172.979 48.4693 172.857 47.9253 172.611 47.584C172.366 47.2427 171.982 47.072 171.459 47.072C171.15 47.072 170.825 47.1787 170.483 47.392C170.153 47.5947 169.801 47.904 169.427 48.32V54H168.259V49.216C168.259 48.4693 168.137 47.9253 167.891 47.584C167.657 47.2427 167.278 47.072 166.755 47.072C166.137 47.072 165.454 47.488 164.707 48.32V54H163.555ZM178.518 54.192C178.092 54.192 177.708 54.1067 177.366 53.936C177.025 53.7653 176.753 53.52 176.55 53.2C176.348 52.8693 176.246 52.4693 176.246 52C176.246 51.1573 176.63 50.512 177.398 50.064C178.177 49.6053 179.404 49.2853 181.078 49.104C181.078 48.752 181.03 48.416 180.934 48.096C180.849 47.776 180.684 47.52 180.438 47.328C180.204 47.1253 179.862 47.024 179.414 47.024C178.945 47.024 178.508 47.1147 178.102 47.296C177.708 47.4773 177.361 47.6693 177.062 47.872L176.598 47.072C176.822 46.9227 177.089 46.768 177.398 46.608C177.708 46.448 178.049 46.3147 178.422 46.208C178.796 46.1013 179.19 46.048 179.606 46.048C180.236 46.048 180.742 46.1813 181.126 46.448C181.51 46.7147 181.788 47.0827 181.958 47.552C182.14 48.0213 182.23 48.5707 182.23 49.2V54H181.27L181.174 53.056H181.126C180.753 53.3653 180.348 53.632 179.91 53.856C179.473 54.08 179.009 54.192 178.518 54.192ZM178.822 53.248C179.228 53.248 179.601 53.1573 179.942 52.976C180.294 52.784 180.673 52.512 181.078 52.16V49.888C180.161 49.9947 179.436 50.144 178.902 50.336C178.369 50.5173 177.985 50.7413 177.75 51.008C177.516 51.2747 177.398 51.584 177.398 51.936C177.398 52.3947 177.537 52.7307 177.814 52.944C178.102 53.1467 178.438 53.248 178.822 53.248ZM186.758 54.192C186.203 54.192 185.675 54.0907 185.174 53.888C184.673 53.6747 184.241 53.4187 183.878 53.12L184.47 52.336C184.811 52.6027 185.163 52.8267 185.526 53.008C185.889 53.1893 186.315 53.28 186.806 53.28C187.339 53.28 187.739 53.152 188.006 52.896C188.273 52.64 188.406 52.336 188.406 51.984C188.406 51.7067 188.315 51.4773 188.134 51.296C187.953 51.104 187.723 50.944 187.446 50.816C187.169 50.6773 186.886 50.5547 186.598 50.448C186.235 50.32 185.873 50.1653 185.51 49.984C185.147 49.8027 184.843 49.5733 184.598 49.296C184.363 49.0187 184.246 48.6613 184.246 48.224C184.246 47.616 184.475 47.104 184.934 46.688C185.403 46.2613 186.054 46.048 186.886 46.048C187.355 46.048 187.793 46.1333 188.198 46.304C188.603 46.4747 188.95 46.6773 189.238 46.912L188.678 47.664C188.411 47.472 188.134 47.312 187.846 47.184C187.569 47.0453 187.249 46.976 186.886 46.976C186.374 46.976 185.995 47.0987 185.75 47.344C185.505 47.5787 185.382 47.8507 185.382 48.16C185.382 48.416 185.462 48.6293 185.622 48.8C185.793 48.96 186.011 49.0987 186.278 49.216C186.545 49.3333 186.827 49.4507 187.126 49.568C187.51 49.7067 187.883 49.8667 188.246 50.048C188.619 50.2187 188.929 50.448 189.174 50.736C189.419 51.024 189.542 51.4187 189.542 51.92C189.542 52.3253 189.435 52.704 189.222 53.056C189.009 53.3973 188.694 53.6747 188.278 53.888C187.862 54.0907 187.355 54.192 186.758 54.192ZM193.414 54.192C192.86 54.192 192.332 54.0907 191.83 53.888C191.329 53.6747 190.897 53.4187 190.534 53.12L191.126 52.336C191.468 52.6027 191.82 52.8267 192.182 53.008C192.545 53.1893 192.972 53.28 193.462 53.28C193.996 53.28 194.396 53.152 194.662 52.896C194.929 52.64 195.062 52.336 195.062 51.984C195.062 51.7067 194.972 51.4773 194.79 51.296C194.609 51.104 194.38 50.944 194.102 50.816C193.825 50.6773 193.542 50.5547 193.254 50.448C192.892 50.32 192.529 50.1653 192.166 49.984C191.804 49.8027 191.5 49.5733 191.254 49.296C191.02 49.0187 190.902 48.6613 190.902 48.224C190.902 47.616 191.132 47.104 191.59 46.688C192.06 46.2613 192.71 46.048 193.542 46.048C194.012 46.048 194.449 46.1333 194.854 46.304C195.26 46.4747 195.606 46.6773 195.894 46.912L195.334 47.664C195.068 47.472 194.79 47.312 194.502 47.184C194.225 47.0453 193.905 46.976 193.542 46.976C193.03 46.976 192.652 47.0987 192.406 47.344C192.161 47.5787 192.038 47.8507 192.038 48.16C192.038 48.416 192.118 48.6293 192.278 48.8C192.449 48.96 192.668 49.0987 192.934 49.216C193.201 49.3333 193.484 49.4507 193.782 49.568C194.166 49.7067 194.54 49.8667 194.902 50.048C195.276 50.2187 195.585 50.448 195.83 50.736C196.076 51.024 196.198 51.4187 196.198 51.92C196.198 52.3253 196.092 52.704 195.878 53.056C195.665 53.3973 195.35 53.6747 194.934 53.888C194.518 54.0907 194.012 54.192 193.414 54.192ZM199.847 54.192C199.42 54.192 199.036 54.1067 198.695 53.936C198.353 53.7653 198.081 53.52 197.879 53.2C197.676 52.8693 197.575 52.4693 197.575 52C197.575 51.1573 197.959 50.512 198.727 50.064C199.505 49.6053 200.732 49.2853 202.407 49.104C202.407 48.752 202.359 48.416 202.263 48.096C202.177 47.776 202.012 47.52 201.767 47.328C201.532 47.1253 201.191 47.024 200.743 47.024C200.273 47.024 199.836 47.1147 199.431 47.296C199.036 47.4773 198.689 47.6693 198.391 47.872L197.927 47.072C198.151 46.9227 198.417 46.768 198.727 46.608C199.036 46.448 199.377 46.3147 199.751 46.208C200.124 46.1013 200.519 46.048 200.935 46.048C201.564 46.048 202.071 46.1813 202.455 46.448C202.839 46.7147 203.116 47.0827 203.287 47.552C203.468 48.0213 203.559 48.5707 203.559 49.2V54H202.599L202.503 53.056H202.455C202.081 53.3653 201.676 53.632 201.239 53.856C200.801 54.08 200.337 54.192 199.847 54.192ZM200.151 53.248C200.556 53.248 200.929 53.1573 201.271 52.976C201.623 52.784 202.001 52.512 202.407 52.16V49.888C201.489 49.9947 200.764 50.144 200.231 50.336C199.697 50.5173 199.313 50.7413 199.079 51.008C198.844 51.2747 198.727 51.584 198.727 51.936C198.727 52.3947 198.865 52.7307 199.143 52.944C199.431 53.1467 199.767 53.248 200.151 53.248ZM208.694 57.616C208.054 57.616 207.494 57.5307 207.014 57.36C206.534 57.1893 206.161 56.9493 205.894 56.64C205.628 56.3307 205.494 55.9573 205.494 55.52C205.494 55.1787 205.596 54.8533 205.798 54.544C206.001 54.2347 206.278 53.9627 206.63 53.728V53.664C206.438 53.536 206.273 53.3707 206.134 53.168C206.006 52.9547 205.942 52.6987 205.942 52.4C205.942 52.0693 206.033 51.7813 206.214 51.536C206.406 51.2907 206.598 51.0987 206.79 50.96V50.896C206.545 50.6933 206.316 50.4107 206.102 50.048C205.9 49.6853 205.798 49.2747 205.798 48.816C205.798 48.2507 205.926 47.7653 206.182 47.36C206.449 46.944 206.796 46.624 207.222 46.4C207.66 46.1653 208.14 46.048 208.662 46.048C208.876 46.048 209.073 46.0693 209.254 46.112C209.446 46.144 209.606 46.1867 209.734 46.24H212.422V47.152H210.774C210.977 47.344 211.142 47.584 211.27 47.872C211.398 48.16 211.462 48.48 211.462 48.832C211.462 49.3867 211.334 49.8667 211.078 50.272C210.833 50.6773 210.497 50.992 210.07 51.216C209.654 51.4293 209.185 51.536 208.662 51.536C208.47 51.536 208.268 51.5147 208.054 51.472C207.852 51.4187 207.66 51.3493 207.478 51.264C207.329 51.3813 207.201 51.5147 207.094 51.664C206.998 51.8133 206.95 52 206.95 52.224C206.95 52.48 207.046 52.6933 207.238 52.864C207.441 53.024 207.804 53.104 208.326 53.104H209.878C210.774 53.104 211.441 53.2533 211.878 53.552C212.326 53.84 212.55 54.304 212.55 54.944C212.55 55.4133 212.39 55.8507 212.07 56.256C211.761 56.6613 211.318 56.9867 210.742 57.232C210.166 57.488 209.484 57.616 208.694 57.616ZM208.854 56.784C209.366 56.784 209.809 56.704 210.182 56.544C210.566 56.384 210.865 56.176 211.078 55.92C211.292 55.664 211.398 55.392 211.398 55.104C211.398 54.7307 211.26 54.4693 210.982 54.32C210.716 54.1707 210.316 54.096 209.782 54.096H208.358C208.241 54.096 208.092 54.0853 207.91 54.064C207.74 54.0427 207.558 54.0107 207.366 53.968C207.068 54.1813 206.849 54.4053 206.71 54.64C206.582 54.8853 206.518 55.1253 206.518 55.36C206.518 55.7973 206.726 56.144 207.142 56.4C207.558 56.656 208.129 56.784 208.854 56.784ZM208.662 50.736C208.972 50.736 209.254 50.656 209.51 50.496C209.777 50.336 209.99 50.112 210.15 49.824C210.31 49.536 210.39 49.2 210.39 48.816C210.39 48.4213 210.31 48.0853 210.15 47.808C210.001 47.52 209.793 47.3013 209.526 47.152C209.27 46.992 208.982 46.912 208.662 46.912C208.182 46.912 207.772 47.0827 207.43 47.424C207.089 47.7547 206.918 48.2187 206.918 48.816C206.918 49.2 206.998 49.536 207.158 49.824C207.318 50.112 207.532 50.336 207.798 50.496C208.065 50.656 208.353 50.736 208.662 50.736ZM217.174 54.192C216.502 54.192 215.884 54.032 215.318 53.712C214.764 53.3813 214.321 52.9173 213.99 52.32C213.66 51.712 213.494 50.9813 213.494 50.128C213.494 49.2853 213.66 48.56 213.99 47.952C214.321 47.344 214.748 46.8747 215.27 46.544C215.804 46.2133 216.369 46.048 216.966 46.048C217.606 46.048 218.156 46.1973 218.614 46.496C219.073 46.7947 219.42 47.216 219.654 47.76C219.9 48.2933 220.022 48.9333 220.022 49.68C220.022 49.808 220.017 49.936 220.006 50.064C220.006 50.1813 219.996 50.288 219.974 50.384H214.406L214.39 49.536H218.982C218.982 48.704 218.806 48.0747 218.454 47.648C218.102 47.2107 217.612 46.992 216.982 46.992C216.598 46.992 216.225 47.104 215.862 47.328C215.5 47.552 215.201 47.8933 214.966 48.352C214.732 48.8107 214.614 49.4027 214.614 50.128C214.614 50.8213 214.737 51.3973 214.982 51.856C215.228 52.3147 215.553 52.6613 215.958 52.896C216.374 53.1307 216.828 53.248 217.318 53.248C217.713 53.248 218.065 53.1893 218.374 53.072C218.694 52.9547 218.998 52.8053 219.286 52.624L219.718 53.392C219.388 53.6053 219.014 53.792 218.598 53.952C218.193 54.112 217.718 54.192 217.174 54.192ZM223.961 54.192C223.407 54.192 222.879 54.0907 222.377 53.888C221.876 53.6747 221.444 53.4187 221.081 53.12L221.673 52.336C222.015 52.6027 222.367 52.8267 222.729 53.008C223.092 53.1893 223.519 53.28 224.009 53.28C224.543 53.28 224.943 53.152 225.209 52.896C225.476 52.64 225.609 52.336 225.609 51.984C225.609 51.7067 225.519 51.4773 225.337 51.296C225.156 51.104 224.927 50.944 224.649 50.816C224.372 50.6773 224.089 50.5547 223.801 50.448C223.439 50.32 223.076 50.1653 222.713 49.984C222.351 49.8027 222.047 49.5733 221.801 49.296C221.567 49.0187 221.449 48.6613 221.449 48.224C221.449 47.616 221.679 47.104 222.137 46.688C222.607 46.2613 223.257 46.048 224.089 46.048C224.559 46.048 224.996 46.1333 225.401 46.304C225.807 46.4747 226.153 46.6773 226.441 46.912L225.881 47.664C225.615 47.472 225.337 47.312 225.049 47.184C224.772 47.0453 224.452 46.976 224.089 46.976C223.577 46.976 223.199 47.0987 222.953 47.344C222.708 47.5787 222.585 47.8507 222.585 48.16C222.585 48.416 222.665 48.6293 222.825 48.8C222.996 48.96 223.215 49.0987 223.481 49.216C223.748 49.3333 224.031 49.4507 224.329 49.568C224.713 49.7067 225.087 49.8667 225.449 50.048C225.823 50.2187 226.132 50.448 226.377 50.736C226.623 51.024 226.745 51.4187 226.745 51.92C226.745 52.3253 226.639 52.704 226.425 53.056C226.212 53.3973 225.897 53.6747 225.481 53.888C225.065 54.0907 224.559 54.192 223.961 54.192ZM234.173 54.192C233.554 54.192 233.005 54.0693 232.525 53.824C232.055 53.5787 231.682 53.2373 231.405 52.8C231.138 52.3627 231.005 51.8613 231.005 51.296C231.005 50.784 231.117 50.336 231.341 49.952C231.575 49.5573 231.874 49.2053 232.237 48.896C232.599 48.5867 232.983 48.2987 233.389 48.032C233.805 47.7653 234.194 47.4987 234.557 47.232C234.919 46.9653 235.213 46.6827 235.437 46.384C235.671 46.0747 235.789 45.7333 235.789 45.36C235.789 45.04 235.709 44.7573 235.549 44.512C235.399 44.2667 235.138 44.144 234.765 44.144C234.349 44.144 234.018 44.2987 233.773 44.608C233.538 44.9067 233.421 45.28 233.421 45.728C233.421 46.2293 233.538 46.7627 233.773 47.328C234.018 47.8827 234.338 48.4427 234.733 49.008C235.138 49.5733 235.586 50.1067 236.077 50.608C236.567 51.1093 237.058 51.552 237.549 51.936C237.965 52.256 238.37 52.5227 238.765 52.736C239.159 52.9493 239.522 53.1093 239.853 53.216L239.533 54.192C239.127 54.0747 238.701 53.8933 238.253 53.648C237.805 53.4027 237.341 53.0933 236.861 52.72C236.295 52.272 235.746 51.7653 235.213 51.2C234.679 50.6347 234.199 50.0373 233.773 49.408C233.357 48.7787 233.021 48.1547 232.765 47.536C232.519 46.9173 232.397 46.3253 232.397 45.76C232.397 45.2907 232.493 44.8747 232.685 44.512C232.887 44.1387 233.165 43.8453 233.517 43.632C233.879 43.408 234.295 43.296 234.765 43.296C235.394 43.296 235.879 43.488 236.221 43.872C236.573 44.2453 236.749 44.7307 236.749 45.328C236.749 45.776 236.637 46.1813 236.413 46.544C236.199 46.896 235.917 47.2267 235.565 47.536C235.213 47.8347 234.839 48.1227 234.445 48.4C234.05 48.6773 233.677 48.96 233.325 49.248C232.983 49.5253 232.701 49.824 232.477 50.144C232.253 50.464 232.141 50.8267 232.141 51.232C232.141 51.6373 232.237 51.9947 232.429 52.304C232.621 52.6027 232.877 52.8373 233.197 53.008C233.527 53.168 233.895 53.248 234.301 53.248C234.749 53.248 235.181 53.1307 235.597 52.896C236.013 52.6613 236.391 52.3627 236.733 52C237.17 51.52 237.543 50.976 237.853 50.368C238.173 49.76 238.429 49.0933 238.621 48.368H239.709C239.485 49.1467 239.191 49.8933 238.829 50.608C238.477 51.3227 238.05 51.9733 237.549 52.56C237.122 53.04 236.631 53.4347 236.077 53.744C235.522 54.0427 234.887 54.192 234.173 54.192ZM247.641 54.192C246.959 54.192 246.345 54.032 245.801 53.712C245.257 53.392 244.825 52.9333 244.505 52.336C244.185 51.728 244.025 50.992 244.025 50.128C244.025 49.264 244.196 48.528 244.537 47.92C244.889 47.312 245.343 46.848 245.897 46.528C246.452 46.208 247.06 46.048 247.721 46.048C248.233 46.048 248.671 46.144 249.033 46.336C249.396 46.5173 249.711 46.7307 249.977 46.976L249.369 47.744C249.145 47.5307 248.9 47.36 248.633 47.232C248.377 47.0933 248.089 47.024 247.769 47.024C247.279 47.024 246.841 47.1573 246.457 47.424C246.084 47.68 245.785 48.0427 245.561 48.512C245.348 48.9813 245.241 49.52 245.241 50.128C245.241 50.7467 245.343 51.2907 245.545 51.76C245.759 52.2187 246.052 52.576 246.425 52.832C246.799 53.088 247.236 53.216 247.737 53.216C248.111 53.216 248.457 53.136 248.777 52.976C249.097 52.816 249.38 52.6293 249.625 52.416L250.137 53.2C249.796 53.5093 249.412 53.7547 248.985 53.936C248.559 54.1067 248.111 54.192 247.641 54.192ZM253.659 54.192C253.232 54.192 252.848 54.1067 252.507 53.936C252.166 53.7653 251.894 53.52 251.691 53.2C251.488 52.8693 251.387 52.4693 251.387 52C251.387 51.1573 251.771 50.512 252.539 50.064C253.318 49.6053 254.544 49.2853 256.219 49.104C256.219 48.752 256.171 48.416 256.075 48.096C255.99 47.776 255.824 47.52 255.579 47.328C255.344 47.1253 255.003 47.024 254.555 47.024C254.086 47.024 253.648 47.1147 253.243 47.296C252.848 47.4773 252.502 47.6693 252.203 47.872L251.739 47.072C251.963 46.9227 252.23 46.768 252.539 46.608C252.848 46.448 253.19 46.3147 253.563 46.208C253.936 46.1013 254.331 46.048 254.747 46.048C255.376 46.048 255.883 46.1813 256.267 46.448C256.651 46.7147 256.928 47.0827 257.099 47.552C257.28 48.0213 257.371 48.5707 257.371 49.2V54H256.411L256.315 53.056H256.267C255.894 53.3653 255.488 53.632 255.051 53.856C254.614 54.08 254.15 54.192 253.659 54.192ZM253.963 53.248C254.368 53.248 254.742 53.1573 255.083 52.976C255.435 52.784 255.814 52.512 256.219 52.16V49.888C255.302 49.9947 254.576 50.144 254.043 50.336C253.51 50.5173 253.126 50.7413 252.891 51.008C252.656 51.2747 252.539 51.584 252.539 51.936C252.539 52.3947 252.678 52.7307 252.955 52.944C253.243 53.1467 253.579 53.248 253.963 53.248ZM259.915 54V46.24H260.875L260.971 47.664H261.019C261.285 47.1733 261.605 46.784 261.979 46.496C262.363 46.1973 262.779 46.048 263.227 46.048C263.387 46.048 263.531 46.064 263.659 46.096C263.787 46.1173 263.909 46.1547 264.027 46.208L263.803 47.232C263.675 47.1893 263.557 47.1573 263.451 47.136C263.355 47.1147 263.227 47.104 263.067 47.104C262.736 47.104 262.389 47.2427 262.027 47.52C261.664 47.7867 261.344 48.2613 261.067 48.944V54H259.915ZM268.424 54.192C267.752 54.192 267.134 54.032 266.568 53.712C266.014 53.3813 265.571 52.9173 265.24 52.32C264.91 51.712 264.744 50.9813 264.744 50.128C264.744 49.2853 264.91 48.56 265.24 47.952C265.571 47.344 265.998 46.8747 266.52 46.544C267.054 46.2133 267.619 46.048 268.216 46.048C268.856 46.048 269.406 46.1973 269.864 46.496C270.323 46.7947 270.67 47.216 270.904 47.76C271.15 48.2933 271.272 48.9333 271.272 49.68C271.272 49.808 271.267 49.936 271.256 50.064C271.256 50.1813 271.246 50.288 271.224 50.384H265.656L265.64 49.536H270.232C270.232 48.704 270.056 48.0747 269.704 47.648C269.352 47.2107 268.862 46.992 268.232 46.992C267.848 46.992 267.475 47.104 267.112 47.328C266.75 47.552 266.451 47.8933 266.216 48.352C265.982 48.8107 265.864 49.4027 265.864 50.128C265.864 50.8213 265.987 51.3973 266.232 51.856C266.478 52.3147 266.803 52.6613 267.208 52.896C267.624 53.1307 268.078 53.248 268.568 53.248C268.963 53.248 269.315 53.1893 269.624 53.072C269.944 52.9547 270.248 52.8053 270.536 52.624L270.968 53.392C270.638 53.6053 270.264 53.792 269.848 53.952C269.443 54.112 268.968 54.192 268.424 54.192Z" fill="black" fill-opacity="0.65"/>
<path d="M43.3854 26.9122C43.0164 22.8638 41.7865 18.941 39.7781 15.4065C37.7697 11.8721 35.0291 8.80764 31.74 6.41852L28.508 4.07812L25.4794 6.43324C22.324 8.88645 19.7216 11.9778 17.8422 15.5052C15.9629 19.0327 14.8488 22.917 14.5728 26.9043C13.3536 26.6745 12.1157 26.5589 10.875 26.5589H1.8125V33.9844C1.8125 44.978 10.7564 53.9219 21.75 53.9219H36.25C47.2436 53.9219 56.1875 44.978 56.1875 33.9844V26.5589H47.125C45.8701 26.5588 44.618 26.6771 43.3854 26.9122ZM27.705 9.29473L28.5857 8.60938L29.6143 9.3542C32.5806 11.509 35.0342 14.2924 36.7999 17.5055C38.5655 20.7186 39.5995 24.2821 39.8281 27.9413C35.0348 29.8402 31.1571 33.5124 29 38.1952C26.8385 33.5037 22.9501 29.8272 18.1449 27.9319C18.2715 24.3138 19.1938 20.7681 20.8461 17.5469C22.4984 14.3258 24.8402 11.5082 27.705 9.29473ZM27.1875 50.2969H21.75C12.7555 50.2969 5.4375 42.9789 5.4375 33.9844V30.1839H10.875C19.8695 30.1839 27.1875 37.5019 27.1875 46.4964V50.2969ZM52.5625 33.9844C52.5625 42.9789 45.2445 50.2969 36.25 50.2969H30.8125V46.4964C30.8125 37.5019 38.1305 30.1839 47.125 30.1839H52.5625V33.9844Z" fill="#4E580F" fill-opacity="0.8"/>
</svg>
