<svg width="33" height="28" viewBox="0 0 33 28" fill="none" xmlns="http://www.w3.org/2000/svg">
<g clip-path="url(#clip0_159_31)">
<path d="M27.5 20.4167C28.0297 20.4169 28.5389 20.59 28.9223 20.9002C29.3056 21.2103 29.5336 21.6337 29.5591 22.0826C29.5846 22.5315 29.4055 22.9715 29.059 23.3114C28.7125 23.6513 28.2252 23.8651 27.698 23.9085L27.5 23.9167H5.5C4.97033 23.9165 4.46106 23.7433 4.07772 23.4332C3.69438 23.1231 3.46636 22.6997 3.4409 22.2508C3.41545 21.8019 3.59451 21.3619 3.94099 21.0219C4.28747 20.682 4.7748 20.4682 5.302 20.4248L5.5 20.4167H27.5ZM27.5 12.25C28.047 12.25 28.5716 12.4344 28.9584 12.7626C29.3452 13.0908 29.5625 13.5359 29.5625 14C29.5625 14.4641 29.3452 14.9093 28.9584 15.2374C28.5716 15.5656 28.047 15.75 27.5 15.75H5.5C4.95299 15.75 4.42839 15.5656 4.04159 15.2374C3.6548 14.9093 3.4375 14.4641 3.4375 14C3.4375 13.5359 3.6548 13.0908 4.04159 12.7626C4.42839 12.4344 4.95299 12.25 5.5 12.25H27.5ZM27.5 4.08334C28.047 4.08334 28.5716 4.26772 28.9584 4.59591C29.3452 4.9241 29.5625 5.36921 29.5625 5.83334C29.5625 6.29747 29.3452 6.74259 28.9584 7.07078C28.5716 7.39897 28.047 7.58334 27.5 7.58334H5.5C4.95299 7.58334 4.42839 7.39897 4.04159 7.07078C3.6548 6.74259 3.4375 6.29747 3.4375 5.83334C3.4375 5.36921 3.6548 4.9241 4.04159 4.59591C4.42839 4.26772 4.95299 4.08334 5.5 4.08334H27.5Z" fill="#4E580F" fill-opacity="0.8"/>
</g>
<defs>
<clipPath id="clip0_159_31">
<rect width="33" height="28" fill="white"/>
</clipPath>
</defs>
</svg>
