<svg width="512" height="512" viewBox="0 0 512 512" fill="none" xmlns="http://www.w3.org/2000/svg">
<g clip-path="url(#clip0_1:745)">
<path d="M64.0001 0H8.00014C5.87841 0 3.84358 0.842855 2.34329 2.34315C0.842999 3.84344 0.00014454 5.87827 0.00014454 8V20.687C-0.0233013 28.8539 2.80629 36.7725 8.00014 43.075V173.544C4.07014 179.477 0.00014454 186.862 0.00014454 192C0.00014454 197.138 4.07014 204.523 8.00014 210.456V341.544C4.07014 347.477 0.00014454 354.862 0.00014454 360C0.00014454 365.138 4.07014 372.523 8.00014 378.456V472C8.00014 474.122 8.843 476.157 10.3433 477.657C11.8436 479.157 13.8784 480 16.0001 480C18.1219 480 20.1567 479.157 21.657 477.657C23.1573 476.157 24.0001 474.122 24.0001 472V376C24 374.37 23.5018 372.778 22.5721 371.439C19.7001 367.307 16.8081 362.159 16.1001 360C16.8081 357.848 19.7051 352.7 22.5731 348.56C23.5022 347.221 24.0001 345.63 24.0001 344V208C24 206.37 23.5018 204.778 22.5721 203.439C19.7001 199.307 16.8081 194.159 16.1001 192C16.8081 189.848 19.7051 184.7 22.5731 180.56C23.5022 179.221 24.0001 177.63 24.0001 176V40C24.0002 38.9494 23.7933 37.9091 23.3913 36.9385C22.9893 35.9678 22.4 35.0859 21.6571 34.343C19.8581 32.5539 18.4317 30.4257 17.4607 28.0817C16.4896 25.7376 15.9932 23.2242 16.0001 20.687V16H56.0001V20.687C56.0071 23.2242 55.5106 25.7376 54.5396 28.0817C53.5686 30.4257 52.1422 32.5539 50.3431 34.343C49.6003 35.0859 49.011 35.9678 48.609 36.9385C48.207 37.9091 48.0001 38.9494 48.0001 40V176C48.0003 177.63 48.4985 179.222 49.4281 180.561C50.1911 181.661 50.9551 182.832 51.6801 184H40.0001C37.8784 184 35.8436 184.843 34.3433 186.343C32.843 187.843 32.0001 189.878 32.0001 192C32.0001 194.122 32.843 196.157 34.3433 197.657C35.8436 199.157 37.8784 200 40.0001 200H51.6781C50.9531 201.167 50.1901 202.339 49.4281 203.439C48.4985 204.778 48.0003 206.37 48.0001 208V344C48.0003 345.63 48.4985 347.222 49.4281 348.561C50.1911 349.661 50.9551 350.832 51.6801 352H40.0001C37.8784 352 35.8436 352.843 34.3433 354.343C32.843 355.843 32.0001 357.878 32.0001 360C32.0001 362.122 32.843 364.157 34.3433 365.657C35.8436 367.157 37.8784 368 40.0001 368H51.6781C50.9531 369.167 50.1901 370.339 49.4281 371.439C48.4985 372.778 48.0003 374.37 48.0001 376V504C48.0001 506.122 48.843 508.157 50.3433 509.657C51.8436 511.157 53.8784 512 56.0001 512C58.1219 512 60.1567 511.157 61.657 509.657C63.1573 508.157 64.0001 506.122 64.0001 504V378.456C67.9301 372.523 72.0001 365.138 72.0001 360C72.0001 354.862 67.9301 347.477 64.0001 341.544V210.456C67.9301 204.523 72.0001 197.138 72.0001 192C72.0001 186.862 67.9301 179.477 64.0001 173.544V43.075C69.194 36.7725 72.0236 28.8539 72.0001 20.687V8C72.0001 5.87827 71.1573 3.84344 69.657 2.34315C68.1567 0.842855 66.1219 0 64.0001 0V0Z" fill="#9B876A"/>
<path d="M144 304H168.57C170.692 304 172.727 303.157 174.227 301.657C175.727 300.157 176.57 298.122 176.57 296C176.57 293.878 175.727 291.843 174.227 290.343C172.727 288.843 170.692 288 168.57 288H144V274.456C147.93 268.523 152 261.138 152 256C152 250.862 147.93 243.477 144 237.544V171.075C147.001 167.433 149.233 163.221 150.562 158.693L171.291 137.964C180.671 143.108 198.454 152 209.33 152C213.284 151.903 217.227 151.535 221.13 150.9C245.407 147.354 289.998 136.236 291.884 135.766C293.615 135.334 295.152 134.335 296.25 132.928C297.349 131.522 297.945 129.789 297.945 128.004C297.945 126.22 297.349 124.487 296.25 123.081C295.152 121.674 293.615 120.675 291.884 120.243C291.652 120.185 268.484 114.402 246.584 109.823C245.556 109.608 244.495 109.598 243.463 109.793C242.43 109.988 241.447 110.384 240.567 110.959C239.688 111.535 238.931 112.277 238.339 113.145C237.747 114.013 237.332 114.989 237.117 116.017C236.902 117.046 236.891 118.106 237.086 119.139C237.281 120.171 237.678 121.155 238.253 122.034C238.828 122.913 239.571 123.671 240.439 124.263C241.307 124.855 242.283 125.27 243.311 125.485C247.205 126.299 251.14 127.152 254.979 128.004C242.373 130.804 228.679 133.627 218.825 135.067C215.687 135.591 212.517 135.904 209.337 136.004C205.489 136.004 198.281 133.33 190.837 129.896C199.907 126.596 209.737 122.161 214.772 117.125C226.866 105.025 258.138 53.144 261.664 47.268C262.583 45.7381 262.963 43.945 262.745 42.174C262.528 40.4029 261.724 38.7554 260.462 37.4936C259.201 36.2318 257.553 35.428 255.782 35.2101C254.011 34.9922 252.218 35.3726 250.688 36.291C244.812 39.817 192.926 71.091 180.831 83.184C175.794 88.22 171.36 98.052 168.058 107.123C164.624 99.68 161.95 92.471 161.95 88.614C162.05 85.4353 162.363 82.2669 162.886 79.13C164.326 69.272 167.15 55.578 169.95 42.973C170.802 46.812 171.656 50.746 172.469 54.641C172.903 56.7179 174.145 58.5373 175.92 59.6989C177.696 60.8605 179.86 61.2691 181.937 60.835C184.014 60.4008 185.833 59.1594 186.995 57.3838C188.157 55.6082 188.565 53.4439 188.131 51.367C183.552 29.467 177.77 6.29497 177.711 6.06697C177.278 4.33624 176.279 2.79985 174.873 1.70199C173.467 0.604133 171.734 0.0078125 169.95 0.0078125C168.166 0.0078125 166.433 0.604133 165.027 1.70199C163.621 2.79985 162.622 4.33624 162.189 6.06697C161.718 7.95197 150.601 52.542 147.053 76.825C146.419 80.7257 146.051 84.6652 145.953 88.616C145.953 99.492 154.845 117.275 159.99 126.655L151.904 134.741C151.604 132.861 150.644 131.149 149.195 129.913C147.746 128.677 145.904 127.999 144 128H88.0001C85.8784 128 83.8436 128.843 82.3433 130.343C80.843 131.843 80.0001 133.878 80.0001 136V148.687C79.9767 156.854 82.8063 164.772 88.0001 171.075V237.544C84.0701 243.477 80.0001 250.862 80.0001 256C80.0001 261.138 84.0701 268.523 88.0001 274.456V405.544C84.0701 411.477 80.0001 418.862 80.0001 424C80.0001 429.138 84.0701 436.523 88.0001 442.456V504C88.0001 506.122 88.843 508.157 90.3433 509.657C91.8436 511.157 93.8784 512 96.0001 512C98.1219 512 100.157 511.157 101.657 509.657C103.157 508.157 104 506.122 104 504V440C103.999 438.371 103.502 436.78 102.574 435.441C99.7051 431.3 96.8081 426.151 96.1001 424C96.8091 421.849 99.7061 416.7 102.573 412.561C103.502 411.222 104 409.63 104 408V272C103.999 270.371 103.502 268.78 102.574 267.441C99.7051 263.3 96.8081 258.151 96.1001 256C96.8091 253.849 99.7061 248.7 102.573 244.561C103.502 243.222 104 241.63 104 240V168C104 166.949 103.793 165.909 103.391 164.938C102.989 163.968 102.4 163.086 101.657 162.343C99.858 160.554 98.4317 158.426 97.4607 156.082C96.4896 153.738 95.9932 151.224 96.0001 148.687V144H136V148.687C136.007 151.224 135.511 153.738 134.54 156.082C133.569 158.426 132.142 160.554 130.343 162.343C129.6 163.086 129.011 163.968 128.609 164.938C128.207 165.909 128 166.949 128 168V240C128.001 241.629 128.498 243.22 129.426 244.559C130.189 245.659 130.952 246.832 131.677 248H120C117.878 248 115.844 248.843 114.343 250.343C112.843 251.843 112 253.878 112 256C112 258.122 112.843 260.157 114.343 261.657C115.844 263.157 117.878 264 120 264H131.677C130.953 265.167 130.19 266.339 129.428 267.439C128.499 268.778 128 270.37 128 272V408C128.001 409.629 128.498 411.22 129.426 412.559C130.189 413.659 130.952 414.832 131.677 416H120C117.878 416 115.844 416.843 114.343 418.343C112.843 419.843 112 421.878 112 424C112 426.122 112.843 428.157 114.343 429.657C115.844 431.157 117.878 432 120 432H131.677C130.953 433.167 130.19 434.339 129.428 435.439C128.499 436.778 128 438.37 128 440V504C128 506.122 128.843 508.157 130.343 509.657C131.844 511.157 133.878 512 136 512C138.122 512 140.157 511.157 141.657 509.657C143.157 508.157 144 506.122 144 504V442.456C147.93 436.523 152 429.138 152 424C152 418.862 147.93 411.477 144 405.544V304ZM192.135 94.493C197.435 89.193 214.076 78.056 230.078 67.863C219.886 83.863 208.75 100.505 203.447 105.807C200.247 109.007 191.124 112.889 181.899 116.042C185.053 106.817 188.931 97.7 192.135 94.493Z" fill="#9B876A"/>
<path d="M504 288H480V232C480 223.513 476.629 215.374 470.627 209.373C464.626 203.372 456.487 200 448 200C439.513 200 431.374 203.372 425.373 209.373C419.371 215.374 416 223.513 416 232V240C416 242.122 416.843 244.157 418.343 245.657C419.843 247.157 421.878 248 424 248C426.122 248 428.157 247.157 429.657 245.657C431.157 244.157 432 242.122 432 240V232C432 227.757 433.686 223.687 436.686 220.686C439.687 217.686 443.757 216 448 216C452.243 216 456.313 217.686 459.314 220.686C462.314 223.687 464 227.757 464 232V288H416C413.878 288 411.843 288.843 410.343 290.343C408.843 291.844 408 293.878 408 296C408 298.122 408.843 300.157 410.343 301.657C411.843 303.157 413.878 304 416 304H496V312C495.998 314.121 495.154 316.155 493.654 317.654C492.154 319.154 490.121 319.998 488 320H306C303.034 315.54 299.104 311.802 294.5 309.063C295.559 308.191 296.566 307.258 297.547 306.296C297.68 306.18 297.814 306.068 297.94 305.941C298.4 305.482 298.84 305.009 299.281 304.534C299.306 304.507 299.333 304.482 299.358 304.455C305.023 309.235 312.172 311.901 319.584 311.998C326.996 312.094 334.211 309.615 339.999 304.984C346.352 310.076 354.407 312.555 362.524 311.914C370.64 311.274 378.207 307.563 383.682 301.537C389.158 295.512 392.13 287.625 391.993 279.484C391.855 271.344 388.619 263.562 382.944 257.724C382.839 257.606 382.744 257.485 382.626 257.372C379.852 254.596 376.589 252.356 373 250.767C372.72 250.641 372.439 250.517 372.154 250.4C372.045 250.355 371.935 250.313 371.826 250.27C371.436 250.115 371.042 249.967 370.645 249.825L370.534 249.787C369.438 249.402 368.322 249.077 367.191 248.813C365.843 243.019 362.912 237.714 358.725 233.488C354.538 229.262 349.259 226.283 343.478 224.881C342.087 215.615 338.015 206.959 331.764 199.979C325.513 192.999 317.356 188.001 308.299 185.601C299.242 183.201 289.68 183.504 280.793 186.472C271.906 189.44 264.081 194.944 258.284 202.305C253.385 199.988 247.847 199.397 242.569 200.626C237.291 201.856 232.585 204.834 229.214 209.078C225.844 213.321 224.008 218.58 224.005 223.999C224.002 229.418 225.832 234.679 229.197 238.926C224.42 243.928 220.794 249.912 218.571 256.461C210.668 257.817 203.563 262.091 198.66 268.436C193.758 274.781 191.417 282.735 192.099 290.724C192.782 298.714 196.439 306.155 202.347 311.577C208.254 316.998 215.982 320.004 224 320C224.003 325.8 225.581 331.49 228.565 336.463C231.549 341.436 235.828 345.506 240.944 348.237C242.965 356.833 248.075 364.387 255.302 369.462C262.529 374.536 271.368 376.779 280.14 375.762C288.912 374.745 297.004 370.54 302.878 363.946C308.753 357.353 311.999 348.831 312 340C311.995 338.664 311.916 337.328 311.765 336H480V432C479.981 448.968 473.232 465.236 461.234 477.234C449.236 489.232 432.968 495.981 416 496H168C165.878 496 163.843 496.843 162.343 498.343C160.843 499.844 160 501.878 160 504C160 506.122 160.843 508.157 162.343 509.657C163.843 511.157 165.878 512 168 512H416C437.21 511.976 457.544 503.54 472.542 488.542C487.54 473.544 495.976 453.21 496 432V334.624C500.676 332.965 504.723 329.9 507.588 325.849C510.452 321.799 511.994 316.961 512 312V296C512 293.878 511.157 291.844 509.657 290.343C508.157 288.843 506.122 288 504 288ZM276 360C271.022 360.022 266.216 358.178 262.53 354.83C258.845 351.483 256.549 346.876 256.094 341.918C255.949 340.392 255.368 338.94 254.421 337.734C253.474 336.529 252.201 335.621 250.753 335.118C247.613 334.027 244.89 331.985 242.963 329.276C241.036 326.566 240.001 323.325 240 320C239.993 317.618 240.524 315.264 241.553 313.115C242.267 311.622 242.5 309.945 242.22 308.313C241.941 306.682 241.162 305.178 239.992 304.008C238.822 302.838 237.318 302.059 235.687 301.78C234.056 301.5 232.378 301.733 230.885 302.447C228.736 303.476 226.383 304.007 224 304C219.757 304 215.687 302.314 212.686 299.314C209.686 296.313 208 292.244 208 288C208 283.757 209.686 279.687 212.686 276.686C215.687 273.686 219.757 272 224 272C224.119 272 224.237 272.006 224.355 272.01L224.533 272.017C226.425 272.086 228.281 271.48 229.766 270.305C231.251 269.131 232.27 267.465 232.639 265.608C234.349 257.351 239.226 250.093 246.225 245.391C247.424 244.588 248.384 243.476 249.002 242.172C249.621 240.868 249.875 239.422 249.738 237.985C249.601 236.548 249.079 235.176 248.225 234.012C247.372 232.848 246.219 231.937 244.89 231.375C243.772 230.903 242.777 230.183 241.978 229.269C241.18 228.355 240.6 227.272 240.282 226.101C239.965 224.93 239.917 223.702 240.144 222.51C240.371 221.318 240.866 220.193 241.592 219.221C242.318 218.249 243.255 217.454 244.333 216.897C245.411 216.341 246.602 216.037 247.815 216.008C249.028 215.979 250.231 216.227 251.334 216.732C252.438 217.237 253.411 217.987 254.182 218.924C255.025 219.949 256.11 220.747 257.339 221.248C258.568 221.749 259.902 221.936 261.222 221.793C262.541 221.65 263.804 221.181 264.897 220.428C265.99 219.676 266.878 218.663 267.482 217.481C270.43 211.691 275.071 206.936 280.787 203.847C286.504 200.759 293.025 199.484 299.483 200.191C305.942 200.899 312.032 203.556 316.944 207.809C321.857 212.062 325.358 217.709 326.982 224H320C317.878 224 315.843 224.843 314.343 226.343C312.843 227.844 312 229.878 312 232C312 234.122 312.843 236.157 314.343 237.657C315.843 239.157 317.878 240 320 240H336C339.079 240.005 342.091 240.897 344.676 242.569C347.261 244.242 349.309 246.625 350.574 249.432C345.59 250.957 341.057 253.683 337.374 257.372C335.874 258.872 335.03 260.907 335.03 263.029C335.03 265.151 335.873 267.186 337.373 268.686C338.873 270.187 340.908 271.03 343.03 271.03C345.152 271.03 347.187 270.187 348.687 268.687C350.534 266.841 352.805 265.476 355.301 264.71C357.797 263.944 360.443 263.801 363.007 264.293C363.026 264.293 363.045 264.293 363.064 264.302C363.457 264.378 363.846 264.481 364.234 264.586C364.358 264.621 364.486 264.646 364.609 264.686C364.909 264.777 365.209 264.886 365.509 264.999C365.709 265.074 365.922 265.141 366.123 265.224C366.324 265.307 366.541 265.418 366.751 265.515C367.027 265.644 367.306 265.768 367.573 265.915C367.696 265.981 367.814 266.059 367.936 266.129C368.275 266.324 368.614 266.519 368.936 266.738C368.962 266.755 368.985 266.776 369.011 266.793C370.967 268.122 372.604 269.867 373.804 271.904C375.004 273.941 375.738 276.219 375.953 278.574C376.168 280.928 375.858 283.301 375.047 285.522C374.235 287.742 372.941 289.755 371.258 291.416C369.575 293.077 367.545 294.344 365.314 295.126C363.083 295.909 360.706 296.187 358.354 295.941C356.003 295.695 353.735 294.931 351.714 293.703C349.693 292.476 347.97 290.816 346.667 288.843C345.937 287.745 344.947 286.843 343.784 286.22C342.622 285.597 341.323 285.271 340.004 285.271C338.685 285.271 337.386 285.597 336.224 286.22C335.061 286.843 334.071 287.745 333.341 288.843C331.999 290.871 330.211 292.566 328.115 293.799C326.018 295.032 323.668 295.771 321.243 295.958C318.818 296.146 316.383 295.778 314.122 294.882C311.86 293.986 309.833 292.587 308.195 290.789C311.928 281.979 312.947 272.255 311.12 262.862C309.294 253.469 304.707 244.835 297.945 238.065C296.445 236.565 294.41 235.722 292.288 235.722C290.166 235.722 288.131 236.565 286.631 238.065C285.131 239.565 284.288 241.6 284.288 243.722C284.288 245.844 285.131 247.879 286.631 249.379C291.569 254.33 294.752 260.761 295.695 267.69C296.638 274.618 295.288 281.666 291.853 287.756C291.665 288.089 291.472 288.418 291.273 288.741L291.132 288.966C290.914 289.315 290.691 289.66 290.46 289.999C290.427 290.048 290.392 290.099 290.36 290.144C290.114 290.502 289.86 290.856 289.602 291.202L289.572 291.24C288.829 292.225 288.029 293.166 287.178 294.059C287.037 294.207 286.899 294.359 286.755 294.504C283.422 297.882 279.378 300.476 274.918 302.097C273.799 302.502 272.785 303.152 271.95 304H264C261.878 304 259.843 304.843 258.343 306.343C256.843 307.844 256 309.878 256 312C256 314.122 256.843 316.157 258.343 317.657C259.843 319.157 261.878 320 264 320H277.359C277.547 320.031 277.73 320.077 277.921 320.1C283.02 320.612 287.729 323.061 291.074 326.943C294.42 330.825 296.148 335.843 295.902 340.962C295.655 346.081 293.453 350.91 289.75 354.453C286.047 357.995 281.125 359.981 276 360Z" fill="#9B876A"/>
<path d="M160 328C160 330.122 160.843 332.157 162.343 333.657C163.843 335.157 165.878 336 168 336H192C194.122 336 196.157 335.157 197.657 333.657C199.157 332.157 200 330.122 200 328C200 325.878 199.157 323.843 197.657 322.343C196.157 320.843 194.122 320 192 320H168C165.878 320 163.843 320.843 162.343 322.343C160.843 323.843 160 325.878 160 328Z" fill="#9B876A"/>
<path d="M416 480C428.726 479.986 440.927 474.924 449.926 465.926C458.924 456.927 463.986 444.726 464 432V392C464 389.878 463.157 387.843 461.657 386.343C460.157 384.843 458.122 384 456 384C453.878 384 451.843 384.843 450.343 386.343C448.843 387.843 448 389.878 448 392V432C447.99 440.484 444.616 448.618 438.617 454.617C432.618 460.616 424.484 463.99 416 464H408C405.878 464 403.843 464.843 402.343 466.343C400.843 467.843 400 469.878 400 472C400 474.122 400.843 476.157 402.343 477.657C403.843 479.157 405.878 480 408 480H416Z" fill="#9B876A"/>
<path d="M376 480C380.418 480 384 476.418 384 472C384 467.582 380.418 464 376 464C371.582 464 368 467.582 368 472C368 476.418 371.582 480 376 480Z" fill="#9B876A"/>
<path d="M16 512C20.4183 512 24 508.418 24 504C24 499.582 20.4183 496 16 496C11.5817 496 8 499.582 8 504C8 508.418 11.5817 512 16 512Z" fill="#9B876A"/>
<path d="M360 192C364.747 192 369.387 190.592 373.334 187.955C377.28 185.318 380.357 181.57 382.173 177.184C383.99 172.799 384.465 167.973 383.539 163.318C382.613 158.662 380.327 154.386 376.971 151.029C373.614 147.673 369.338 145.387 364.682 144.461C360.027 143.535 355.201 144.01 350.816 145.827C346.43 147.643 342.682 150.72 340.045 154.666C337.408 158.613 336 163.253 336 168C336.007 174.363 338.538 180.463 343.038 184.962C347.537 189.462 353.637 191.993 360 192ZM360 160C361.582 160 363.129 160.469 364.445 161.348C365.76 162.227 366.786 163.477 367.391 164.939C367.997 166.4 368.155 168.009 367.846 169.561C367.538 171.113 366.776 172.538 365.657 173.657C364.538 174.776 363.113 175.538 361.561 175.846C360.009 176.155 358.4 175.997 356.939 175.391C355.477 174.786 354.227 173.76 353.348 172.445C352.469 171.129 352 169.582 352 168C352.002 165.879 352.846 163.846 354.346 162.346C355.846 160.846 357.879 160.002 360 160Z" fill="#9B876A"/>
<path d="M408 136C414.329 136 420.516 134.123 425.778 130.607C431.041 127.091 435.142 122.093 437.564 116.246C439.986 110.399 440.62 103.965 439.385 97.7571C438.15 91.5497 435.103 85.8479 430.627 81.3726C426.152 76.8973 420.45 73.8496 414.243 72.6149C408.035 71.3802 401.601 72.0139 395.754 74.4359C389.907 76.8579 384.909 80.9594 381.393 86.2218C377.877 91.4841 376 97.671 376 104C376.01 112.484 379.384 120.618 385.383 126.617C391.382 132.616 399.516 135.99 408 136ZM408 88C411.165 88 414.258 88.9384 416.889 90.6965C419.52 92.4546 421.571 94.9535 422.782 97.8771C423.993 100.801 424.31 104.018 423.693 107.121C423.075 110.225 421.551 113.076 419.314 115.314C417.076 117.551 414.225 119.075 411.121 119.693C408.018 120.31 404.801 119.993 401.877 118.782C398.953 117.571 396.455 115.52 394.696 112.889C392.938 110.258 392 107.165 392 104C392.005 99.7581 393.692 95.6914 396.692 92.6919C399.691 89.6924 403.758 88.005 408 88Z" fill="#9B876A"/>
<path d="M340 368C334.462 368 329.049 369.642 324.444 372.719C319.839 375.796 316.251 380.169 314.131 385.285C312.012 390.401 311.458 396.031 312.538 401.463C313.618 406.894 316.285 411.883 320.201 415.799C324.117 419.715 329.106 422.382 334.537 423.462C339.969 424.542 345.599 423.988 350.715 421.869C355.831 419.749 360.204 416.161 363.281 411.556C366.358 406.951 368 401.538 368 396C367.992 388.577 365.039 381.46 359.79 376.21C354.54 370.961 347.423 368.008 340 368ZM340 408C337.627 408 335.307 407.296 333.333 405.978C331.36 404.659 329.822 402.785 328.913 400.592C328.005 398.399 327.768 395.987 328.231 393.659C328.694 391.331 329.836 389.193 331.515 387.515C333.193 385.836 335.331 384.694 337.659 384.231C339.987 383.768 342.399 384.005 344.592 384.913C346.785 385.822 348.659 387.36 349.978 389.333C351.296 391.307 352 393.627 352 396C351.997 399.182 350.731 402.232 348.481 404.481C346.232 406.731 343.182 407.997 340 408Z" fill="#9B876A"/>
<path d="M288 424C288 419.253 286.592 414.613 283.955 410.666C281.318 406.72 277.57 403.643 273.184 401.827C268.799 400.01 263.973 399.535 259.318 400.461C254.662 401.387 250.386 403.673 247.029 407.029C243.673 410.386 241.387 414.662 240.461 419.318C239.535 423.973 240.01 428.799 241.827 433.184C243.643 437.57 246.72 441.318 250.666 443.955C254.613 446.592 259.253 448 264 448C270.363 447.993 276.463 445.462 280.962 440.962C285.462 436.463 287.993 430.363 288 424ZM256 424C256 422.418 256.469 420.871 257.348 419.555C258.227 418.24 259.477 417.214 260.939 416.609C262.4 416.003 264.009 415.845 265.561 416.154C267.113 416.462 268.538 417.224 269.657 418.343C270.776 419.462 271.538 420.887 271.846 422.439C272.155 423.991 271.997 425.6 271.391 427.061C270.786 428.523 269.76 429.773 268.445 430.652C267.129 431.531 265.582 432 264 432C261.879 431.998 259.846 431.154 258.346 429.654C256.846 428.154 256.002 426.121 256 424Z" fill="#9B876A"/>
</g>
<defs>
<clipPath id="clip0_1:745">
<rect width="512" height="512" fill="white"/>
</clipPath>
</defs>
</svg>
