<svg width="512" height="512" viewBox="0 0 512 512" fill="none" xmlns="http://www.w3.org/2000/svg">
<path d="M264 416H280V432H264V416Z" fill="#9B876A"/>
<path d="M288 288H304V304H288V288Z" fill="#9B876A"/>
<path d="M320 224H336V240H320V224Z" fill="#9B876A"/>
<path d="M296 352H312V368H296V352Z" fill="#9B876A"/>
<path d="M479.752 400C489.552 392.704 496 381.128 496 368C496 352.944 487.544 339.96 475.216 333.136C483.032 325.832 488 315.52 488 304C488 281.944 470.056 264 448 264H447.792C452.872 257.296 456 249.04 456 240C456 217.944 438.056 200 416 200H320C297.944 200 280 217.944 280 240C280 249.04 283.128 257.296 288.208 264H288C265.944 264 248 281.944 248 304C248 319.056 256.456 332.04 268.784 338.864C260.968 346.168 256 356.48 256 368C256 377.04 259.128 385.296 264.208 392H264C254.96 392 246.704 395.128 240 400.208V136C240 127.176 232.824 120 224 120H160V111.192C169.776 109.248 174.96 103.928 177.6 99.2642C190.952 75.6882 164.328 29.0002 158.856 19.8802C155.968 15.0562 148.024 15.0562 145.136 19.8802C139.664 29.0002 113.04 75.6882 126.392 99.2642C129.032 103.928 134.216 109.248 143.992 111.192V120H79.992C71.168 120 63.992 127.176 63.992 136V289.312L60.696 288.328C59.96 288.112 59.192 288 58.424 288C47.92 288 38.336 293.768 33.408 303.048C31.256 307.096 30.816 311.824 32.176 315.976C32.344 316.496 32.056 317.064 31.56 317.232C27.128 318.688 23.552 321.64 21.496 325.52L19.384 329.48C15.392 337.016 14.912 345.872 18.088 353.792C20.888 360.784 26.336 366.216 33.128 369.32C32.984 369.432 32.856 369.528 32.712 369.648C26.064 375 22.12 382.968 21.896 391.504C21.688 400.04 25.216 408.192 31.592 413.88L34.928 416.856C38.272 419.84 42.76 421.352 47.208 421.144C47.808 421.04 48.24 421.536 48.272 422.096C48.536 426.632 50.544 430.784 53.928 433.792L59.304 438.584C60.752 439.872 62.344 440.952 64 441.888V456H24C19.576 456 16 459.584 16 464V488C16 492.416 19.576 496 24 496H488C492.424 496 496 492.416 496 488V464C496 459.584 492.424 456 488 456H487.792C492.872 449.296 496 441.04 496 432C496 418.872 489.552 407.296 479.752 400ZM480 368C480 381.232 469.232 392 456 392H296C282.768 392 272 381.232 272 368C272 354.768 282.768 344 296 344H448H456C469.232 344 480 354.768 480 368ZM320 216H416C429.232 216 440 226.768 440 240C440 253.232 429.232 264 416 264H320C306.768 264 296 253.232 296 240C296 226.768 306.768 216 320 216ZM264 304C264 290.768 274.768 280 288 280H320H416H448C461.232 280 472 290.768 472 304C472 317.232 461.232 328 448 328H296H288C274.768 328 264 317.232 264 304ZM140.32 91.3842C135.104 82.1682 142.768 59.3842 152 40.7362C161.232 59.3842 168.896 82.1682 163.68 91.3842C163.304 92.0482 162.424 93.5042 160 94.6002V80.0002H144V94.6002C141.576 93.5042 140.696 92.0482 140.32 91.3842ZM120 144V136H144V156C144 162.616 138.616 168 132 168C125.384 168 120 162.616 120 156V144ZM80 136H104V144V156V196C104 202.616 98.616 208 92 208C86.312 208 81.368 203.968 80.24 198.408L80 198.456V136ZM80 221.176C83.68 222.936 87.728 224 92 224C107.44 224 120 211.44 120 196V181.192C123.648 182.936 127.688 184 132 184C147.44 184 160 171.44 160 156V136H224V456H80V445.512C86.472 445.176 92.848 442.856 97.76 438.384L100.336 436.048C104.352 432.392 107.872 428.336 110.96 424.008C113.944 428.216 117.344 432.112 121.168 435.656C126.176 441.6 133.176 445.208 140.952 445.848C141.776 445.912 142.584 445.952 143.4 445.952C150.504 445.952 157.256 443.384 162.632 438.592L168 433.8C171.28 430.88 173.288 426.712 173.664 422.064C173.704 421.528 174.376 421.12 174.696 421.144C179.344 421.328 183.728 419.784 186.992 416.864L190.344 413.88C196.712 408.2 200.232 400.048 200.008 391.528C199.784 382.968 195.808 374.984 189.12 369.592C196.704 366.72 202.784 360.904 205.808 353.328C208.976 345.4 208.504 336.52 204.496 328.976L202.4 325.016C200.272 321 196.712 318.056 192.368 316.728C191.92 316.592 191.568 315.936 191.72 315.472C193.04 311.136 192.592 306.544 190.472 302.528L188.376 298.576C184.376 291.032 177.288 285.664 168.952 283.84C164.76 282.928 160.488 282.968 156.408 283.88C154.168 268.16 140.688 256 123.688 256C119.464 256 114.08 258.56 110.856 261.44L110.248 260.968C107.192 257.816 102.824 256 97.496 256C91.048 256 85.064 257.944 80 261.208V221.176ZM58.584 409.448C55.2 406.432 50.848 404.912 45.616 404.912C45.6 404.912 45.592 404.912 45.576 404.912L42.24 401.936C39.384 399.384 37.792 395.728 37.896 391.904C37.992 388.08 39.752 384.512 43.192 381.744C46.392 379.176 49.464 376.824 52.592 374.784C59.24 375.96 65.976 376.6 72.752 376.6C75.336 376.6 77.92 376.512 80.52 376.344L79.472 360.376C66.392 361.232 53.472 359.584 41.04 355.456C37.328 354.224 34.376 351.448 32.928 347.84C31.488 344.256 31.696 340.392 33.504 336.984L35.616 333.016C35.704 332.848 36.032 332.592 36.56 332.416C45.392 329.488 50.256 319.904 47.536 310.536C49.512 306.8 53.224 304.376 57.384 304.032L69.776 307.72C72.904 317.048 77.064 325.984 82.504 334.336L95.912 325.6C88.408 314.08 83.408 301.368 81.048 287.824C81.392 279.048 88.632 272 97.496 272L98.76 272.096C105.224 278.776 116.744 278.744 123.16 272.112L124.432 272C133.288 272 140.544 279.048 140.872 287.832C140.52 289.824 140.048 291.792 139.584 293.752C132.216 300.152 125.64 307.392 120.064 315.448L133.224 324.56C139.224 315.888 146.512 308.248 154.88 301.848C157.912 299.52 161.792 298.648 165.544 299.472C169.288 300.288 172.456 302.696 174.256 306.08L176.424 310.784C175.088 315.12 175.528 319.728 177.656 323.744C179.784 327.752 183.344 330.696 188.272 332.52L190.368 336.472C192.168 339.848 192.376 343.832 190.952 347.384C189.536 350.936 186.64 353.672 183.024 354.88C179.264 356.136 175.264 357.128 171.16 357.952C163.144 353.736 154.672 350.384 145.92 348.232L142.104 363.768C155.504 367.064 168.28 373.36 179.048 381.984C182.104 384.432 183.904 388.056 184.008 391.944C184.112 395.808 182.576 399.352 179.696 401.928L176.344 404.92C176.2 405.048 175.664 405.2 175.264 405.144C165.856 404.664 158.432 411.688 157.712 420.784C157.672 421.336 157.512 421.712 157.352 421.848L151.984 426.64C149.296 429.032 145.888 430.176 142.264 429.896C138.688 429.6 135.472 427.896 133.216 425.104C132.96 424.784 132.68 424.488 132.384 424.216C127.192 419.488 123.008 413.912 119.776 407.688C122.632 400.344 124.408 392.536 124.856 384.448L108.888 383.56C108.016 399.224 101.152 413.664 89.576 424.216L87 426.552C82.416 430.736 74.616 430.776 69.968 426.64L64.24 421.168C63.984 416.632 61.976 412.472 58.584 409.448ZM480 480H32V472H480V480ZM456 456H264C250.768 456 240 445.232 240 432C240 418.768 250.768 408 264 408H456C469.232 408 480 418.768 480 432C480 445.232 469.232 456 456 456Z" fill="#9B876A"/>
<path d="M299.76 94.192C292.432 98.768 282.4 105.04 282.4 117.984C282.4 130.928 292.432 137.2 299.76 141.784C306.6 146.056 309.6 148.32 309.6 152H325.6C325.6 139.064 315.568 132.792 308.24 128.208C301.4 123.928 298.4 121.664 298.4 117.976C298.4 114.296 301.4 112.032 308.24 107.752C315.568 103.168 325.6 96.896 325.6 83.952C325.6 71.016 315.568 64.752 308.24 60.168C301.4 55.896 298.4 53.632 298.4 49.952C298.4 46.288 301.4 44.024 308.232 39.76C315.56 35.192 325.6 28.928 325.6 16H309.6C309.6 19.672 306.6 21.928 299.768 26.2C292.44 30.776 282.4 37.04 282.4 49.968C282.4 62.904 292.44 69.176 299.768 73.752C306.6 78.024 309.6 80.28 309.6 83.96C309.6 87.648 306.6 89.912 299.76 94.192Z" fill="#9B876A"/>
<path d="M363.76 94.192C356.432 98.768 346.4 105.04 346.4 117.984C346.4 130.928 356.432 137.2 363.76 141.784C370.6 146.056 373.6 148.32 373.6 152H389.6C389.6 139.064 379.568 132.792 372.24 128.208C365.4 123.928 362.4 121.664 362.4 117.976C362.4 114.296 365.4 112.032 372.24 107.752C379.568 103.168 389.6 96.896 389.6 83.952C389.6 71.016 379.568 64.752 372.24 60.168C365.4 55.896 362.4 53.632 362.4 49.952C362.4 46.288 365.4 44.024 372.232 39.76C379.56 35.192 389.6 28.928 389.6 16H373.6C373.6 19.672 370.6 21.928 363.768 26.2C356.44 30.776 346.4 37.04 346.4 49.968C346.4 62.904 356.44 69.176 363.768 73.752C370.6 78.024 373.6 80.28 373.6 83.96C373.6 87.648 370.6 89.912 363.76 94.192Z" fill="#9B876A"/>
<path d="M427.76 94.192C420.432 98.768 410.4 105.04 410.4 117.984C410.4 130.928 420.432 137.2 427.76 141.784C434.6 146.056 437.6 148.32 437.6 152H453.6C453.6 139.064 443.568 132.792 436.24 128.208C429.4 123.928 426.4 121.664 426.4 117.976C426.4 114.296 429.4 112.032 436.24 107.752C443.568 103.168 453.6 96.896 453.6 83.952C453.6 71.016 443.568 64.752 436.24 60.168C429.4 55.896 426.4 53.632 426.4 49.952C426.4 46.288 429.4 44.024 436.232 39.76C443.56 35.192 453.6 28.928 453.6 16H437.6C437.6 19.672 434.6 21.928 427.768 26.2C420.44 30.776 410.4 37.04 410.4 49.968C410.4 62.904 420.44 69.176 427.768 73.752C434.6 78.024 437.6 80.28 437.6 83.96C437.6 87.648 434.6 89.912 427.76 94.192Z" fill="#9B876A"/>
<path d="M112 376C125.232 376 136 365.232 136 352C136 338.768 125.232 328 112 328C98.768 328 88 338.768 88 352C88 365.232 98.768 376 112 376ZM112 344C116.416 344 120 347.592 120 352C120 356.408 116.416 360 112 360C107.584 360 104 356.408 104 352C104 347.592 107.584 344 112 344Z" fill="#9B876A"/>
</svg>
