<svg width="512" height="512" viewBox="0 0 512 512" fill="none" xmlns="http://www.w3.org/2000/svg">
<path d="M16 328V464C16 481.648 30.352 496 48 496H320C326.16 496 331.864 494.168 336.752 491.144C336.952 491.616 337.104 492.104 337.408 492.536C338.928 494.744 341.416 496 344 496C344.832 496 345.68 495.872 346.504 495.6C349.016 494.768 408.36 474.952 437.656 445.656C478.664 404.648 494.976 318.32 495.848 313.52C496.296 311.232 495.728 308.8 494.168 306.904C491.72 303.944 487.536 303.144 484.192 304.96C484.192 304.96 413.424 343.192 412.344 343.776C410.888 344.56 409.608 345.576 408.208 346.424C423.24 296.12 431.152 244.176 431.84 191.528C465.656 187.784 493.072 160.232 495.784 125.672C496.056 122.128 495.832 118.32 495.064 113.688L479.888 22.6798C479.288 19.0638 476.312 16.3278 472.656 16.0238C469.176 15.7598 465.624 17.9278 464.432 21.3998L450.208 62.8958C448.152 56.1838 445.744 49.5838 442.608 43.3118L431.16 20.4238C428.44 14.9998 419.568 14.9998 416.848 20.4238L405.4 43.3118C402.28 49.5518 399.88 56.1118 397.832 62.7918L383.568 21.3998C382.376 17.9278 378.832 15.6878 375.344 16.0318C371.696 16.3358 368.72 19.0798 368.12 22.6878L352.952 113.712C352.184 118.328 351.96 122.128 352.232 125.688C354.928 160.128 382.184 187.608 415.856 191.48C415.056 250.8 404.84 309.208 385.344 365.264C371.848 379.696 361.288 397.224 352.016 414.824V328C352.016 321.168 349.824 314.872 346.168 309.664C354.304 305.824 360 297.592 360 288C360 274.768 349.232 264 336 264H192V247.272C204.04 245.192 210.712 238.648 214.24 232.944C235.288 198.888 195.736 117.584 191.152 108.424C188.432 103 179.56 103 176.84 108.424C172.264 117.584 132.704 198.888 153.752 232.944C157.28 238.648 163.952 245.192 175.992 247.272V264H32C18.768 264 8 274.768 8 288C8 297.592 13.696 305.824 21.848 309.664C18.192 314.864 16 321.168 16 328ZM455.76 96.0318L469.312 56.5118L479.28 116.312C479.824 119.632 480 122.216 479.824 124.44C478.456 141.848 468.992 156.944 455.368 166.232C455.768 164.216 456 162.136 456 160V100.072C456 98.7278 455.808 97.3838 455.76 96.0318ZM368.168 124.448C368 122.216 368.168 119.624 368.712 116.328L378.704 56.4078L392.248 95.7118C392.208 97.1678 392 98.6158 392 100.072V160C392 162.136 392.232 164.216 392.632 166.232C379 156.944 369.536 141.848 368.168 124.448ZM408 160V100.072C408 82.9358 412.048 65.7838 419.712 50.4638L424 41.8878L428.288 50.4718C435.952 65.7838 440 82.9438 440 100.072V160C440 168.824 432.824 176 424 176C415.176 176 408 168.824 408 160ZM426.344 434.344C411.896 448.792 388.28 461.072 369.624 469.32L471.768 344.48C463.496 372.744 448.8 411.896 426.344 434.344ZM352 464V449.912C353.696 446.6 355.392 443.256 357.128 439.832C368.72 416.84 381.48 391.6 399.384 373.576L399.424 373.592C399.432 373.56 399.448 373.528 399.456 373.496C405.624 367.296 412.392 361.936 419.96 357.848L419.912 357.76C422.8 356.28 430.976 351.896 456.152 338.296L351.816 465.808C351.848 465.2 352 464.616 352 464ZM336 464C336 472.824 328.824 480 320 480H48C39.176 480 32 472.824 32 464V328C32 319.176 39.176 312 48 312H155.08H304.928C317.04 312 336 310.656 336 328V464ZM167.376 224.536C156.848 207.512 170.104 163.248 184 131.032C197.896 163.256 211.16 207.52 200.624 224.536C199.248 226.76 196.888 229.472 192 230.936V208H176V230.936C171.104 229.472 168.752 226.76 167.376 224.536ZM32 280H336C340.416 280 344 283.592 344 288C344 292.408 340.416 296 335.64 296.008L32 296C27.584 296 24 292.408 24 288C24 283.592 27.584 280 32 280Z" fill="#9B876A"/>
<path d="M16 135.288H32V151.288H16V135.288Z" fill="#9B876A"/>
<path d="M32 119.288H48V135.288H32V119.288Z" fill="#9B876A"/>
<path d="M48 135.288H64V151.288H48V135.288Z" fill="#9B876A"/>
<path d="M32 151.288H48V167.288H32V151.288Z" fill="#9B876A"/>
<path d="M56 31.2881H72V47.2881H56V31.2881Z" fill="#9B876A"/>
<path d="M72 15.2881H88V31.2881H72V15.2881Z" fill="#9B876A"/>
<path d="M88 31.2881H104V47.2881H88V31.2881Z" fill="#9B876A"/>
<path d="M72 47.2881H88V63.2881H72V47.2881Z" fill="#9B876A"/>
<path d="M280 143.288H296V159.288H280V143.288Z" fill="#9B876A"/>
<path d="M296 127.288H312V143.288H296V127.288Z" fill="#9B876A"/>
<path d="M312 143.288H328V159.288H312V143.288Z" fill="#9B876A"/>
<path d="M296 159.288H312V175.288H296V159.288Z" fill="#9B876A"/>
<path d="M248 352H264V368H248V352Z" fill="#9B876A"/>
<path d="M288 352H280V368H288C296.824 368 304 375.176 304 384V408C304 416.824 296.824 424 288 424H80C71.176 424 64 416.824 64 408V384C64 375.176 71.176 368 80 368H232V352H80C62.352 352 48 366.352 48 384V408C48 425.648 62.352 440 80 440H288C305.648 440 320 425.648 320 408V384C320 366.352 305.648 352 288 352Z" fill="#9B876A"/>
<path d="M88 112H104V128H88V112Z" fill="#9B876A"/>
<path d="M256 56H272V72H256V56Z" fill="#9B876A"/>
</svg>
