<svg width="70" height="70" viewBox="0 0 70 70" fill="none" xmlns="http://www.w3.org/2000/svg">
<g clip-path="url(#clip0_129_149)">
<circle cx="35" cy="35" r="35" fill="#E7ABB9"/>
</g>
<g clip-path="url(#clip1_129_149)">
<path d="M34.9788 15C23.9416 15.012 15 23.9624 15 35C15 46.0456 23.9544 55 35 55C46.0456 55 55 46.0456 55 35C54.9918 32.075 54.3421 29.1874 53.0968 26.5408L53.0788 26.5564L52.0092 27.6256L53.0556 32.5312C53.1608 33.494 52.974 33.8692 52.5712 34.5432C51.6548 35.4896 50.5536 35.64 49.5832 35.1184L47.504 34H46.6212C46.6148 33.8048 46.604 33.6116 46.5944 33.418L45.1832 32.646L44.5728 33.0124C44.594 33.3392 44.6116 33.6684 44.6236 34H42.5916L40.8876 35.022C40.3236 35.3604 39.6704 35.466 38.996 35.3804C38.1368 35.1484 37.6504 34.6432 37.4084 34H36V27.348H37.7624L34 23.4808V25.3472H27.3C27.6952 24.218 28.152 23.1756 28.6632 22.2472C30.156 19.5364 32.0284 17.8408 34 17.352V21.206C34.396 20.5292 35.146 20.1924 36 20.012V17.2728C37.356 17.5032 38.6728 18.3076 39.8624 19.6172L40.7624 19.4888L42.26 16.3656C39.9458 15.4635 37.4838 15.0004 35 15L34.9788 15ZM29.392 17.8928C28.4624 18.8336 27.628 19.9808 26.9108 21.2828C26.2388 22.5028 25.6608 23.8696 25.186 25.3476H19.804C22.018 21.8652 25.394 19.1996 29.392 17.8928ZM18.7024 27.348H24.6256C24.1276 29.4128 23.8224 31.652 23.7444 34.0004H17.0288C17.153 31.696 17.7213 29.4369 18.7024 27.348ZM26.692 27.348H34V34H25.7468C25.8316 31.626 26.164 29.3784 26.692 27.348ZM17.0288 36H23.7336C23.7852 38.3424 24.0616 40.5816 24.5312 42.652H18.7024C17.7213 40.5631 17.153 38.3044 17.0288 36ZM25.7336 36H34V42.652H26.592C26.094 40.612 25.7896 38.366 25.7336 36ZM36 36H44.6368C44.5808 38.366 44.276 40.612 43.778 42.652H36V36ZM46.6304 36H52.9712C52.847 38.3044 52.2787 40.5631 51.2976 42.652H45.836C46.304 40.5812 46.5788 38.342 46.6304 36ZM19.804 44.652H25.0584C25.5552 46.286 26.1784 47.788 26.9108 49.118C27.486 50.162 28.138 51.1056 28.8524 51.9248C25.0896 50.5608 21.918 47.9768 19.804 44.652ZM27.1616 44.652H34V52.9712C33.8768 52.9644 33.7552 52.952 33.6328 52.9432C31.7968 52.3432 30.0632 50.6952 28.6632 48.1532C28.092 47.1156 27.5864 45.938 27.1616 44.652ZM36 44.652H43.2084C42.7844 45.9384 42.2784 47.1156 41.7072 48.1532C40.336 50.6432 38.6448 52.2764 36.8508 52.9064C36.5677 52.9347 36.2841 52.9563 36 52.9712V44.652ZM45.31 44.652H50.196C48.1734 47.8344 45.2036 50.3024 41.7048 51.7084C42.3464 50.9404 42.9348 50.0708 43.4592 49.118C44.1916 47.788 44.8144 46.2856 45.31 44.652Z" fill="#4E580F" fill-opacity="0.8"/>
<path d="M45.1336 15C45.0204 14.9987 44.9092 15.0294 44.8127 15.0885C44.7163 15.1477 44.6385 15.233 44.5884 15.3344L41.8628 20.858L35.7672 21.7432C35.6565 21.7595 35.5525 21.8063 35.467 21.8785C35.3816 21.9507 35.318 22.0453 35.2834 22.1517C35.2489 22.2582 35.2448 22.3721 35.2716 22.4807C35.2984 22.5894 35.3551 22.6883 35.4352 22.7664L39.8456 27.0656L38.8048 33.1368C38.786 33.2471 38.7984 33.3605 38.8407 33.4641C38.8829 33.5677 38.9532 33.6574 39.0437 33.7231C39.1343 33.7889 39.2414 33.828 39.353 33.8361C39.4645 33.8441 39.5761 33.8209 39.6752 33.7688L45.1268 30.9032L50.5784 33.7688C50.6775 33.821 50.7891 33.8443 50.9008 33.8363C51.0124 33.8283 51.1196 33.7892 51.2102 33.7234C51.3008 33.6577 51.3712 33.5679 51.4134 33.4642C51.4556 33.3606 51.468 33.2472 51.4492 33.1368L50.408 27.0656L54.8188 22.7664C54.8989 22.6883 54.9556 22.5892 54.9823 22.4806C55.0091 22.3719 55.005 22.2579 54.9703 22.1514C54.9357 22.045 54.872 21.9503 54.7864 21.8782C54.7008 21.8061 54.5968 21.7593 54.486 21.7432L48.3908 20.858L45.6648 15.3344C45.6158 15.2351 45.5402 15.1513 45.4464 15.0922C45.3527 15.0332 45.2444 15.0013 45.1336 15Z" fill="#4E580F" fill-opacity="0.8"/>
</g>
<defs>
<clipPath id="clip0_129_149">
<rect width="70" height="70" fill="white"/>
</clipPath>
<clipPath id="clip1_129_149">
<rect width="40" height="40" fill="white" transform="translate(15 15)"/>
</clipPath>
</defs>
</svg>
