<svg width="70" height="70" viewBox="0 0 70 70" fill="none" xmlns="http://www.w3.org/2000/svg">
<g clip-path="url(#clip0_129_141)">
<circle cx="35" cy="35" r="35" fill="#E7ABB9"/>
<g clip-path="url(#clip1_129_141)">
<path d="M33.7988 48.7987C32.6042 48.5016 31.8522 47.6836 31.4095 46.6175C30.9993 45.6247 30.8691 44.4152 30.8919 43.2302C30.9147 42.0767 31.084 40.9406 31.2728 40.0493C31.5918 38.5741 32.0475 37.1619 32.6237 35.7916C33.1999 34.4284 33.8932 33.1105 34.6777 31.8346C34.6875 31.8206 34.6973 31.8032 34.707 31.7892C37.0508 28.5103 39.847 25.4237 42.998 22.6063C46.1491 19.7888 49.6582 17.251 53.418 15.0733C53.5417 15.0034 53.6784 14.9859 53.8021 15.0174C54.0397 14.9579 54.2904 15.0733 54.4108 15.3145C54.554 15.5976 54.4596 15.9507 54.2025 16.1115C52.1094 17.5342 50.0488 19.1981 48.1283 21.0542C46.3118 22.809 44.6289 24.7281 43.1803 26.7695C41.2793 29.4436 40.2214 31.3872 39.6419 33.2294C39.0625 35.0645 38.9421 36.8333 38.9095 39.1439C38.903 39.5669 38.9193 40.0737 38.9355 40.6155C38.9551 41.3147 38.9779 42.0802 38.9616 42.8562C38.8835 47.0229 37.3568 49.6516 33.7988 48.7987ZM16.1068 53.9023H53.8932V35.4735C53.8932 34.8373 53.6979 34.6486 53.4538 34.6486C53.0241 34.6486 52.4284 34.9317 51.9987 35.1414C51.9206 35.1799 51.8457 35.2149 51.8066 35.2323C49.4401 36.3369 48.9941 36.1412 47.5879 35.5225C47.2201 35.3617 46.7741 35.1624 46.1654 34.9527C44.8763 34.5053 43.7565 34.2081 43.0404 34.5157C42.3796 34.7989 41.9857 35.7077 41.9954 37.7072C41.9954 37.9973 42.0052 38.3015 42.015 38.6021C42.0247 38.8887 42.0313 39.1719 42.0345 39.469C42.0378 40.1926 42.0671 40.8742 42.0931 41.5069C42.1289 42.3843 42.1582 43.1743 42.1257 43.9538C41.6764 53.3814 30.6022 54.7202 28.265 46.4497C27.8092 44.8417 27.7734 42.9401 28.0762 40.7868C28.3333 38.9831 28.8379 36.9941 29.5443 34.8443C27.5456 35.4281 25.5664 35.7742 23.6035 35.8091C21.3216 35.8476 19.0788 35.463 16.8815 34.5472C16.6797 34.5752 16.4974 34.6695 16.3607 34.8164C16.2044 34.9841 16.1068 35.2149 16.1068 35.4735V53.9023ZM55 54.9999H15C15 49.1413 15 41.3321 15 35.4735C15 34.8898 15.2214 34.3584 15.5794 33.9774C15.9342 33.5964 16.429 33.3552 16.9727 33.3552C17.0508 33.3552 17.1257 33.3727 17.1908 33.4041C19.2839 34.2885 21.4193 34.6626 23.5905 34.6241C25.778 34.5857 28.0111 34.1347 30.2767 33.3797C30.5697 33.2853 30.8789 33.4601 30.9668 33.7712C31.0059 33.9005 30.9993 34.0333 30.957 34.1522C30.0781 36.648 29.4629 38.9307 29.1699 40.9581C28.8867 42.9471 28.916 44.6739 29.3164 46.0966C31.3021 53.1123 40.6348 51.9727 41.0189 43.8839C41.0547 43.1533 41.0221 42.3913 40.9863 41.5454C40.9603 40.9127 40.931 40.238 40.9277 39.462C40.9277 39.2033 40.918 38.9167 40.9082 38.6265C40.8984 38.3294 40.8887 38.0288 40.8887 37.6967C40.8757 35.11 41.5299 33.8726 42.6237 33.4006C43.6589 32.9532 44.9967 33.2888 46.4974 33.8096C47.1257 34.0299 47.6009 34.2361 47.998 34.4109C49.0755 34.8863 49.4206 35.0366 51.3607 34.1312C51.4388 34.0928 51.4909 34.0683 51.5462 34.0473C52.0736 33.7956 52.7962 33.4496 53.4538 33.4496C54.3197 33.4566 55 33.925 55 35.47C55 41.3321 55 49.1448 55 54.9999ZM18.0534 36.4733C18.4603 36.4733 18.7923 36.8298 18.7923 37.2668C18.7923 37.7037 18.4603 38.0603 18.0534 38.0603C17.6465 38.0603 17.3145 37.7037 17.3145 37.2668C17.3145 36.8263 17.6465 36.4733 18.0534 36.4733ZM51.9076 36.5292C52.3145 36.5292 52.6465 36.8857 52.6465 37.3227C52.6465 37.7596 52.3145 38.1162 51.9076 38.1162C51.5007 38.1162 51.1686 37.7596 51.1686 37.3227C51.1686 36.8857 51.4974 36.5292 51.9076 36.5292ZM47.8678 36.8473C48.2747 36.8473 48.6068 37.2038 48.6068 37.6408C48.6068 38.0777 48.2747 38.4343 47.8678 38.4343C47.4609 38.4343 47.1289 38.0777 47.1289 37.6408C47.1289 37.2038 47.4609 36.8473 47.8678 36.8473ZM49.3945 39.0181C49.8014 39.0181 50.1335 39.3746 50.1335 39.8116C50.1335 40.2485 49.8014 40.6051 49.3945 40.6051C48.9876 40.6051 48.6556 40.2485 48.6556 39.8116C48.6556 39.3711 48.9876 39.0181 49.3945 39.0181ZM45.752 38.7524C46.1589 38.7524 46.4909 39.1089 46.4909 39.5459C46.4909 39.9828 46.1589 40.3394 45.752 40.3394C45.3451 40.3394 45.013 39.9828 45.013 39.5459C45.0098 39.1089 45.3418 38.7524 45.752 38.7524ZM43.8314 36.6376C44.2383 36.6376 44.5703 36.9941 44.5703 37.4311C44.5703 37.868 44.2383 38.2246 43.8314 38.2246C43.4245 38.2246 43.0924 37.868 43.0924 37.4311C43.0892 36.9906 43.4212 36.6376 43.8314 36.6376ZM26.1296 36.3684C26.5365 36.3684 26.8685 36.725 26.8685 37.1619C26.8685 37.5988 26.5365 37.9554 26.1296 37.9554C25.7227 37.9554 25.3906 37.5988 25.3906 37.1619C25.3906 36.7215 25.7194 36.3684 26.1296 36.3684ZM22.0931 36.683C22.5 36.683 22.832 37.0396 22.832 37.4765C22.832 37.9135 22.5 38.27 22.0931 38.27C21.6862 38.27 21.3542 37.9135 21.3542 37.4765C21.3542 37.0396 21.6862 36.683 22.0931 36.683ZM23.6198 38.8503C24.0267 38.8503 24.3587 39.2068 24.3587 39.6438C24.3587 40.0807 24.0267 40.4373 23.6198 40.4373C23.2129 40.4373 22.8809 40.0807 22.8809 39.6438C22.8809 39.2033 23.2129 38.8503 23.6198 38.8503ZM19.974 38.5881C20.3809 38.5881 20.7129 38.9446 20.7129 39.3816C20.7129 39.8185 20.3809 40.1751 19.974 40.1751C19.5671 40.1751 19.235 39.8185 19.235 39.3816C19.235 38.9446 19.5671 38.5881 19.974 38.5881Z" fill="#4E580F" fill-opacity="0.8"/>
</g>
</g>
<defs>
<clipPath id="clip0_129_141">
<rect width="70" height="70" fill="white"/>
</clipPath>
<clipPath id="clip1_129_141">
<rect width="40" height="40" fill="white" transform="translate(15 15)"/>
</clipPath>
</defs>
</svg>
