<svg width="70" height="70" viewBox="0 0 70 70" fill="none" xmlns="http://www.w3.org/2000/svg">
<g clip-path="url(#clip0_122_117)">
<circle cx="35" cy="35" r="35" fill="#E7ABB9"/>
<path d="M30 45C30 45 31.5 38.765 35 35" stroke="#4E580F" stroke-opacity="0.8" stroke-width="1.5" stroke-linecap="round" stroke-linejoin="round"/>
<path d="M41.9767 27.0683L42.6 33.5516C43.005 37.7566 39.8517 41.5016 35.6467 41.905C31.5217 42.3016 27.7833 39.2866 27.3867 35.16C27.1958 33.1788 27.7997 31.203 29.0656 29.6671C30.3314 28.1312 32.1555 27.161 34.1367 26.97L41.0483 26.3033C41.1597 26.2925 41.272 26.3038 41.379 26.3365C41.4859 26.3692 41.5854 26.4227 41.6716 26.4939C41.7579 26.5651 41.8292 26.6527 41.8816 26.7515C41.9339 26.8504 41.9662 26.9569 41.9767 27.0683Z" stroke="#4E580F" stroke-opacity="0.8" stroke-width="1.5" stroke-linecap="round" stroke-linejoin="round"/>
<path d="M35 51.6666C44.205 51.6666 51.6667 44.2049 51.6667 34.9999C51.6667 25.7949 44.205 18.3333 35 18.3333C25.795 18.3333 18.3333 25.7949 18.3333 34.9999C18.3333 44.2049 25.795 51.6666 35 51.6666Z" stroke="#4E580F" stroke-opacity="0.8" stroke-width="1.5" stroke-linecap="round" stroke-linejoin="round"/>
</g>
<defs>
<clipPath id="clip0_122_117">
<rect width="70" height="70" fill="white"/>
</clipPath>
</defs>
</svg>
