<svg width="44" height="44" viewBox="0 0 44 44" fill="none" xmlns="http://www.w3.org/2000/svg">
<g clip-path="url(#clip0_158_40)">
<path d="M22 0C34.1629 0 44 9.83714 44 22C44 34.1629 34.1629 44 22 44C9.83714 44 0 34.1629 0 22C0 9.83714 9.83714 0 22 0ZM17.9771 33.5971C27.72 33.5971 33.0629 25.52 33.0629 18.5114V17.82C34.1 17.0657 35.0114 16.1229 35.7029 15.0543C34.76 15.4629 33.7229 15.7457 32.6543 15.9029C33.7543 15.2429 34.6029 14.2057 34.98 12.98C33.9429 13.5771 32.8114 14.0171 31.6171 14.2686C30.6429 13.2314 29.26 12.6029 27.7514 12.6029C24.8286 12.6029 22.44 14.9914 22.44 17.9143C22.44 18.3229 22.4714 18.7314 22.5971 19.1086C18.1971 18.8886 14.2686 16.7829 11.66 13.5771C11.22 14.3629 10.9371 15.2743 10.9371 16.2486C10.9371 18.0714 11.88 19.7057 13.2943 20.6486C12.4143 20.6486 11.5971 20.3971 10.9057 19.9886V20.0514C10.9057 22.6286 12.7286 24.7657 15.1486 25.2686C14.7086 25.3943 14.2371 25.4571 13.7657 25.4571C13.42 25.4571 13.1057 25.4257 12.76 25.3629C13.42 27.4686 15.4 29.0086 17.6943 29.04C15.8714 30.4543 13.5771 31.3029 11.0943 31.3029C10.6543 31.3029 10.2457 31.3029 9.83714 31.24C12.1629 32.7486 14.96 33.6286 17.9457 33.6286" fill="#4E580F"/>
</g>
<defs>
<clipPath id="clip0_158_40">
<rect width="44" height="44" fill="white"/>
</clipPath>
</defs>
</svg>
