<svg width="266" height="251" viewBox="0 0 266 251" fill="none" xmlns="http://www.w3.org/2000/svg">
<path d="M264.116 130.525C263.248 128.538 262.083 126.795 260.689 125.399C259.295 124.004 257.701 122.983 256 122.397C246.16 119.152 235.941 118.309 225.863 119.911C232.145 87.9645 228.591 62.8061 225.003 48.4554C223.95 44.1655 221.703 40.5394 218.702 38.285C215.7 36.0307 212.16 35.3098 208.771 36.2632C195.928 40.0202 183.826 47.2036 173.234 57.3576C166.241 36.2638 155.236 17.823 141.252 3.76564C138.873 1.41141 135.965 0.136353 132.975 0.136353C129.985 0.136353 127.077 1.41141 124.698 3.76564C110.714 17.823 99.7086 36.2638 92.7155 57.3576C82.1227 47.2062 70.0216 40.0231 57.179 36.2632C53.7903 35.3098 50.2497 36.0307 47.2483 38.285C44.2469 40.5394 42.0002 44.1655 40.9468 48.4554C37.3588 62.8657 33.8051 88.0241 40.0871 119.911C30.0208 118.314 19.8136 119.157 9.98419 122.397C8.28304 122.983 6.68898 124.004 5.29536 125.399C3.90173 126.795 2.73657 128.538 1.8681 130.525C0.947246 132.579 0.35126 134.851 0.115052 137.208C-0.121157 139.565 0.007162 141.959 0.492491 144.251C4.20663 162.115 15.6242 196.071 50.3812 223.031C85.1382 249.991 116.33 250.14 133.009 250.14C149.689 250.14 180.709 250.14 215.626 223.031C250.544 195.923 261.801 162.1 265.515 144.251C265.997 141.957 266.121 139.562 265.881 137.205C265.641 134.848 265.041 132.577 264.116 130.525ZM210.731 47.845C211.907 47.5287 213.132 47.7946 214.165 48.5905C215.198 49.3865 215.964 50.6551 216.314 52.1473C220.899 70.7556 225.485 109.238 203.968 157.842C191.989 184.921 175.183 205.778 160.281 219.533C171.985 199.525 183.448 168.62 183.448 123.886C183.57 105.167 181.292 86.553 176.708 68.8054C186.723 58.6512 198.34 51.494 210.731 47.845ZM49.7049 52.1473C50.0637 50.667 50.8345 49.4135 51.8668 48.6317C52.8991 47.85 54.1188 47.596 55.2875 47.9195C67.6738 51.5462 79.2911 58.6778 89.3109 68.8054C84.727 86.553 82.4491 105.167 82.5704 123.886C82.5704 168.62 94.0338 199.54 105.738 219.503C90.8355 205.748 74.0302 184.892 62.0509 157.813C40.5227 109.163 45.0737 70.6811 49.7049 52.1473ZM55.1156 212.923C23.1327 188.107 12.701 157.366 9.37663 141.244C9.20747 140.466 9.16191 139.652 9.24271 138.851C9.32351 138.05 9.52898 137.279 9.84663 136.584C10.1141 135.956 10.4762 135.404 10.9115 134.962C11.3468 134.519 11.8462 134.195 12.38 134.009C22.4022 130.743 32.8397 130.236 43.0217 132.52C45.9521 143.368 49.6595 153.834 54.0954 163.782C69.3187 198.17 91.5348 222.838 109.429 236.891C90.194 234.08 71.6604 225.866 55.1156 212.819V212.923ZM133.067 237.248C125.595 230.493 118.988 222.254 113.487 212.834C99.0433 188.479 91.7411 158.587 91.7411 123.886C91.7411 58.0126 118.669 24.5176 130.247 13.1889C131.042 12.4088 132.012 11.9868 133.009 11.9868C134.006 11.9868 134.976 12.4088 135.772 13.1889C147.35 24.5176 174.278 58.0126 174.278 123.886C174.278 158.587 166.975 188.479 152.589 212.73C147.088 222.15 140.481 230.389 133.009 237.144L133.067 237.248ZM256.699 141.244C253.352 157.366 242.943 188.107 210.961 212.923C194.414 225.96 175.88 234.164 156.647 236.965C174.541 222.912 196.769 198.26 211.981 163.857C216.417 153.909 220.124 143.442 223.054 132.595C233.236 130.303 243.675 130.81 253.696 134.083C254.23 134.27 254.729 134.594 255.165 135.036C255.6 135.479 255.962 136.031 256.229 136.659C256.814 138.024 256.963 139.634 256.642 141.14L256.699 141.244Z" fill="#224B13" fill-opacity="0.07"/>
</svg>
